kMon80bV8_clean.ufo
<glyph name="five" format="2">
  <advance width="1092"/>
  <unicode hex="0035"/>
  <outline>
    <contour>
      <point x="992" y="1437" type="line"/>
      <point x="415" y="1437" type="line"/>
      <point x="122" y="852" type="line"/>
      <point x="511" y="852"/>
      <point x="762" y="689"/>
      <point x="762" y="442" type="curve"/>
      <point x="762" y="263"/>
      <point x="643" y="116"/>
      <point x="500" y="116" type="curve"/>
      <point x="440" y="116"/>
      <point x="399" y="145"/>
      <point x="361" y="171" type="curve"/>
      <point x="325" y="197"/>
      <point x="292" y="221"/>
      <point x="228" y="221" type="curve"/>
      <point x="157" y="221"/>
      <point x="100" y="189"/>
      <point x="100" y="125" type="curve"/>
      <point x="100" y="38"/>
      <point x="209" y="-32"/>
      <point x="377" y="-32" type="curve"/>
      <point x="715" y="-32"/>
      <point x="984" y="209"/>
      <point x="984" y="507" type="curve"/>
      <point x="984" y="819"/>
      <point x="723" y="1053"/>
      <point x="407" y="1075" type="curve"/>
      <point x="483" y="1228" type="line"/>
      <point x="895" y="1228" type="line"/>
    </contour>
  </outline>
</glyph>
<glyph name="less" format="2">
  <advance width="1276"/>
  <unicode hex="003C"/>
  <outline>
    <contour>
      <point x="67" y="765" type="line"/>
      <point x="67" y="693" type="line"/>
      <point x="1206" y="219" type="line"/>
      <point x="1206" y="366" type="line"/>
      <point x="330" y="730" type="line"/>
      <point x="1206" y="1116" type="line"/>
      <point x="1206" y="1259" type="line"/>
    </contour>
  </outline>
</glyph>
<glyph name="equal" format="2">
  <advance width="1010"/>
  <unicode hex="003D"/>
  <outline>
    <contour>
      <point x="860" y="160" type="line"/>
      <point x="860" y="320" type="line"/>
      <point x="150" y="320" type="line"/>
      <point x="150" y="160" type="line"/>
    </contour>
    <contour>
      <point x="860" y="460" type="line"/>
      <point x="860" y="620" type="line"/>
      <point x="150" y="620" type="line"/>
      <point x="150" y="460" type="line"/>
    </contour>
  </outline>
</glyph>
<glyph name="M" format="2">
  <advance width="1977"/>
  <unicode hex="004D"/>
  <outline>
    <contour>
      <point x="240" y="242" type="line"/>
      <point x="240" y="108"/>
      <point x="186" y="75"/>
      <point x="40" y="75" type="curve"/>
      <point x="40" y="0" type="line"/>
      <point x="612" y="0" type="line"/>
      <point x="612" y="75" type="line"/>
      <point x="466" y="75"/>
      <point x="412" y="108"/>
      <point x="412" y="242" type="curve"/>
      <point x="412" y="1017" type="line"/>
      <point x="887" y="0" type="line"/>
      <point x="989" y="0" type="line"/>
      <point x="1449" y="1015" type="line"/>
      <point x="1449" y="242" type="line"/>
      <point x="1449" y="108"/>
      <point x="1394" y="75"/>
      <point x="1248" y="75" type="curve"/>
      <point x="1248" y="0" type="line"/>
      <point x="1937" y="0" type="line"/>
      <point x="1937" y="75" type="line"/>
      <point x="1795" y="75"/>
      <point x="1740" y="108"/>
      <point x="1740" y="242" type="curve"/>
      <point x="1740" y="1196" type="line"/>
      <point x="1740" y="1329"/>
      <point x="1795" y="1362"/>
      <point x="1937" y="1362" type="curve"/>
      <point x="1937" y="1437" type="line"/>
      <point x="1457" y="1437" type="line"/>
      <point x="995" y="418" type="line"/>
      <point x="525" y="1437" type="line"/>
      <point x="40" y="1437" type="line"/>
      <point x="40" y="1362" type="line"/>
      <point x="186" y="1362"/>
      <point x="240" y="1329"/>
      <point x="240" y="1196" type="curve"/>
    </contour>
  </outline>
</glyph>
<glyph name="N" format="2">
  <advance width="1645"/>
  <unicode hex="004E"/>
  <outline>
    <contour>
      <point x="273" y="242" type="line"/>
      <point x="273" y="108"/>
      <point x="218" y="75"/>
      <point x="76" y="75" type="curve"/>
      <point x="76" y="0" type="line"/>
      <point x="644" y="0" type="line"/>
      <point x="644" y="75" type="line"/>
      <point x="498" y="75"/>
      <point x="448" y="108"/>
      <point x="448" y="242" type="curve"/>
      <point x="448" y="1031" type="line"/>
      <point x="1293" y="-32" type="line"/>
      <point x="1409" y="-32" type="line"/>
      <point x="1409" y="1196" type="line"/>
      <point x="1409" y="1329"/>
      <point x="1459" y="1362"/>
      <point x="1605" y="1362" type="curve"/>
      <point x="1605" y="1437" type="line"/>
      <point x="1033" y="1437" type="line"/>
      <point x="1033" y="1362" type="line"/>
      <point x="1179" y="1362"/>
      <point x="1234" y="1329"/>
      <point x="1234" y="1196" type="curve"/>
      <point x="1234" y="481" type="line"/>
      <point x="458" y="1437" type="line"/>
      <point x="40" y="1437" type="line"/>
      <point x="40" y="1362" type="line"/>
      <point x="167" y="1362"/>
      <point x="273" y="1290"/>
      <point x="273" y="1185" type="curve"/>
    </contour>
  </outline>
</glyph>
<glyph name="bracketright" format="2">
  <advance width="770"/>
  <unicode hex="005D"/>
  <outline>
    <contour>
      <point x="590" y="-381" type="line"/>
      <point x="590" y="1800" type="line"/>
      <point x="40" y="1800" type="line"/>
      <point x="40" y="1667" type="line"/>
      <point x="330" y="1667" type="line"/>
      <point x="330" y="-248" type="line"/>
      <point x="40" y="-248" type="line"/>
      <point x="40" y="-381" type="line"/>
    </contour>
  </outline>
</glyph>
<glyph name="g" format="2">
  <advance width="1096"/>
  <unicode hex="0067"/>
  <outline>
    <contour>
      <point x="527" y="1004" type="curve" smooth="yes"/>
      <point x="295" y="1004"/>
      <point x="109" y="842"/>
      <point x="109" y="646" type="curve"/>
      <point x="109" y="525"/>
      <point x="173" y="429"/>
      <point x="283" y="366" type="curve"/>
      <point x="189" y="315"/>
      <point x="120" y="231"/>
      <point x="120" y="158" type="curve"/>
      <point x="120" y="106"/>
      <point x="161" y="63"/>
      <point x="223" y="36" type="curve"/>
      <point x="224" y="36" type="line"/>
      <point x="135" y="-41"/>
      <point x="40" y="-125"/>
      <point x="40" y="-225" type="curve"/>
      <point x="40" y="-352"/>
      <point x="196" y="-437"/>
      <point x="506" y="-437" type="curve"/>
      <point x="848" y="-437"/>
      <point x="1056" y="-287"/>
      <point x="1056" y="-54" type="curve"/>
      <point x="1056" y="82"/>
      <point x="984" y="170"/>
      <point x="752" y="177" type="curve" smooth="yes"/>
      <point x="646" y="180"/>
      <point x="540" y="186"/>
      <point x="434" y="193" type="curve" smooth="yes"/>
      <point x="389" y="196"/>
      <point x="364" y="212"/>
      <point x="364" y="238" type="curve"/>
      <point x="364" y="269"/>
      <point x="376" y="299"/>
      <point x="396" y="321" type="curve"/>
      <point x="429" y="312"/>
      <point x="471" y="305"/>
      <point x="510" y="305" type="curve"/>
      <point x="766" y="305"/>
      <point x="946" y="448"/>
      <point x="946" y="653" type="curve"/>
      <point x="946" y="707"/>
      <point x="929" y="768"/>
      <point x="902" y="819" type="curve"/>
      <point x="1056" y="819" type="line"/>
      <point x="1056" y="935" type="line"/>
      <point x="790" y="935" type="line"/>
      <point x="745" y="971"/>
      <point x="638" y="1004"/>
    </contour>
    <contour>
      <point x="721" y="-22" type="curve" smooth="yes"/>
      <point x="830" y="-22"/>
      <point x="896" y="-53"/>
      <point x="896" y="-123" type="curve"/>
      <point x="896" y="-197"/>
      <point x="772" y="-274"/>
      <point x="572" y="-274" type="curve"/>
      <point x="379" y="-274"/>
      <point x="284" y="-207"/>
      <point x="284" y="-134" type="curve"/>
      <point x="284" y="-88"/>
      <point x="303" y="-29"/>
      <point x="339" y="4" type="curve"/>
      <point x="411" y="-8"/>
      <point x="574" y="-22"/>
    </contour>
    <contour>
      <point x="539" y="395" type="curve" smooth="yes"/>
      <point x="443" y="395"/>
      <point x="378" y="518"/>
      <point x="378" y="679" type="curve"/>
      <point x="378" y="813"/>
      <point x="420" y="914"/>
      <point x="506" y="914" type="curve"/>
      <point x="601" y="914"/>
      <point x="681" y="781"/>
      <point x="681" y="610" type="curve"/>
      <point x="681" y="489"/>
      <point x="613" y="395"/>
    </contour>
  </outline>
</glyph>
<glyph name="i" format="2">
  <advance width="627"/>
  <unicode hex="0069"/>
  <outline>
    <contour>
      <point x="186" y="238" type="line"/>
      <point x="186" y="121"/>
      <point x="165" y="75"/>
      <point x="40" y="75" type="curve"/>
      <point x="40" y="0" type="line"/>
      <point x="587" y="0" type="line"/>
      <point x="587" y="75" type="line"/>
      <point x="463" y="75"/>
      <point x="437" y="121"/>
      <point x="437" y="238" type="curve"/>
      <point x="437" y="1004" type="line"/>
      <point x="334" y="1004" type="line"/>
      <point x="24" y="863" type="line"/>
      <point x="52" y="790" type="line"/>
      <point x="108" y="807"/>
      <point x="153" y="819"/>
      <point x="165" y="819" type="curve"/>
      <point x="186" y="819"/>
      <point x="186" y="778"/>
      <point x="186" y="683" type="curve"/>
    </contour>
    <contour>
      <point x="170" y="1331" type="curve" smooth="yes"/>
      <point x="170" y="1254"/>
      <point x="233" y="1191"/>
      <point x="310" y="1191" type="curve" smooth="yes"/>
      <point x="387" y="1191"/>
      <point x="450" y="1254"/>
      <point x="450" y="1331" type="curve" smooth="yes"/>
      <point x="450" y="1408"/>
      <point x="387" y="1471"/>
      <point x="310" y="1471" type="curve" smooth="yes"/>
      <point x="233" y="1471"/>
      <point x="170" y="1408"/>
    </contour>
  </outline>
</glyph>
<glyph name="n" format="2">
  <advance width="1188"/>
  <unicode hex="006E"/>
  <outline>
    <contour>
      <point x="202" y="238" type="line"/>
      <point x="202" y="121"/>
      <point x="177" y="75"/>
      <point x="52" y="75" type="curve"/>
      <point x="52" y="0" type="line"/>
      <point x="579" y="0" type="line"/>
      <point x="579" y="75" type="line"/>
      <point x="474" y="75"/>
      <point x="453" y="121"/>
      <point x="453" y="238" type="curve"/>
      <point x="453" y="721" type="line"/>
      <point x="519" y="791"/>
      <point x="597" y="838"/>
      <point x="653" y="838" type="curve"/>
      <point x="710" y="838"/>
      <point x="749" y="779"/>
      <point x="749" y="667" type="curve"/>
      <point x="749" y="238" type="line"/>
      <point x="749" y="121"/>
      <point x="726" y="75"/>
      <point x="623" y="75" type="curve"/>
      <point x="623" y="0" type="line"/>
      <point x="1148" y="0" type="line"/>
      <point x="1148" y="75" type="line"/>
      <point x="1024" y="75"/>
      <point x="1000" y="121"/>
      <point x="1000" y="238" type="curve"/>
      <point x="1000" y="697" type="line"/>
      <point x="1000" y="868"/>
      <point x="887" y="1004"/>
      <point x="744" y="1004" type="curve"/>
      <point x="640" y="1004"/>
      <point x="540" y="962"/>
      <point x="453" y="881" type="curve"/>
      <point x="453" y="1004" type="line"/>
      <point x="349" y="1004" type="line"/>
      <point x="40" y="863" type="line"/>
      <point x="69" y="788" type="line"/>
      <point x="145" y="812"/>
      <point x="167" y="819"/>
      <point x="180" y="819" type="curve"/>
      <point x="202" y="819"/>
      <point x="202" y="778"/>
      <point x="202" y="683" type="curve"/>
    </contour>
  </outline>
</glyph>
<glyph name="macron" format="2">
  <advance width="833"/>
  <unicode hex="00AF"/>
  <unicode hex="02C9"/>
  <outline>
    <contour>
      <point x="743" y="1366" type="line"/>
      <point x="743" y="1198" type="line"/>
      <point x="90" y="1198" type="line"/>
      <point x="90" y="1366" type="line"/>
    </contour>
  </outline>
</glyph>
<glyph name="threesuperior" format="2">
  <advance width="678"/>
  <unicode hex="00B3"/>
  <outline>
    <contour>
      <point x="188" y="1038" type="line"/>
      <point x="327" y="1038"/>
      <point x="436" y="998"/>
      <point x="436" y="885" type="curve"/>
      <point x="436" y="821"/>
      <point x="386" y="764"/>
      <point x="333" y="764" type="curve"/>
      <point x="304" y="764"/>
      <point x="271" y="779"/>
      <point x="241" y="793" type="curve"/>
      <point x="212" y="806"/>
      <point x="185" y="818"/>
      <point x="148" y="818" type="curve"/>
      <point x="100" y="818"/>
      <point x="50" y="803"/>
      <point x="50" y="758" type="curve"/>
      <point x="50" y="685"/>
      <point x="195" y="666"/>
      <point x="247" y="666" type="curve"/>
      <point x="430" y="666"/>
      <point x="628" y="748"/>
      <point x="628" y="948" type="curve"/>
      <point x="628" y="1041"/>
      <point x="578" y="1101"/>
      <point x="494" y="1141" type="curve"/>
      <point x="543" y="1183"/>
      <point x="581" y="1241"/>
      <point x="581" y="1298" type="curve"/>
      <point x="581" y="1416"/>
      <point x="459" y="1470"/>
      <point x="345" y="1470" type="curve"/>
      <point x="208" y="1470"/>
      <point x="106" y="1398"/>
      <point x="55" y="1284" type="curve"/>
      <point x="153" y="1238" type="line"/>
      <point x="196" y="1298"/>
      <point x="247" y="1343"/>
      <point x="293" y="1343" type="curve"/>
      <point x="346" y="1343"/>
      <point x="378" y="1313"/>
      <point x="378" y="1250" type="curve"/>
      <point x="378" y="1164"/>
      <point x="283" y="1113"/>
      <point x="188" y="1113" type="curve"/>
    </contour>
  </outline>
</glyph>
<glyph name="onesuperior" format="2">
  <advance width="555"/>
  <unicode hex="00B9"/>
  <outline>
    <contour>
      <point x="73" y="688" type="line"/>
      <point x="505" y="688" type="line"/>
      <point x="505" y="764" type="line"/>
      <point x="413" y="764"/>
      <point x="396" y="774"/>
      <point x="396" y="824" type="curve"/>
      <point x="396" y="1470" type="line"/>
      <point x="301" y="1470" type="line"/>
      <point x="50" y="1365" type="line"/>
      <point x="84" y="1287" type="line"/>
      <point x="182" y="1328" type="line"/>
      <point x="182" y="824" type="line"/>
      <point x="182" y="774"/>
      <point x="166" y="764"/>
      <point x="73" y="764" type="curve"/>
    </contour>
  </outline>
</glyph>
<glyph name="otilde" format="2">
  <advance width="1131"/>
  <unicode hex="00F5"/>
  <outline>
    <contour>
      <point x="565" y="-22" type="curve" smooth="yes"/>
      <point x="851" y="-22"/>
      <point x="1061" y="224"/>
      <point x="1061" y="519" type="curve"/>
      <point x="1061" y="787"/>
      <point x="851" y="1004"/>
      <point x="565" y="1004" type="curve"/>
      <point x="280" y="1004"/>
      <point x="70" y="769"/>
      <point x="70" y="479" type="curve"/>
      <point x="70" y="205"/>
      <point x="280" y="-22"/>
    </contour>
    <contour>
      <point x="598" y="90" type="curve" smooth="yes"/>
      <point x="438" y="90"/>
      <point x="344" y="304"/>
      <point x="344" y="565" type="curve"/>
      <point x="344" y="747"/>
      <point x="430" y="896"/>
      <point x="525" y="896" type="curve"/>
      <point x="718" y="896"/>
      <point x="788" y="686"/>
      <point x="788" y="424" type="curve"/>
      <point x="788" y="241"/>
      <point x="709" y="90"/>
    </contour>
    <contour>
      <point x="319" y="1150" type="line"/>
      <point x="330" y="1208"/>
      <point x="374" y="1255"/>
      <point x="416" y="1255" type="curve"/>
      <point x="449" y="1255"/>
      <point x="476" y="1241"/>
      <point x="531" y="1207" type="curve" smooth="yes"/>
      <point x="593" y="1168"/>
      <point x="642" y="1150"/>
      <point x="722" y="1150" type="curve"/>
      <point x="904" y="1150"/>
      <point x="979" y="1277"/>
      <point x="979" y="1425" type="curve"/>
      <point x="874" y="1425" type="line"/>
      <point x="863" y="1368"/>
      <point x="816" y="1320"/>
      <point x="774" y="1320" type="curve"/>
      <point x="741" y="1320"/>
      <point x="714" y="1334"/>
      <point x="659" y="1368" type="curve" smooth="yes"/>
      <point x="597" y="1407"/>
      <point x="548" y="1425"/>
      <point x="468" y="1425" type="curve"/>
      <point x="286" y="1425"/>
      <point x="211" y="1303"/>
      <point x="211" y="1150" type="curve"/>
    </contour>
  </outline>
</glyph>
<glyph name="eng" format="2">
  <advance width="1080"/>
  <unicode hex="014B"/>
  <outline>
    <contour>
      <point x="579" y="75" type="line"/>
      <point x="454" y="75"/>
      <point x="433" y="121"/>
      <point x="433" y="238" type="curve"/>
      <point x="433" y="721" type="line"/>
      <point x="499" y="791"/>
      <point x="577" y="838"/>
      <point x="633" y="838" type="curve"/>
      <point x="690" y="838"/>
      <point x="729" y="779"/>
      <point x="729" y="667" type="curve"/>
      <point x="729" y="-17" type="line"/>
      <point x="729" y="-141"/>
      <point x="693" y="-247"/>
      <point x="588" y="-247" type="curve"/>
      <point x="542" y="-247"/>
      <point x="500" y="-214"/>
      <point x="452" y="-176" type="curve"/>
      <point x="425" y="-156"/>
      <point x="395" y="-135"/>
      <point x="324" y="-135" type="curve"/>
      <point x="231" y="-135"/>
      <point x="182" y="-198"/>
      <point x="182" y="-262" type="curve"/>
      <point x="182" y="-321"/>
      <point x="236" y="-360"/>
      <point x="289" y="-389" type="curve"/>
      <point x="341" y="-418"/>
      <point x="440" y="-437"/>
      <point x="563" y="-437" type="curve" smooth="yes"/>
      <point x="769" y="-437"/>
      <point x="980" y="-314"/>
      <point x="980" y="-17" type="curve"/>
      <point x="980" y="697" type="line"/>
      <point x="980" y="868"/>
      <point x="867" y="1004"/>
      <point x="724" y="1004" type="curve"/>
      <point x="620" y="1004"/>
      <point x="520" y="962"/>
      <point x="433" y="881" type="curve"/>
      <point x="433" y="1004" type="line"/>
      <point x="329" y="1004" type="line"/>
      <point x="20" y="863" type="line"/>
      <point x="49" y="788" type="line"/>
      <point x="125" y="812"/>
      <point x="147" y="819"/>
      <point x="160" y="819" type="curve"/>
      <point x="182" y="819"/>
      <point x="182" y="778"/>
      <point x="182" y="683" type="curve"/>
      <point x="182" y="238" type="line"/>
      <point x="182" y="121"/>
      <point x="157" y="75"/>
      <point x="32" y="75" type="curve"/>
      <point x="32" y="0" type="line"/>
      <point x="579" y="0" type="line"/>
    </contour>
  </outline>
</glyph>
<glyph name="uni0253" format="2">
  <advance width="1107"/>
  <unicode hex="0253"/>
  <outline>
    <contour>
      <point x="150" y="109" type="line"/>
      <point x="249" y="25"/>
      <point x="379" y="-22"/>
      <point x="519" y="-22" type="curve"/>
      <point x="808" y="-22"/>
      <point x="1037" y="241"/>
      <point x="1037" y="561" type="curve"/>
      <point x="1037" y="806"/>
      <point x="878" y="1004"/>
      <point x="655" y="1004" type="curve"/>
      <point x="570" y="1004"/>
      <point x="472" y="959"/>
      <point x="400" y="894" type="curve"/>
      <point x="400" y="1202" type="line"/>
      <point x="400" y="1291"/>
      <point x="449" y="1362"/>
      <point x="502" y="1362" type="curve"/>
      <point x="543" y="1362"/>
      <point x="564" y="1320"/>
      <point x="585" y="1280" type="curve"/>
      <point x="610" y="1231"/>
      <point x="635" y="1183"/>
      <point x="728" y="1183" type="curve"/>
      <point x="797" y="1183"/>
      <point x="851" y="1216"/>
      <point x="851" y="1283" type="curve"/>
      <point x="851" y="1413"/>
      <point x="703" y="1470"/>
      <point x="510" y="1470" type="curve"/>
      <point x="308" y="1470"/>
      <point x="150" y="1308"/>
      <point x="150" y="1104" type="curve"/>
    </contour>
    <contour>
      <point x="568" y="819" type="curve" smooth="yes"/>
      <point x="684" y="819"/>
      <point x="779" y="678"/>
      <point x="779" y="503" type="curve"/>
      <point x="779" y="268"/>
      <point x="689" y="97"/>
      <point x="553" y="97" type="curve"/>
      <point x="486" y="97"/>
      <point x="439" y="136"/>
      <point x="400" y="174" type="curve"/>
      <point x="400" y="724" type="line"/>
      <point x="439" y="777"/>
      <point x="511" y="819"/>
    </contour>
  </outline>
</glyph>
<glyph name="uni0254" format="2">
  <advance width="1016"/>
  <unicode hex="0254"/>
  <outline>
    <contour>
      <point x="503" y="1004" type="curve" smooth="yes"/>
      <point x="279" y="1004"/>
      <point x="125" y="851"/>
      <point x="63" y="598" type="curve"/>
      <point x="171" y="558" type="line"/>
      <point x="229" y="700"/>
      <point x="304" y="819"/>
      <point x="437" y="819" type="curve"/>
      <point x="591" y="819"/>
      <point x="696" y="624"/>
      <point x="696" y="394" type="curve"/>
      <point x="696" y="223"/>
      <point x="620" y="86"/>
      <point x="487" y="86" type="curve"/>
      <point x="404" y="86"/>
      <point x="381" y="144"/>
      <point x="381" y="224" type="curve"/>
      <point x="381" y="284"/>
      <point x="327" y="348"/>
      <point x="244" y="348" type="curve"/>
      <point x="165" y="348"/>
      <point x="88" y="293"/>
      <point x="88" y="224" type="curve"/>
      <point x="88" y="86"/>
      <point x="242" y="-22"/>
      <point x="458" y="-22" type="curve"/>
      <point x="729" y="-22"/>
      <point x="946" y="217"/>
      <point x="946" y="515" type="curve"/>
      <point x="946" y="784"/>
      <point x="745" y="1004"/>
    </contour>
  </outline>
</glyph>
<glyph name="uni0259" format="2">
  <advance width="1046"/>
  <unicode hex="0259"/>
  <outline>
    <contour>
      <point x="514" y="1004" type="curve" smooth="yes"/>
      <point x="319" y="1004"/>
      <point x="118" y="829"/>
      <point x="61" y="617" type="curve"/>
      <point x="179" y="599" type="line"/>
      <point x="210" y="722"/>
      <point x="340" y="819"/>
      <point x="466" y="819" type="curve"/>
      <point x="617" y="819"/>
      <point x="727" y="633"/>
      <point x="733" y="399" type="curve"/>
      <point x="91" y="399" type="line"/>
      <point x="91" y="167"/>
      <point x="264" y="-22"/>
      <point x="514" y="-22" type="curve"/>
      <point x="793" y="-22"/>
      <point x="976" y="208"/>
      <point x="976" y="525" type="curve"/>
      <point x="976" y="787"/>
      <point x="769" y="1004"/>
    </contour>
    <contour>
      <point x="564" y="86" type="curve" smooth="yes"/>
      <point x="468" y="86"/>
      <point x="389" y="187"/>
      <point x="381" y="309" type="curve"/>
      <point x="730" y="309" type="line"/>
      <point x="713" y="187"/>
      <point x="642" y="86"/>
    </contour>
  </outline>
</glyph>
<glyph name="uni025B" format="2">
  <advance width="942"/>
  <unicode hex="025B"/>
  <outline>
    <contour>
      <point x="767" y="270" type="line"/>
      <point x="721" y="201"/>
      <point x="595" y="118"/>
      <point x="512" y="118" type="curve"/>
      <point x="394" y="118"/>
      <point x="331" y="193"/>
      <point x="331" y="295" type="curve"/>
      <point x="331" y="400"/>
      <point x="407" y="478"/>
      <point x="475" y="478" type="curve"/>
      <point x="495" y="478"/>
      <point x="513" y="473"/>
      <point x="529" y="468" type="curve"/>
      <point x="550" y="461"/>
      <point x="572" y="455"/>
      <point x="613" y="455" type="curve"/>
      <point x="657" y="455"/>
      <point x="726" y="478"/>
      <point x="726" y="529" type="curve"/>
      <point x="726" y="581"/>
      <point x="657" y="603"/>
      <point x="613" y="603" type="curve"/>
      <point x="581" y="603"/>
      <point x="561" y="598"/>
      <point x="542" y="591" type="curve"/>
      <point x="543" y="591" type="line"/>
      <point x="524" y="586"/>
      <point x="505" y="580"/>
      <point x="484" y="580" type="curve"/>
      <point x="413" y="580"/>
      <point x="342" y="654"/>
      <point x="342" y="732" type="curve"/>
      <point x="342" y="824"/>
      <point x="393" y="902"/>
      <point x="477" y="902" type="curve"/>
      <point x="549" y="902"/>
      <point x="574" y="848"/>
      <point x="597" y="800" type="curve"/>
      <point x="597" y="801" type="line"/>
      <point x="621" y="751"/>
      <point x="643" y="706"/>
      <point x="730" y="706" type="curve"/>
      <point x="804" y="706"/>
      <point x="855" y="752"/>
      <point x="855" y="801" type="curve"/>
      <point x="855" y="914"/>
      <point x="648" y="1004"/>
      <point x="486" y="1004" type="curve"/>
      <point x="209" y="1004"/>
      <point x="84" y="836"/>
      <point x="84" y="732" type="curve"/>
      <point x="84" y="631"/>
      <point x="133" y="548"/>
      <point x="238" y="502" type="curve"/>
      <point x="127" y="439"/>
      <point x="62" y="365"/>
      <point x="62" y="242" type="curve"/>
      <point x="62" y="100"/>
      <point x="179" y="-24"/>
      <point x="451" y="-24" type="curve"/>
      <point x="680" y="-24"/>
      <point x="815" y="113"/>
      <point x="872" y="241" type="curve"/>
    </contour>
  </outline>
  <guideline angle="0" x="0" y="985"/>
  <guideline angle="0" x="0" y="502"/>
  <guideline angle="0" x="0" y="-3"/>
</glyph>
<glyph name="uni025E" format="2">
  <advance width="991"/>
  <unicode hex="025E"/>
  <outline>
    <contour>
      <point x="36" y="529" type="curve" smooth="yes"/>
      <point x="36" y="176"/>
      <point x="268" y="-24"/>
      <point x="529" y="-24" type="curve"/>
      <point x="804" y="-24"/>
      <point x="921" y="100"/>
      <point x="921" y="242" type="curve"/>
      <point x="921" y="366"/>
      <point x="855" y="439"/>
      <point x="743" y="502" type="curve"/>
      <point x="848" y="548"/>
      <point x="899" y="631"/>
      <point x="899" y="732" type="curve"/>
      <point x="899" y="836"/>
      <point x="773" y="1004"/>
      <point x="497" y="1004" type="curve"/>
      <point x="273" y="1004"/>
      <point x="36" y="852"/>
    </contour>
    <contour>
      <point x="641" y="732" type="curve" smooth="yes"/>
      <point x="641" y="654"/>
      <point x="568" y="580"/>
      <point x="499" y="580" type="curve"/>
      <point x="478" y="580"/>
      <point x="458" y="585"/>
      <point x="440" y="591" type="curve" smooth="yes"/>
      <point x="419" y="598"/>
      <point x="402" y="603"/>
      <point x="370" y="603" type="curve"/>
      <point x="326" y="603"/>
      <point x="257" y="581"/>
      <point x="257" y="529" type="curve"/>
      <point x="257" y="478"/>
      <point x="326" y="455"/>
      <point x="370" y="455" type="curve"/>
      <point x="410" y="455"/>
      <point x="433" y="461"/>
      <point x="454" y="468" type="curve" smooth="yes"/>
      <point x="471" y="474"/>
      <point x="487" y="478"/>
      <point x="508" y="478" type="curve"/>
      <point x="576" y="478"/>
      <point x="652" y="400"/>
      <point x="652" y="295" type="curve"/>
      <point x="652" y="193"/>
      <point x="589" y="118"/>
      <point x="473" y="118" type="curve"/>
      <point x="347" y="118"/>
      <point x="198" y="290"/>
      <point x="198" y="529" type="curve"/>
      <point x="198" y="739"/>
      <point x="326" y="902"/>
      <point x="506" y="902" type="curve"/>
      <point x="590" y="902"/>
      <point x="641" y="822"/>
    </contour>
  </outline>
  <guideline angle="0" x="0" y="985"/>
  <guideline angle="0" x="0" y="502"/>
  <guideline angle="0" x="0" y="-3"/>
</glyph>
<glyph name="uni026C" format="2">
  <advance width="814"/>
  <unicode hex="026C"/>
  <outline>
    <contour>
      <point x="764" y="803" type="curve" smooth="yes"/>
      <point x="764" y="836"/>
      <point x="724" y="850"/>
      <point x="690" y="850" type="curve"/>
      <point x="663" y="850"/>
      <point x="637" y="844"/>
      <point x="628" y="831" type="curve"/>
      <point x="610" y="805"/>
      <point x="584" y="781"/>
      <point x="553" y="764" type="curve"/>
      <point x="553" y="1470" type="line"/>
      <point x="453" y="1470" type="line"/>
      <point x="140" y="1332" type="line"/>
      <point x="166" y="1255" type="line"/>
      <point x="227" y="1274"/>
      <point x="267" y="1285"/>
      <point x="280" y="1285" type="curve"/>
      <point x="301" y="1285"/>
      <point x="301" y="1244"/>
      <point x="301" y="1152" type="curve"/>
      <point x="301" y="1001" type="line"/>
      <point x="291" y="1003"/>
      <point x="279" y="1004"/>
      <point x="268" y="1004" type="curve"/>
      <point x="212" y="1004"/>
      <point x="158" y="990"/>
      <point x="122" y="961" type="curve"/>
      <point x="79" y="925"/>
      <point x="50" y="874"/>
      <point x="50" y="818" type="curve"/>
      <point x="50" y="768"/>
      <point x="72" y="716"/>
      <point x="118" y="671" type="curve"/>
      <point x="158" y="632"/>
      <point x="216" y="605"/>
      <point x="301" y="601" type="curve"/>
      <point x="301" y="238" type="line"/>
      <point x="301" y="121"/>
      <point x="280" y="75"/>
      <point x="156" y="75" type="curve"/>
      <point x="156" y="0" type="line"/>
      <point x="702" y="0" type="line"/>
      <point x="702" y="75" type="line"/>
      <point x="578" y="75"/>
      <point x="553" y="121"/>
      <point x="553" y="238" type="curve"/>
      <point x="553" y="637" type="line"/>
      <point x="642" y="670"/>
      <point x="716" y="718"/>
      <point x="756" y="776" type="curve" smooth="yes"/>
      <point x="762" y="784"/>
      <point x="764" y="796"/>
    </contour>
    <contour>
      <point x="199" y="820" type="curve"/>
      <point x="199" y="850"/>
      <point x="205" y="867"/>
      <point x="215" y="875" type="curve"/>
      <point x="230" y="888"/>
      <point x="250" y="896"/>
      <point x="268" y="896" type="curve"/>
      <point x="278" y="896"/>
      <point x="289" y="891"/>
      <point x="301" y="884" type="curve"/>
      <point x="301" y="710" type="line"/>
      <point x="241" y="719"/>
      <point x="199" y="758"/>
    </contour>
  </outline>
</glyph>
<glyph name="uni0275" format="2">
  <advance width="1126"/>
  <unicode hex="0275"/>
  <outline>
    <contour>
      <point x="560" y="-22" type="curve" smooth="yes"/>
      <point x="846" y="-22"/>
      <point x="1056" y="224"/>
      <point x="1056" y="519" type="curve"/>
      <point x="1056" y="787"/>
      <point x="846" y="1004"/>
      <point x="560" y="1004" type="curve"/>
      <point x="275" y="1004"/>
      <point x="65" y="769"/>
      <point x="65" y="479" type="curve"/>
      <point x="65" y="205"/>
      <point x="275" y="-22"/>
    </contour>
    <contour>
      <point x="520" y="896" type="curve" smooth="yes"/>
      <point x="674" y="896"/>
      <point x="750" y="762"/>
      <point x="774" y="575" type="curve"/>
      <point x="339" y="575" type="line"/>
      <point x="341" y="752"/>
      <point x="426" y="896"/>
    </contour>
    <contour>
      <point x="593" y="90" type="curve" smooth="yes"/>
      <point x="468" y="90"/>
      <point x="383" y="220"/>
      <point x="352" y="401" type="curve"/>
      <point x="782" y="401" type="line"/>
      <point x="776" y="229"/>
      <point x="699" y="90"/>
    </contour>
  </outline>
</glyph>
<glyph name="uni0279" format="2">
  <advance width="833"/>
  <unicode hex="0279"/>
  <outline>
    <contour>
      <point x="646" y="766" type="line"/>
      <point x="646" y="883"/>
      <point x="672" y="928"/>
      <point x="796" y="928" type="curve"/>
      <point x="796" y="1004" type="line"/>
      <point x="249" y="1004" type="line"/>
      <point x="249" y="928" type="line"/>
      <point x="374" y="928"/>
      <point x="399" y="883"/>
      <point x="399" y="766" type="curve"/>
      <point x="399" y="311" type="line"/>
      <point x="357" y="238"/>
      <point x="320" y="185"/>
      <point x="301" y="185" type="curve"/>
      <point x="294" y="185"/>
      <point x="280" y="197"/>
      <point x="266" y="208" type="curve"/>
      <point x="267" y="208" type="line"/>
      <point x="244" y="227"/>
      <point x="220" y="247"/>
      <point x="159" y="247" type="curve"/>
      <point x="71" y="247"/>
      <point x="20" y="206"/>
      <point x="20" y="132" type="curve"/>
      <point x="20" y="59"/>
      <point x="96" y="0"/>
      <point x="192" y="0" type="curve"/>
      <point x="271" y="0"/>
      <point x="340" y="46"/>
      <point x="399" y="110" type="curve"/>
      <point x="399" y="0" type="line"/>
      <point x="499" y="0" type="line"/>
      <point x="808" y="141" type="line"/>
      <point x="787" y="211" type="line"/>
      <point x="778" y="209"/>
      <point x="729" y="197"/>
      <point x="721" y="196" type="curve"/>
      <point x="696" y="190"/>
      <point x="679" y="185"/>
      <point x="668" y="185" type="curve"/>
      <point x="646" y="185"/>
      <point x="646" y="226"/>
      <point x="646" y="321" type="curve"/>
    </contour>
  </outline>
</glyph>
<glyph name="uni027A" format="2">
  <advance width="833"/>
  <unicode hex="027A"/>
  <outline>
    <contour>
      <point x="397" y="1152" type="curve"/>
      <point x="397" y="289" type="line"/>
      <point x="355" y="216"/>
      <point x="318" y="162"/>
      <point x="298" y="162" type="curve"/>
      <point x="291" y="162"/>
      <point x="277" y="174"/>
      <point x="263" y="186" type="curve"/>
      <point x="240" y="204"/>
      <point x="216" y="225"/>
      <point x="156" y="225" type="curve"/>
      <point x="69" y="225"/>
      <point x="18" y="184"/>
      <point x="18" y="110" type="curve"/>
      <point x="18" y="37"/>
      <point x="94" y="-22"/>
      <point x="189" y="-22" type="curve"/>
      <point x="269" y="-22"/>
      <point x="338" y="23"/>
      <point x="397" y="89" type="curve"/>
      <point x="397" y="-22" type="line"/>
      <point x="496" y="-22" type="line"/>
      <point x="805" y="118" type="line"/>
      <point x="783" y="189" type="line"/>
      <point x="774" y="187"/>
      <point x="726" y="175"/>
      <point x="718" y="173" type="curve"/>
      <point x="693" y="167"/>
      <point x="676" y="162"/>
      <point x="665" y="162" type="curve"/>
      <point x="642" y="162"/>
      <point x="642" y="203"/>
      <point x="642" y="299" type="curve"/>
      <point x="642" y="1470" type="line"/>
      <point x="544" y="1470" type="line"/>
      <point x="233" y="1332" type="line"/>
      <point x="262" y="1255" type="line"/>
      <point x="322" y="1274"/>
      <point x="362" y="1285"/>
      <point x="374" y="1285" type="curve"/>
      <point x="397" y="1285"/>
      <point x="397" y="1244"/>
    </contour>
  </outline>
</glyph>
<glyph name="uni0282" format="2">
  <advance width="903"/>
  <unicode hex="0282"/>
  <outline>
    <contour>
      <point x="108" y="-72" type="line"/>
      <point x="108" y="-275"/>
      <point x="210" y="-437"/>
      <point x="395" y="-437" type="curve"/>
      <point x="552" y="-437"/>
      <point x="684" y="-380"/>
      <point x="684" y="-250" type="curve"/>
      <point x="684" y="-182"/>
      <point x="629" y="-151"/>
      <point x="559" y="-151" type="curve"/>
      <point x="460" y="-151"/>
      <point x="437" y="-206"/>
      <point x="415" y="-259" type="curve"/>
      <point x="401" y="-295"/>
      <point x="386" y="-329"/>
      <point x="371" y="-329" type="curve"/>
      <point x="257" y="-329"/>
      <point x="229" y="-178"/>
      <point x="229" y="-61" type="curve"/>
      <point x="229" y="18" type="line"/>
      <point x="229" y="22"/>
      <point x="230" y="24"/>
      <point x="232" y="26" type="curve"/>
      <point x="300" y="0"/>
      <point x="358" y="-22"/>
      <point x="465" y="-22" type="curve"/>
      <point x="706" y="-22"/>
      <point x="833" y="114"/>
      <point x="833" y="285" type="curve"/>
      <point x="833" y="464"/>
      <point x="666" y="539"/>
      <point x="514" y="607" type="curve"/>
      <point x="407" y="655"/>
      <point x="307" y="699"/>
      <point x="307" y="795" type="curve"/>
      <point x="307" y="854"/>
      <point x="358" y="903"/>
      <point x="436" y="903" type="curve"/>
      <point x="538" y="903"/>
      <point x="629" y="791"/>
      <point x="637" y="648" type="curve"/>
      <point x="752" y="648" type="line"/>
      <point x="752" y="1004" type="line"/>
      <point x="640" y="1004" type="line"/>
      <point x="638" y="987"/>
      <point x="636" y="977"/>
      <point x="632" y="967" type="curve"/>
      <point x="568" y="989"/>
      <point x="514" y="1004"/>
      <point x="417" y="1004" type="curve"/>
      <point x="226" y="1004"/>
      <point x="100" y="882"/>
      <point x="100" y="722" type="curve"/>
      <point x="100" y="540"/>
      <point x="254" y="465"/>
      <point x="395" y="397" type="curve"/>
      <point x="494" y="349"/>
      <point x="586" y="305"/>
      <point x="586" y="205" type="curve"/>
      <point x="586" y="143"/>
      <point x="534" y="90"/>
      <point x="468" y="90" type="curve"/>
      <point x="355" y="90"/>
      <point x="248" y="210"/>
      <point x="227" y="367" type="curve"/>
      <point x="108" y="367" type="line"/>
    </contour>
  </outline>
</glyph>
<glyph name="uni0283" format="2">
  <advance width="894"/>
  <unicode hex="0283"/>
  <outline>
    <contour>
      <point x="652" y="-72" type="curve" smooth="yes"/>
      <point x="652" y="7"/>
      <point x="645" y="75"/>
      <point x="630" y="168" type="curve"/>
      <point x="611" y="284"/>
      <point x="589" y="433"/>
      <point x="567" y="580" type="curve"/>
      <point x="548" y="709"/>
      <point x="529" y="837"/>
      <point x="512" y="939" type="curve"/>
      <point x="496" y="1036"/>
      <point x="493" y="1100"/>
      <point x="493" y="1202" type="curve"/>
      <point x="493" y="1291"/>
      <point x="542" y="1362"/>
      <point x="595" y="1362" type="curve"/>
      <point x="635" y="1362"/>
      <point x="656" y="1320"/>
      <point x="677" y="1280" type="curve"/>
      <point x="702" y="1231"/>
      <point x="727" y="1183"/>
      <point x="820" y="1183" type="curve"/>
      <point x="890" y="1183"/>
      <point x="944" y="1216"/>
      <point x="944" y="1283" type="curve"/>
      <point x="944" y="1413"/>
      <point x="795" y="1470"/>
      <point x="602" y="1470" type="curve"/>
      <point x="400" y="1470"/>
      <point x="242" y="1308"/>
      <point x="242" y="1104" type="curve"/>
      <point x="242" y="1024"/>
      <point x="251" y="949"/>
      <point x="265" y="865" type="curve"/>
      <point x="294" y="684"/>
      <point x="331" y="433"/>
      <point x="362" y="223" type="curve"/>
      <point x="369" y="179"/>
      <point x="375" y="137"/>
      <point x="381" y="98" type="curve"/>
      <point x="399" y="-16"/>
      <point x="401" y="-55"/>
      <point x="401" y="-170" type="curve"/>
      <point x="401" y="-257"/>
      <point x="352" y="-329"/>
      <point x="299" y="-329" type="curve"/>
      <point x="258" y="-329"/>
      <point x="237" y="-289"/>
      <point x="217" y="-248" type="curve"/>
      <point x="191" y="-198"/>
      <point x="166" y="-151"/>
      <point x="74" y="-151" type="curve"/>
      <point x="5" y="-151"/>
      <point x="-50" y="-182"/>
      <point x="-50" y="-250" type="curve"/>
      <point x="-50" y="-380"/>
      <point x="99" y="-437"/>
      <point x="292" y="-437" type="curve"/>
      <point x="494" y="-437"/>
      <point x="652" y="-275"/>
    </contour>
  </outline>
</glyph>
<glyph name="uni0288" format="2">
  <advance width="720"/>
  <unicode hex="0288"/>
  <outline>
    <contour>
      <point x="419" y="-170" type="curve"/>
      <point x="419" y="874" type="line"/>
      <point x="648" y="874" type="line"/>
      <point x="648" y="982" type="line"/>
      <point x="419" y="982" type="line"/>
      <point x="419" y="1306" type="line"/>
      <point x="292" y="1306" type="line"/>
      <point x="259" y="1117"/>
      <point x="157" y="963"/>
      <point x="22" y="963" type="curve"/>
      <point x="22" y="874" type="line"/>
      <point x="167" y="874" type="line"/>
      <point x="167" y="-72" type="line"/>
      <point x="167" y="-275"/>
      <point x="327" y="-437"/>
      <point x="527" y="-437" type="curve"/>
      <point x="722" y="-437"/>
      <point x="871" y="-380"/>
      <point x="871" y="-250" type="curve"/>
      <point x="871" y="-182"/>
      <point x="816" y="-151"/>
      <point x="746" y="-151" type="curve"/>
      <point x="654" y="-151"/>
      <point x="629" y="-198"/>
      <point x="603" y="-248" type="curve"/>
      <point x="583" y="-289"/>
      <point x="561" y="-329"/>
      <point x="522" y="-329" type="curve"/>
      <point x="469" y="-329"/>
      <point x="419" y="-257"/>
    </contour>
  </outline>
</glyph>
<glyph name="uni028A" format="2">
  <advance width="1126"/>
  <unicode hex="028A"/>
  <outline>
    <contour>
      <point x="68" y="442" type="curve" smooth="yes"/>
      <point x="68" y="206"/>
      <point x="278" y="-22"/>
      <point x="563" y="-22" type="curve"/>
      <point x="849" y="-22"/>
      <point x="1059" y="206"/>
      <point x="1059" y="442" type="curve"/>
      <point x="1059" y="595"/>
      <point x="1007" y="686"/>
      <point x="968" y="756" type="curve"/>
      <point x="948" y="792"/>
      <point x="931" y="822"/>
      <point x="931" y="857" type="curve"/>
      <point x="931" y="903"/>
      <point x="952" y="928"/>
      <point x="1076" y="928" type="curve"/>
      <point x="1076" y="1004" type="line"/>
      <point x="642" y="1004" type="line"/>
      <point x="729" y="891"/>
      <point x="786" y="735"/>
      <point x="786" y="493" type="curve"/>
      <point x="786" y="310"/>
      <point x="708" y="108"/>
      <point x="563" y="108" type="curve"/>
      <point x="419" y="108"/>
      <point x="342" y="310"/>
      <point x="342" y="493" type="curve"/>
      <point x="342" y="735"/>
      <point x="399" y="891"/>
      <point x="486" y="1004" type="curve"/>
      <point x="50" y="1004" type="line"/>
      <point x="50" y="928" type="line"/>
      <point x="174" y="928"/>
      <point x="196" y="903"/>
      <point x="196" y="857" type="curve"/>
      <point x="196" y="822"/>
      <point x="179" y="792"/>
      <point x="159" y="756" type="curve"/>
      <point x="120" y="686"/>
      <point x="68" y="595"/>
    </contour>
  </outline>
</glyph>
<glyph name="uni028C" format="2">
  <advance width="1097"/>
  <unicode hex="028C"/>
  <outline>
    <contour>
      <point x="1087" y="0" type="line"/>
      <point x="1087" y="75" type="line"/>
      <point x="1011" y="75"/>
      <point x="982" y="99"/>
      <point x="934" y="205" type="curve"/>
      <point x="935" y="205" type="line"/>
      <point x="596" y="1004" type="line"/>
      <point x="484" y="1004" type="line"/>
      <point x="144" y="187" type="line"/>
      <point x="113" y="112"/>
      <point x="82" y="75"/>
      <point x="10" y="75" type="curve"/>
      <point x="10" y="0" type="line"/>
      <point x="410" y="0" type="line"/>
      <point x="410" y="75" type="line"/>
      <point x="334" y="75"/>
      <point x="290" y="89"/>
      <point x="290" y="113" type="curve"/>
      <point x="290" y="139"/>
      <point x="299" y="163"/>
      <point x="315" y="202" type="curve" smooth="yes"/>
      <point x="494" y="635" type="line"/>
      <point x="670" y="204" type="line"/>
      <point x="686" y="164"/>
      <point x="687" y="139"/>
      <point x="687" y="113" type="curve"/>
      <point x="687" y="89"/>
      <point x="651" y="75"/>
      <point x="582" y="75" type="curve"/>
      <point x="582" y="0" type="line"/>
    </contour>
  </outline>
</glyph>
<glyph name="uni028E" format="2">
  <advance width="1123"/>
  <unicode hex="028E"/>
  <outline>
    <contour>
      <point x="674" y="1074" type="line" smooth="yes"/>
      <point x="698" y="1134"/>
      <point x="734" y="1209"/>
      <point x="764" y="1209" type="curve"/>
      <point x="782" y="1209"/>
      <point x="794" y="1201"/>
      <point x="808" y="1195" type="curve"/>
      <point x="826" y="1183"/>
      <point x="847" y="1173"/>
      <point x="902" y="1173" type="curve"/>
      <point x="1002" y="1173"/>
      <point x="1044" y="1220"/>
      <point x="1044" y="1289" type="curve"/>
      <point x="1044" y="1363"/>
      <point x="963" y="1418"/>
      <point x="869" y="1418" type="curve"/>
      <point x="742" y="1418"/>
      <point x="605" y="1312"/>
      <point x="541" y="1156" type="curve" smooth="yes"/>
      <point x="159" y="227" type="line" smooth="yes"/>
      <point x="114" y="117"/>
      <point x="99" y="75"/>
      <point x="10" y="75" type="curve"/>
      <point x="10" y="0" type="line"/>
      <point x="395" y="0" type="line"/>
      <point x="395" y="75" type="line"/>
      <point x="331" y="75"/>
      <point x="302" y="86"/>
      <point x="302" y="115" type="curve"/>
      <point x="302" y="138"/>
      <point x="311" y="169"/>
      <point x="327" y="208" type="curve"/>
      <point x="486" y="606" type="line"/>
      <point x="653" y="261" type="line" smooth="yes"/>
      <point x="677" y="211"/>
      <point x="702" y="159"/>
      <point x="702" y="128" type="curve"/>
      <point x="702" y="102"/>
      <point x="691" y="75"/>
      <point x="601" y="75" type="curve"/>
      <point x="601" y="0" type="line"/>
      <point x="1113" y="0" type="line"/>
      <point x="1113" y="75" type="line"/>
      <point x="1041" y="75"/>
      <point x="974" y="144"/>
      <point x="897" y="308" type="curve"/>
      <point x="610" y="915" type="line"/>
    </contour>
  </outline>
</glyph>
<glyph name="uni02A0" format="2">
  <advance width="1055"/>
  <unicode hex="02A0"/>
  <outline>
    <contour>
      <point x="719" y="-160" type="line"/>
      <point x="719" y="-277"/>
      <point x="693" y="-322"/>
      <point x="569" y="-322" type="curve"/>
      <point x="569" y="-402" type="line"/>
      <point x="1114" y="-402" type="line"/>
      <point x="1114" y="-322" type="line"/>
      <point x="989" y="-322"/>
      <point x="964" y="-280"/>
      <point x="964" y="-160" type="curve"/>
      <point x="964" y="1202" type="line"/>
      <point x="964" y="1291"/>
      <point x="1015" y="1362"/>
      <point x="1068" y="1362" type="curve"/>
      <point x="1109" y="1362"/>
      <point x="1130" y="1320"/>
      <point x="1151" y="1280" type="curve"/>
      <point x="1176" y="1231"/>
      <point x="1201" y="1183"/>
      <point x="1293" y="1183" type="curve"/>
      <point x="1364" y="1183"/>
      <point x="1416" y="1216"/>
      <point x="1416" y="1283" type="curve"/>
      <point x="1416" y="1413"/>
      <point x="1269" y="1470"/>
      <point x="1075" y="1470" type="curve"/>
      <point x="876" y="1470"/>
      <point x="719" y="1308"/>
      <point x="719" y="1104" type="curve"/>
      <point x="719" y="976" type="line"/>
      <point x="677" y="993"/>
      <point x="625" y="1006"/>
      <point x="575" y="1006" type="curve"/>
      <point x="295" y="1006"/>
      <point x="65" y="756"/>
      <point x="65" y="447" type="curve"/>
      <point x="65" y="188"/>
      <point x="236" y="-22"/>
      <point x="448" y="-22" type="curve"/>
      <point x="572" y="-22"/>
      <point x="655" y="23"/>
      <point x="719" y="82" type="curve"/>
    </contour>
    <contour>
      <point x="539" y="162" type="curve" smooth="yes"/>
      <point x="417" y="162"/>
      <point x="322" y="333"/>
      <point x="322" y="545" type="curve"/>
      <point x="322" y="738"/>
      <point x="425" y="897"/>
      <point x="554" y="897" type="curve"/>
      <point x="591" y="897"/>
      <point x="647" y="870"/>
      <point x="675" y="842" type="curve"/>
      <point x="699" y="818"/>
      <point x="719" y="787"/>
      <point x="719" y="738" type="curve"/>
      <point x="719" y="262" type="line"/>
      <point x="689" y="216"/>
      <point x="617" y="162"/>
    </contour>
  </outline>
</glyph>
<glyph name="uni02A1" format="2">
  <advance width="984"/>
  <unicode hex="02A1"/>
  <outline>
    <contour>
      <point x="174" y="401" type="line"/>
      <point x="366" y="401" type="line"/>
      <point x="353" y="350"/>
      <point x="346" y="297"/>
      <point x="346" y="238" type="curve"/>
      <point x="346" y="121"/>
      <point x="324" y="75"/>
      <point x="200" y="75" type="curve"/>
      <point x="200" y="0" type="line"/>
      <point x="709" y="0" type="line"/>
      <point x="709" y="75" type="line"/>
      <point x="586" y="75"/>
      <point x="558" y="118"/>
      <point x="558" y="234" type="curve"/>
      <point x="558" y="296"/>
      <point x="566" y="350"/>
      <point x="580" y="401" type="curve"/>
      <point x="826" y="401" type="line"/>
      <point x="826" y="575" type="line"/>
      <point x="655" y="575" type="line"/>
      <point x="681" y="620"/>
      <point x="711" y="663"/>
      <point x="740" y="704" type="curve"/>
      <point x="828" y="832"/>
      <point x="914" y="954"/>
      <point x="914" y="1120" type="curve"/>
      <point x="914" y="1338"/>
      <point x="733" y="1470"/>
      <point x="481" y="1470" type="curve"/>
      <point x="296" y="1470"/>
      <point x="65" y="1366"/>
      <point x="65" y="1137" type="curve"/>
      <point x="65" y="1034"/>
      <point x="134" y="976"/>
      <point x="222" y="976" type="curve"/>
      <point x="287" y="976"/>
      <point x="342" y="1012"/>
      <point x="342" y="1079" type="curve"/>
      <point x="342" y="1115"/>
      <point x="323" y="1148"/>
      <point x="304" y="1180" type="curve"/>
      <point x="290" y="1203"/>
      <point x="276" y="1226"/>
      <point x="276" y="1258" type="curve"/>
      <point x="276" y="1314"/>
      <point x="348" y="1355"/>
      <point x="430" y="1355" type="curve"/>
      <point x="545" y="1355"/>
      <point x="623" y="1271"/>
      <point x="623" y="1104" type="curve"/>
      <point x="623" y="944"/>
      <point x="560" y="825"/>
      <point x="495" y="704" type="curve"/>
      <point x="472" y="662"/>
      <point x="449" y="619"/>
      <point x="428" y="575" type="curve"/>
      <point x="174" y="575" type="line"/>
    </contour>
  </outline>
</glyph>
<glyph name="uni02B8" format="2">
  <advance width="773"/>
  <unicode hex="02B8"/>
  <outline>
    <contour>
      <point x="300" y="735" type="line"/>
      <point x="283" y="699"/>
      <point x="263" y="650"/>
      <point x="254" y="650" type="curve"/>
      <point x="246" y="650"/>
      <point x="239" y="654"/>
      <point x="232" y="659" type="curve"/>
      <point x="219" y="665"/>
      <point x="206" y="674"/>
      <point x="163" y="674" type="curve"/>
      <point x="87" y="674"/>
      <point x="55" y="640"/>
      <point x="55" y="592" type="curve"/>
      <point x="55" y="539"/>
      <point x="114" y="499"/>
      <point x="183" y="499" type="curve"/>
      <point x="275" y="499"/>
      <point x="370" y="571"/>
      <point x="413" y="676" type="curve"/>
      <point x="666" y="1290" type="line" smooth="yes"/>
      <point x="694" y="1359"/>
      <point x="703" y="1385"/>
      <point x="763" y="1385" type="curve"/>
      <point x="763" y="1449" type="line"/>
      <point x="484" y="1449" type="line"/>
      <point x="484" y="1385" type="line"/>
      <point x="526" y="1385"/>
      <point x="545" y="1380"/>
      <point x="545" y="1367" type="curve"/>
      <point x="545" y="1350"/>
      <point x="539" y="1331"/>
      <point x="529" y="1307" type="curve"/>
      <point x="434" y="1073" type="line"/>
      <point x="347" y="1256"/>
      <point x="342" y="1267"/>
      <point x="337" y="1276" type="curve" smooth="yes"/>
      <point x="321" y="1307"/>
      <point x="309" y="1333"/>
      <point x="309" y="1357" type="curve"/>
      <point x="309" y="1372"/>
      <point x="315" y="1385"/>
      <point x="376" y="1385" type="curve"/>
      <point x="376" y="1449" type="line"/>
      <point x="10" y="1449" type="line"/>
      <point x="10" y="1385" type="line"/>
      <point x="58" y="1385"/>
      <point x="102" y="1341"/>
      <point x="152" y="1235" type="curve"/>
      <point x="341" y="837" type="line"/>
    </contour>
  </outline>
</glyph>
<glyph name="uni02C8" format="2">
  <advance width="385"/>
  <unicode hex="02C8"/>
  <outline>
    <contour>
      <point x="80" y="874" type="line"/>
      <point x="305" y="874" type="line"/>
      <point x="305" y="1579" type="line"/>
      <point x="80" y="1579" type="line"/>
    </contour>
  </outline>
</glyph>
<glyph name="uni02DD" format="2">
  <advance width="667"/>
  <unicode hex="02DD"/>
  <outline>
    <contour>
      <point x="649" y="1025" type="line"/>
      <point x="783" y="1204"/>
      <point x="867" y="1326"/>
      <point x="889" y="1375" type="curve"/>
      <point x="900" y="1398"/>
      <point x="905" y="1418"/>
      <point x="905" y="1434" type="curve"/>
      <point x="905" y="1499"/>
      <point x="831" y="1542"/>
      <point x="772" y="1542" type="curve"/>
      <point x="717" y="1542"/>
      <point x="673" y="1513"/>
      <point x="652" y="1467" type="curve"/>
      <point x="627" y="1411"/>
      <point x="585" y="1277"/>
      <point x="537" y="1076" type="curve"/>
    </contour>
    <contour>
      <point x="340" y="1025" type="line"/>
      <point x="476" y="1204"/>
      <point x="557" y="1325"/>
      <point x="580" y="1375" type="curve"/>
      <point x="580" y="1374" type="line"/>
      <point x="591" y="1397"/>
      <point x="597" y="1417"/>
      <point x="597" y="1435" type="curve"/>
      <point x="597" y="1472"/>
      <point x="572" y="1507"/>
      <point x="520" y="1529" type="curve"/>
      <point x="521" y="1529" type="line"/>
      <point x="504" y="1537"/>
      <point x="486" y="1542"/>
      <point x="463" y="1542" type="curve"/>
      <point x="409" y="1542"/>
      <point x="366" y="1513"/>
      <point x="344" y="1467" type="curve"/>
      <point x="317" y="1409"/>
      <point x="275" y="1274"/>
      <point x="229" y="1076" type="curve"/>
    </contour>
  </outline>
</glyph>
<glyph name="uni0304" format="2">
  <unicode hex="0304"/>
  <outline>
    <contour>
      <point x="-899" y="1366" type="line"/>
      <point x="-899" y="1198" type="line"/>
      <point x="-147" y="1198" type="line"/>
      <point x="-147" y="1366" type="line"/>
    </contour>
  </outline>
</glyph>
<glyph name="uni031A" format="2">
  <advance width="563"/>
  <unicode hex="031A"/>
  <outline>
    <contour>
      <point x="324" y="961" type="line"/>
      <point x="513" y="961" type="line"/>
      <point x="513" y="1437" type="line"/>
      <point x="50" y="1437" type="line"/>
      <point x="50" y="1289" type="line"/>
      <point x="324" y="1289" type="line"/>
    </contour>
  </outline>
</glyph>
<glyph name="uni032C" format="2">
  <unicode hex="032C"/>
  <outline>
    <contour>
      <point x="-354" y="-437" type="line"/>
      <point x="-127" y="-56" type="line"/>
      <point x="-232" y="-56" type="line"/>
      <point x="-481" y="-258" type="line"/>
      <point x="-731" y="-56" type="line"/>
      <point x="-839" y="-56" type="line"/>
      <point x="-607" y="-437" type="line"/>
    </contour>
  </outline>
</glyph>
<glyph name="uni032E" format="2">
  <unicode hex="032E"/>
  <outline>
    <contour>
      <point x="-284" y="-107" type="line"/>
      <point x="-306" y="-161"/>
      <point x="-401" y="-293"/>
      <point x="-523" y="-293" type="curve"/>
      <point x="-645" y="-293"/>
      <point x="-739" y="-161"/>
      <point x="-761" y="-107" type="curve"/>
      <point x="-871" y="-107" type="line"/>
      <point x="-851" y="-210"/>
      <point x="-751" y="-455"/>
      <point x="-523" y="-455" type="curve"/>
      <point x="-293" y="-455"/>
      <point x="-198" y="-210"/>
      <point x="-177" y="-107" type="curve"/>
    </contour>
  </outline>
</glyph>
<glyph name="uni0334" format="2">
  <unicode hex="0334"/>
  <outline>
    <contour>
      <point x="-799" y="318" type="line"/>
      <point x="-787" y="376"/>
      <point x="-744" y="464"/>
      <point x="-689" y="464" type="curve" smooth="yes"/>
      <point x="-645" y="464"/>
      <point x="-610" y="434"/>
      <point x="-564" y="394" type="curve" smooth="yes"/>
      <point x="-510" y="347"/>
      <point x="-459" y="318"/>
      <point x="-373" y="318" type="curve" smooth="yes"/>
      <point x="-189" y="318"/>
      <point x="-139" y="484"/>
      <point x="-139" y="630" type="curve"/>
      <point x="-244" y="630" type="line"/>
      <point x="-255" y="572"/>
      <point x="-298" y="488"/>
      <point x="-353" y="488" type="curve" smooth="yes"/>
      <point x="-391" y="488"/>
      <point x="-424" y="511"/>
      <point x="-478" y="558" type="curve" smooth="yes"/>
      <point x="-532" y="605"/>
      <point x="-583" y="630"/>
      <point x="-670" y="630" type="curve" smooth="yes"/>
      <point x="-851" y="630"/>
      <point x="-907" y="468"/>
      <point x="-907" y="318" type="curve"/>
    </contour>
  </outline>
</glyph>
<glyph name="uni0339" format="2">
  <unicode hex="0339"/>
  <outline>
    <contour>
      <point x="-601" y="-692" type="line"/>
      <point x="-405" y="-692"/>
      <point x="-248" y="-561"/>
      <point x="-248" y="-399" type="curve"/>
      <point x="-248" y="-237"/>
      <point x="-405" y="-107"/>
      <point x="-601" y="-107" type="curve"/>
      <point x="-601" y="-255" type="line"/>
      <point x="-510" y="-255"/>
      <point x="-437" y="-319"/>
      <point x="-437" y="-399" type="curve"/>
      <point x="-437" y="-480"/>
      <point x="-510" y="-544"/>
      <point x="-601" y="-544" type="curve"/>
    </contour>
  </outline>
</glyph>
<glyph name="uni1785" format="2">
  <advance width="1500"/>
  <unicode hex="1785"/>
  <anchor x="1312" y="1440" name="U"/>
  <anchor x="1312" y="0" name="L"/>
  <anchor x="787" y="1440" name="um"/>
  <anchor x="787" y="0" name="lm"/>
  <outline>
    <contour>
      <point x="1012" y="465" type="line"/>
      <point x="1012" y="225" type="line" smooth="yes"/>
      <point x="1012" y="169"/>
      <point x="881" y="131"/>
      <point x="787" y="131" type="curve" smooth="yes"/>
      <point x="694" y="131"/>
      <point x="562" y="169"/>
      <point x="562" y="225" type="curve" smooth="yes"/>
      <point x="562" y="975" type="line"/>
      <point x="315" y="986"/>
      <point x="262" y="1054"/>
      <point x="262" y="1099" type="curve" smooth="yes"/>
      <point x="262" y="1211"/>
      <point x="427" y="1234"/>
      <point x="472" y="1234" type="curve" smooth="yes"/>
      <point x="581" y="1234"/>
      <point x="716" y="1189"/>
      <point x="787" y="1144" type="curve"/>
      <point x="866" y="1215"/>
      <point x="922" y="1234"/>
      <point x="1001" y="1234" type="curve" smooth="yes"/>
      <point x="1080" y="1234"/>
      <point x="1189" y="1151"/>
      <point x="1264" y="1151" type="curve" smooth="yes"/>
      <point x="1384" y="1151"/>
      <point x="1455" y="1200"/>
      <point x="1462" y="1399" type="curve"/>
      <point x="1417" y="1346"/>
      <point x="1365" y="1342"/>
      <point x="1327" y="1342" type="curve" smooth="yes"/>
      <point x="1222" y="1342"/>
      <point x="1132" y="1440"/>
      <point x="997" y="1440" type="curve" smooth="yes"/>
      <point x="900" y="1440"/>
      <point x="847" y="1406"/>
      <point x="787" y="1350" type="curve"/>
      <point x="697" y="1406"/>
      <point x="577" y="1440"/>
      <point x="431" y="1440" type="curve" smooth="yes"/>
      <point x="236" y="1440"/>
      <point x="112" y="1297"/>
      <point x="112" y="1144" type="curve" smooth="yes"/>
      <point x="112" y="1041"/>
      <point x="182" y="984"/>
      <point x="262" y="955" type="curve"/>
      <point x="262" y="206" type="line" smooth="yes"/>
      <point x="262" y="94"/>
      <point x="562" y="0"/>
      <point x="787" y="0" type="curve" smooth="yes"/>
      <point x="1012" y="0"/>
      <point x="1312" y="94"/>
      <point x="1312" y="206" type="curve" smooth="yes"/>
      <point x="1312" y="473" type="line"/>
    </contour>
    <contour>
      <point x="1312" y="391" type="line"/>
      <point x="1312" y="866" type="line"/>
      <point x="1282" y="953"/>
      <point x="1158" y="975"/>
      <point x="1072" y="975" type="curve"/>
      <point x="873" y="938"/>
      <point x="787" y="773"/>
      <point x="787" y="683" type="curve" smooth="yes"/>
      <point x="787" y="573"/>
      <point x="903" y="520"/>
      <point x="1012" y="505" type="curve"/>
      <point x="1012" y="362" type="line"/>
    </contour>
    <contour>
      <point x="892" y="683" type="curve" smooth="yes"/>
      <point x="892" y="734"/>
      <point x="959" y="810"/>
      <point x="1012" y="825" type="curve"/>
      <point x="1012" y="591" type="line"/>
      <point x="964" y="593"/>
      <point x="892" y="628"/>
    </contour>
  </outline>
</glyph>
<glyph name="uni178F" format="2">
  <advance width="1500"/>
  <unicode hex="178F"/>
  <anchor x="1312" y="1440" name="U"/>
  <anchor x="1312" y="0" name="L"/>
  <anchor x="787" y="1440" name="um"/>
  <anchor x="787" y="0" name="lm"/>
  <outline>
    <contour>
      <point x="262" y="916" type="curve"/>
      <point x="262" y="106" type="line"/>
      <point x="292" y="19"/>
      <point x="416" y="-3"/>
      <point x="502" y="-3" type="curve"/>
      <point x="701" y="34"/>
      <point x="787" y="199"/>
      <point x="787" y="289" type="curve" smooth="yes"/>
      <point x="787" y="399"/>
      <point x="671" y="452"/>
      <point x="562" y="467" type="curve"/>
      <point x="562" y="900" type="line" smooth="yes"/>
      <point x="562" y="956"/>
      <point x="694" y="994"/>
      <point x="787" y="994" type="curve" smooth="yes"/>
      <point x="881" y="994"/>
      <point x="1012" y="956"/>
      <point x="1012" y="900" type="curve" smooth="yes"/>
      <point x="1012" y="0" type="line"/>
      <point x="1312" y="0" type="line"/>
      <point x="1312" y="919" type="line" smooth="yes"/>
      <point x="1312" y="1031"/>
      <point x="1012" y="1125"/>
      <point x="787" y="1125" type="curve" smooth="yes"/>
      <point x="623" y="1125"/>
      <point x="421" y="1075"/>
      <point x="322" y="1005" type="curve"/>
      <point x="295" y="1025"/>
      <point x="262" y="1064"/>
      <point x="262" y="1099" type="curve" smooth="yes"/>
      <point x="262" y="1211"/>
      <point x="427" y="1234"/>
      <point x="472" y="1234" type="curve" smooth="yes"/>
      <point x="581" y="1234"/>
      <point x="716" y="1189"/>
      <point x="787" y="1144" type="curve"/>
      <point x="866" y="1215"/>
      <point x="922" y="1234"/>
      <point x="1001" y="1234" type="curve" smooth="yes"/>
      <point x="1080" y="1234"/>
      <point x="1189" y="1151"/>
      <point x="1264" y="1151" type="curve" smooth="yes"/>
      <point x="1384" y="1151"/>
      <point x="1455" y="1200"/>
      <point x="1462" y="1399" type="curve"/>
      <point x="1417" y="1346"/>
      <point x="1365" y="1342"/>
      <point x="1327" y="1342" type="curve" smooth="yes"/>
      <point x="1222" y="1342"/>
      <point x="1132" y="1440"/>
      <point x="997" y="1440" type="curve" smooth="yes"/>
      <point x="900" y="1440"/>
      <point x="847" y="1406"/>
      <point x="787" y="1350" type="curve"/>
      <point x="697" y="1406"/>
      <point x="577" y="1440"/>
      <point x="431" y="1440" type="curve" smooth="yes"/>
      <point x="236" y="1440"/>
      <point x="112" y="1297"/>
      <point x="112" y="1144" type="curve" smooth="yes"/>
      <point x="112" y="1046"/>
      <point x="180" y="961"/>
    </contour>
    <contour>
      <point x="682" y="289" type="curve" smooth="yes"/>
      <point x="682" y="238"/>
      <point x="615" y="162"/>
      <point x="562" y="147" type="curve"/>
      <point x="562" y="381" type="line"/>
      <point x="610" y="379"/>
      <point x="682" y="344"/>
    </contour>
  </outline>
</glyph>
<glyph name="uni1790" format="2">
  <advance width="1500"/>
  <unicode hex="1790"/>
  <anchor x="1312" y="1740" name="U"/>
  <anchor x="1312" y="0" name="L"/>
  <anchor x="787" y="1740" name="um"/>
  <anchor x="787" y="0" name="lm"/>
  <outline>
    <contour>
      <point x="1012" y="469" type="line"/>
      <point x="1012" y="225" type="line" smooth="yes"/>
      <point x="1012" y="169"/>
      <point x="881" y="131"/>
      <point x="787" y="131" type="curve" smooth="yes"/>
      <point x="694" y="131"/>
      <point x="562" y="169"/>
      <point x="562" y="225" type="curve" smooth="yes"/>
      <point x="562" y="1027" type="line"/>
      <point x="514" y="1027"/>
      <point x="281" y="1102"/>
      <point x="281" y="1181" type="curve" smooth="yes"/>
      <point x="281" y="1234"/>
      <point x="330" y="1252"/>
      <point x="375" y="1252" type="curve" smooth="yes"/>
      <point x="555" y="1252"/>
      <point x="746" y="1050"/>
      <point x="967" y="1050" type="curve" smooth="yes"/>
      <point x="1170" y="1050"/>
      <point x="1312" y="1207"/>
      <point x="1312" y="1372" type="curve" smooth="yes"/>
      <point x="1312" y="1462"/>
      <point x="1297" y="1515"/>
      <point x="1226" y="1601" type="curve" smooth="yes"/>
      <point x="1159" y="1684"/>
      <point x="1057" y="1740"/>
      <point x="934" y="1740" type="curve" smooth="yes"/>
      <point x="810" y="1740"/>
      <point x="784" y="1680"/>
      <point x="784" y="1627" type="curve" smooth="yes"/>
      <point x="784" y="1575"/>
      <point x="847" y="1519"/>
      <point x="960" y="1501" type="curve" smooth="yes"/>
      <point x="1016" y="1492"/>
      <point x="1125" y="1444"/>
      <point x="1125" y="1365" type="curve" smooth="yes"/>
      <point x="1125" y="1320"/>
      <point x="1050" y="1256"/>
      <point x="975" y="1256" type="curve" smooth="yes"/>
      <point x="795" y="1256"/>
      <point x="652" y="1440"/>
      <point x="431" y="1440" type="curve" smooth="yes"/>
      <point x="274" y="1440"/>
      <point x="131" y="1327"/>
      <point x="131" y="1196" type="curve" smooth="yes"/>
      <point x="131" y="1132"/>
      <point x="191" y="1061"/>
      <point x="262" y="1027" type="curve"/>
      <point x="262" y="206" type="line" smooth="yes"/>
      <point x="262" y="94"/>
      <point x="562" y="0"/>
      <point x="787" y="0" type="curve" smooth="yes"/>
      <point x="1012" y="0"/>
      <point x="1312" y="94"/>
      <point x="1312" y="206" type="curve" smooth="yes"/>
      <point x="1312" y="504" type="line"/>
    </contour>
    <contour>
      <point x="1312" y="391" type="line"/>
      <point x="1312" y="866" type="line"/>
      <point x="1282" y="953"/>
      <point x="1158" y="975"/>
      <point x="1072" y="975" type="curve"/>
      <point x="873" y="938"/>
      <point x="787" y="773"/>
      <point x="787" y="683" type="curve" smooth="yes"/>
      <point x="787" y="573"/>
      <point x="903" y="520"/>
      <point x="1012" y="505" type="curve"/>
      <point x="1012" y="362" type="line"/>
    </contour>
    <contour>
      <point x="892" y="683" type="curve" smooth="yes"/>
      <point x="892" y="734"/>
      <point x="959" y="810"/>
      <point x="1012" y="825" type="curve"/>
      <point x="1012" y="591" type="line"/>
      <point x="964" y="593"/>
      <point x="892" y="628"/>
    </contour>
  </outline>
</glyph>
<glyph name="uni1791" format="2">
  <advance width="1400"/>
  <unicode hex="1791"/>
  <anchor x="1252" y="0" name="L"/>
  <anchor x="1252" y="1440" name="U"/>
  <anchor x="707" y="1440" name="um"/>
  <anchor x="707" y="0" name="lm"/>
  <outline>
    <contour>
      <point x="1009" y="606" type="line"/>
      <point x="1009" y="656" type="line" smooth="yes"/>
      <point x="1009" y="685"/>
      <point x="1024" y="720"/>
      <point x="1054" y="720" type="curve" smooth="yes"/>
      <point x="1082" y="720"/>
      <point x="1102" y="699"/>
      <point x="1102" y="671" type="curve" smooth="yes"/>
      <point x="1102" y="633"/>
      <point x="1066" y="606"/>
      <point x="1026" y="606" type="curve" smooth="yes"/>
    </contour>
    <contour>
      <point x="727" y="213" type="line" smooth="yes"/>
      <point x="727" y="157"/>
      <point x="694" y="131"/>
      <point x="650" y="131" type="curve" smooth="yes"/>
      <point x="607" y="131"/>
      <point x="573" y="157"/>
      <point x="573" y="213" type="curve" smooth="yes"/>
      <point x="573" y="419" type="line"/>
      <point x="291" y="419" type="line"/>
      <point x="291" y="199" type="line" smooth="yes"/>
      <point x="291" y="95"/>
      <point x="422" y="0"/>
      <point x="650" y="0" type="curve" smooth="yes"/>
      <point x="882" y="0"/>
      <point x="1009" y="95"/>
      <point x="1009" y="199" type="curve" smooth="yes"/>
      <point x="1009" y="457" type="line"/>
      <point x="1158" y="468"/>
      <point x="1252" y="560"/>
      <point x="1252" y="671" type="curve" smooth="yes"/>
      <point x="1252" y="784"/>
      <point x="1139" y="870"/>
      <point x="990" y="870" type="curve" smooth="yes"/>
      <point x="799" y="870"/>
      <point x="730" y="746"/>
      <point x="727" y="634" type="curve"/>
      <point x="591" y="666"/>
      <point x="444" y="810"/>
      <point x="444" y="956" type="curve" smooth="yes"/>
      <point x="444" y="1129"/>
      <point x="541" y="1271"/>
      <point x="755" y="1271" type="curve" smooth="yes"/>
      <point x="875" y="1271"/>
      <point x="930" y="1233"/>
      <point x="930" y="1204" type="curve"/>
      <point x="911" y="1207"/>
      <point x="891" y="1211"/>
      <point x="864" y="1211" type="curve" smooth="yes"/>
      <point x="763" y="1211"/>
      <point x="687" y="1170"/>
      <point x="687" y="1095" type="curve" smooth="yes"/>
      <point x="687" y="1009"/>
      <point x="801" y="956"/>
      <point x="909" y="956" type="curve" smooth="yes"/>
      <point x="1052" y="956"/>
      <point x="1212" y="1032"/>
      <point x="1212" y="1196" type="curve" smooth="yes"/>
      <point x="1212" y="1312"/>
      <point x="1085" y="1440"/>
      <point x="755" y="1440" type="curve" smooth="yes"/>
      <point x="376" y="1440"/>
      <point x="162" y="1260"/>
      <point x="162" y="956" type="curve" smooth="yes"/>
      <point x="162" y="664"/>
      <point x="475" y="477"/>
      <point x="727" y="457" type="curve"/>
    </contour>
  </outline>
</glyph>
<glyph name="uni1792" format="2">
  <advance width="1500"/>
  <unicode hex="1792"/>
  <anchor x="1312" y="1440" name="U"/>
  <anchor x="1312" y="0" name="L"/>
  <anchor x="787" y="1440" name="um"/>
  <anchor x="787" y="0" name="lm"/>
  <outline>
    <contour>
      <point x="1012" y="493" type="line"/>
      <point x="1012" y="274" type="line" smooth="yes"/>
      <point x="1012" y="232"/>
      <point x="1007" y="199"/>
      <point x="997" y="199" type="curve" smooth="yes"/>
      <point x="990" y="199"/>
      <point x="959" y="221"/>
      <point x="914" y="259" type="curve" smooth="yes"/>
      <point x="871" y="295"/>
      <point x="825" y="319"/>
      <point x="787" y="319" type="curve" smooth="yes"/>
      <point x="749" y="319"/>
      <point x="700" y="294"/>
      <point x="659" y="259" type="curve" smooth="yes"/>
      <point x="614" y="221"/>
      <point x="584" y="199"/>
      <point x="577" y="199" type="curve" smooth="yes"/>
      <point x="567" y="199"/>
      <point x="562" y="232"/>
      <point x="562" y="274" type="curve" smooth="yes"/>
      <point x="562" y="975" type="line"/>
      <point x="315" y="986"/>
      <point x="262" y="1054"/>
      <point x="262" y="1099" type="curve" smooth="yes"/>
      <point x="262" y="1211"/>
      <point x="427" y="1234"/>
      <point x="472" y="1234" type="curve" smooth="yes"/>
      <point x="581" y="1234"/>
      <point x="716" y="1189"/>
      <point x="787" y="1144" type="curve"/>
      <point x="866" y="1215"/>
      <point x="922" y="1234"/>
      <point x="1001" y="1234" type="curve" smooth="yes"/>
      <point x="1080" y="1234"/>
      <point x="1189" y="1151"/>
      <point x="1264" y="1151" type="curve" smooth="yes"/>
      <point x="1384" y="1151"/>
      <point x="1455" y="1200"/>
      <point x="1462" y="1399" type="curve"/>
      <point x="1417" y="1346"/>
      <point x="1365" y="1342"/>
      <point x="1327" y="1342" type="curve" smooth="yes"/>
      <point x="1222" y="1342"/>
      <point x="1132" y="1440"/>
      <point x="997" y="1440" type="curve" smooth="yes"/>
      <point x="900" y="1440"/>
      <point x="847" y="1406"/>
      <point x="787" y="1350" type="curve"/>
      <point x="697" y="1406"/>
      <point x="577" y="1440"/>
      <point x="431" y="1440" type="curve" smooth="yes"/>
      <point x="236" y="1440"/>
      <point x="112" y="1297"/>
      <point x="112" y="1144" type="curve" smooth="yes"/>
      <point x="112" y="1041"/>
      <point x="182" y="984"/>
      <point x="262" y="955" type="curve"/>
      <point x="262" y="82" type="line" smooth="yes"/>
      <point x="262" y="41"/>
      <point x="322" y="0"/>
      <point x="382" y="0" type="curve" smooth="yes"/>
      <point x="506" y="0" type="line" smooth="yes"/>
      <point x="554" y="0"/>
      <point x="629" y="46"/>
      <point x="671" y="82" type="curve" smooth="yes"/>
      <point x="710" y="116"/>
      <point x="767" y="159"/>
      <point x="787" y="159" type="curve" smooth="yes"/>
      <point x="807" y="159"/>
      <point x="864" y="116"/>
      <point x="903" y="82" type="curve" smooth="yes"/>
      <point x="945" y="46"/>
      <point x="1019" y="0"/>
      <point x="1068" y="0" type="curve" smooth="yes"/>
      <point x="1192" y="0" type="line" smooth="yes"/>
      <point x="1252" y="0"/>
      <point x="1312" y="41"/>
      <point x="1312" y="82" type="curve" smooth="yes"/>
      <point x="1312" y="508" type="line"/>
    </contour>
    <contour>
      <point x="1312" y="391" type="line"/>
      <point x="1312" y="866" type="line"/>
      <point x="1282" y="953"/>
      <point x="1158" y="975"/>
      <point x="1072" y="975" type="curve"/>
      <point x="873" y="938"/>
      <point x="787" y="773"/>
      <point x="787" y="683" type="curve" smooth="yes"/>
      <point x="787" y="573"/>
      <point x="903" y="520"/>
      <point x="1012" y="505" type="curve"/>
      <point x="1012" y="362" type="line"/>
    </contour>
    <contour>
      <point x="892" y="683" type="curve" smooth="yes"/>
      <point x="892" y="734"/>
      <point x="959" y="810"/>
      <point x="1012" y="825" type="curve"/>
      <point x="1012" y="591" type="line"/>
      <point x="964" y="593"/>
      <point x="892" y="628"/>
    </contour>
  </outline>
</glyph>
<glyph name="uni1799" format="2">
  <advance width="2175"/>
  <unicode hex="1799"/>
  <anchor x="1987" y="0" name="L"/>
  <anchor x="1987" y="1440" name="U"/>
  <anchor x="1500" y="1440" name="um"/>
  <anchor x="1125" y="0" name="lm"/>
  <outline>
    <contour>
      <point x="262" y="1331" type="curve"/>
      <point x="262" y="187" type="line" smooth="yes"/>
      <point x="262" y="94"/>
      <point x="581" y="0"/>
      <point x="787" y="0" type="curve" smooth="yes"/>
      <point x="930" y="0"/>
      <point x="1076" y="37"/>
      <point x="1162" y="71" type="curve"/>
      <point x="1237" y="37"/>
      <point x="1369" y="0"/>
      <point x="1500" y="0" type="curve" smooth="yes"/>
      <point x="1706" y="0"/>
      <point x="1987" y="94"/>
      <point x="1987" y="187" type="curve" smooth="yes"/>
      <point x="1987" y="870" type="line" smooth="yes"/>
      <point x="1987" y="937"/>
      <point x="1916" y="997"/>
      <point x="1800" y="1057" type="curve" smooth="yes"/>
      <point x="1747" y="1084"/>
      <point x="1646" y="1144"/>
      <point x="1646" y="1174" type="curve" smooth="yes"/>
      <point x="1646" y="1207"/>
      <point x="1669" y="1215"/>
      <point x="1714" y="1215" type="curve" smooth="yes"/>
      <point x="1804" y="1215"/>
      <point x="1886" y="1125"/>
      <point x="1965" y="1125" type="curve" smooth="yes"/>
      <point x="2081" y="1125"/>
      <point x="2145" y="1192"/>
      <point x="2156" y="1399" type="curve"/>
      <point x="2130" y="1365"/>
      <point x="2059" y="1350"/>
      <point x="2014" y="1350" type="curve" smooth="yes"/>
      <point x="1927" y="1350"/>
      <point x="1867" y="1440"/>
      <point x="1736" y="1440" type="curve" smooth="yes"/>
      <point x="1612" y="1440"/>
      <point x="1519" y="1301"/>
      <point x="1519" y="1181" type="curve" smooth="yes"/>
      <point x="1519" y="1121"/>
      <point x="1545" y="1072"/>
      <point x="1639" y="1009" type="curve" smooth="yes"/>
      <point x="1661" y="994"/>
      <point x="1687" y="964"/>
      <point x="1687" y="907" type="curve" smooth="yes"/>
      <point x="1687" y="206" type="line" smooth="yes"/>
      <point x="1687" y="161"/>
      <point x="1560" y="131"/>
      <point x="1500" y="131" type="curve" smooth="yes"/>
      <point x="1440" y="131"/>
      <point x="1312" y="161"/>
      <point x="1312" y="206" type="curve" smooth="yes"/>
      <point x="1312" y="870" type="line" smooth="yes"/>
      <point x="1312" y="937"/>
      <point x="1241" y="997"/>
      <point x="1125" y="1057" type="curve" smooth="yes"/>
      <point x="1072" y="1084"/>
      <point x="971" y="1144"/>
      <point x="971" y="1174" type="curve" smooth="yes"/>
      <point x="971" y="1207"/>
      <point x="994" y="1215"/>
      <point x="1039" y="1215" type="curve" smooth="yes"/>
      <point x="1129" y="1215"/>
      <point x="1211" y="1125"/>
      <point x="1290" y="1125" type="curve" smooth="yes"/>
      <point x="1406" y="1125"/>
      <point x="1470" y="1192"/>
      <point x="1481" y="1399" type="curve"/>
      <point x="1455" y="1365"/>
      <point x="1384" y="1350"/>
      <point x="1339" y="1350" type="curve" smooth="yes"/>
      <point x="1252" y="1350"/>
      <point x="1192" y="1440"/>
      <point x="1061" y="1440" type="curve" smooth="yes"/>
      <point x="937" y="1440"/>
      <point x="844" y="1301"/>
      <point x="844" y="1181" type="curve" smooth="yes"/>
      <point x="844" y="1121"/>
      <point x="870" y="1072"/>
      <point x="964" y="1009" type="curve" smooth="yes"/>
      <point x="986" y="994"/>
      <point x="1012" y="964"/>
      <point x="1012" y="907" type="curve" smooth="yes"/>
      <point x="1012" y="206" type="line" smooth="yes"/>
      <point x="1012" y="161"/>
      <point x="847" y="131"/>
      <point x="787" y="131" type="curve" smooth="yes"/>
      <point x="727" y="131"/>
      <point x="562" y="161"/>
      <point x="562" y="206" type="curve" smooth="yes"/>
      <point x="562" y="970" type="line"/>
      <point x="671" y="985"/>
      <point x="787" y="1038"/>
      <point x="787" y="1148" type="curve" smooth="yes"/>
      <point x="787" y="1238"/>
      <point x="701" y="1403"/>
      <point x="502" y="1440" type="curve"/>
      <point x="416" y="1440"/>
      <point x="292" y="1418"/>
    </contour>
    <contour>
      <point x="682" y="1148" type="curve" smooth="yes"/>
      <point x="682" y="1093"/>
      <point x="610" y="1058"/>
      <point x="562" y="1056" type="curve"/>
      <point x="562" y="1290" type="line"/>
      <point x="615" y="1275"/>
      <point x="682" y="1199"/>
    </contour>
  </outline>
</glyph>
<glyph name="uni179B" format="2">
  <advance width="1950"/>
  <unicode hex="179B"/>
  <anchor x="1762" y="0" name="L"/>
  <anchor x="1762" y="1440" name="U"/>
  <anchor x="1312" y="1440" name="um"/>
  <anchor x="1021" y="0" name="lm"/>
  <outline>
    <contour>
      <point x="262" y="1252" type="curve" smooth="yes"/>
      <point x="262" y="106" type="line"/>
      <point x="292" y="19"/>
      <point x="416" y="-3"/>
      <point x="502" y="-3" type="curve"/>
      <point x="701" y="34"/>
      <point x="787" y="199"/>
      <point x="787" y="289" type="curve" smooth="yes"/>
      <point x="787" y="399"/>
      <point x="671" y="452"/>
      <point x="562" y="467" type="curve"/>
      <point x="562" y="1234" type="line" smooth="yes"/>
      <point x="562" y="1279"/>
      <point x="652" y="1309"/>
      <point x="712" y="1309" type="curve" smooth="yes"/>
      <point x="772" y="1309"/>
      <point x="862" y="1279"/>
      <point x="862" y="1234" type="curve" smooth="yes"/>
      <point x="862" y="187" type="line" smooth="yes"/>
      <point x="862" y="94"/>
      <point x="1106" y="0"/>
      <point x="1312" y="0" type="curve" smooth="yes"/>
      <point x="1519" y="0"/>
      <point x="1762" y="94"/>
      <point x="1762" y="187" type="curve" smooth="yes"/>
      <point x="1762" y="870" type="line" smooth="yes"/>
      <point x="1762" y="937"/>
      <point x="1691" y="997"/>
      <point x="1575" y="1057" type="curve" smooth="yes"/>
      <point x="1522" y="1084"/>
      <point x="1421" y="1144"/>
      <point x="1421" y="1174" type="curve" smooth="yes"/>
      <point x="1421" y="1207"/>
      <point x="1444" y="1215"/>
      <point x="1489" y="1215" type="curve" smooth="yes"/>
      <point x="1579" y="1215"/>
      <point x="1661" y="1125"/>
      <point x="1740" y="1125" type="curve" smooth="yes"/>
      <point x="1856" y="1125"/>
      <point x="1920" y="1192"/>
      <point x="1931" y="1399" type="curve"/>
      <point x="1905" y="1365"/>
      <point x="1834" y="1350"/>
      <point x="1789" y="1350" type="curve" smooth="yes"/>
      <point x="1702" y="1350"/>
      <point x="1642" y="1440"/>
      <point x="1511" y="1440" type="curve" smooth="yes"/>
      <point x="1387" y="1440"/>
      <point x="1294" y="1301"/>
      <point x="1294" y="1181" type="curve" smooth="yes"/>
      <point x="1294" y="1121"/>
      <point x="1320" y="1072"/>
      <point x="1414" y="1009" type="curve" smooth="yes"/>
      <point x="1436" y="994"/>
      <point x="1462" y="964"/>
      <point x="1462" y="907" type="curve" smooth="yes"/>
      <point x="1462" y="206" type="line" smooth="yes"/>
      <point x="1462" y="161"/>
      <point x="1372" y="131"/>
      <point x="1312" y="131" type="curve" smooth="yes"/>
      <point x="1252" y="131"/>
      <point x="1162" y="161"/>
      <point x="1162" y="206" type="curve" smooth="yes"/>
      <point x="1162" y="1252" type="line" smooth="yes"/>
      <point x="1162" y="1346"/>
      <point x="919" y="1440"/>
      <point x="712" y="1440" type="curve" smooth="yes"/>
      <point x="506" y="1440"/>
      <point x="262" y="1346"/>
    </contour>
    <contour>
      <point x="682" y="289" type="curve" smooth="yes"/>
      <point x="682" y="238"/>
      <point x="615" y="162"/>
      <point x="562" y="147" type="curve"/>
      <point x="562" y="381" type="line"/>
      <point x="610" y="379"/>
      <point x="682" y="344"/>
    </contour>
  </outline>
</glyph>
<glyph name="uni17A7" format="2">
  <advance width="1425"/>
  <unicode hex="17A7"/>
  <anchor x="1275" y="1440" name="U"/>
  <anchor x="1275" y="0" name="L"/>
  <anchor x="750" y="1440" name="um"/>
  <anchor x="750" y="0" name="lm"/>
  <outline>
    <contour>
      <point x="975" y="487" type="line"/>
      <point x="975" y="345" type="line"/>
      <point x="915" y="240"/>
      <point x="795" y="150"/>
      <point x="716" y="150" type="curve" smooth="yes"/>
      <point x="596" y="150"/>
      <point x="547" y="232"/>
      <point x="525" y="311" type="curve"/>
      <point x="825" y="439"/>
      <point x="1275" y="667"/>
      <point x="1275" y="1027" type="curve" smooth="yes"/>
      <point x="1275" y="1301"/>
      <point x="1065" y="1440"/>
      <point x="720" y="1440" type="curve" smooth="yes"/>
      <point x="487" y="1440"/>
      <point x="225" y="1339"/>
      <point x="225" y="1121" type="curve" smooth="yes"/>
      <point x="225" y="1042"/>
      <point x="244" y="956"/>
      <point x="340" y="888" type="curve" smooth="yes"/>
      <point x="397" y="847"/>
      <point x="465" y="844"/>
      <point x="517" y="844" type="curve" smooth="yes"/>
      <point x="626" y="844"/>
      <point x="735" y="900"/>
      <point x="735" y="986" type="curve" smooth="yes"/>
      <point x="735" y="1046"/>
      <point x="665" y="1091"/>
      <point x="563" y="1091" type="curve" smooth="yes"/>
      <point x="541" y="1091"/>
      <point x="522" y="1087"/>
      <point x="511" y="1087" type="curve"/>
      <point x="507" y="1099"/>
      <point x="507" y="1114"/>
      <point x="507" y="1129" type="curve" smooth="yes"/>
      <point x="507" y="1222"/>
      <point x="604" y="1290"/>
      <point x="739" y="1290" type="curve" smooth="yes"/>
      <point x="885" y="1290"/>
      <point x="975" y="1226"/>
      <point x="975" y="1050" type="curve" smooth="yes"/>
      <point x="975" y="765"/>
      <point x="341" y="427"/>
      <point x="225" y="397" type="curve"/>
      <point x="225" y="157"/>
      <point x="424" y="0"/>
      <point x="679" y="0" type="curve" smooth="yes"/>
      <point x="784" y="0"/>
      <point x="904" y="56"/>
      <point x="975" y="135" type="curve"/>
      <point x="975" y="0" type="line"/>
      <point x="1275" y="0" type="line"/>
      <point x="1275" y="487" type="line"/>
    </contour>
  </outline>
</glyph>
<glyph name="uni17AA" format="2">
  <advance width="1425"/>
  <unicode hex="17AA"/>
  <anchor x="1275" y="2115" name="U"/>
  <anchor x="1275" y="-188" name="L"/>
  <anchor x="750" y="2115" name="um"/>
  <anchor x="750" y="-188" name="lm"/>
  <outline>
    <contour>
      <point x="975" y="487" type="line"/>
      <point x="975" y="232" type="line"/>
      <point x="915" y="180"/>
      <point x="832" y="150"/>
      <point x="754" y="150" type="curve" smooth="yes"/>
      <point x="634" y="150"/>
      <point x="547" y="232"/>
      <point x="525" y="311" type="curve"/>
      <point x="825" y="439"/>
      <point x="1275" y="667"/>
      <point x="1275" y="1027" type="curve" smooth="yes"/>
      <point x="1275" y="1301"/>
      <point x="1065" y="1440"/>
      <point x="720" y="1440" type="curve" smooth="yes"/>
      <point x="635" y="1440"/>
      <point x="547" y="1426"/>
      <point x="468" y="1399" type="curve"/>
      <point x="404" y="1418"/>
      <point x="281" y="1466"/>
      <point x="281" y="1556" type="curve" smooth="yes"/>
      <point x="281" y="1609"/>
      <point x="330" y="1627"/>
      <point x="375" y="1627" type="curve" smooth="yes"/>
      <point x="555" y="1627"/>
      <point x="746" y="1425"/>
      <point x="967" y="1425" type="curve" smooth="yes"/>
      <point x="1170" y="1425"/>
      <point x="1312" y="1582"/>
      <point x="1312" y="1747" type="curve" smooth="yes"/>
      <point x="1312" y="1837"/>
      <point x="1297" y="1890"/>
      <point x="1226" y="1976" type="curve" smooth="yes"/>
      <point x="1159" y="2059"/>
      <point x="1057" y="2115"/>
      <point x="934" y="2115" type="curve" smooth="yes"/>
      <point x="810" y="2115"/>
      <point x="784" y="2055"/>
      <point x="784" y="2002" type="curve" smooth="yes"/>
      <point x="784" y="1950"/>
      <point x="847" y="1894"/>
      <point x="960" y="1876" type="curve" smooth="yes"/>
      <point x="1016" y="1867"/>
      <point x="1125" y="1819"/>
      <point x="1125" y="1740" type="curve" smooth="yes"/>
      <point x="1125" y="1695"/>
      <point x="1050" y="1631"/>
      <point x="975" y="1631" type="curve" smooth="yes"/>
      <point x="795" y="1631"/>
      <point x="652" y="1815"/>
      <point x="431" y="1815" type="curve" smooth="yes"/>
      <point x="274" y="1815"/>
      <point x="131" y="1702"/>
      <point x="131" y="1571" type="curve" smooth="yes"/>
      <point x="131" y="1432"/>
      <point x="225" y="1376"/>
      <point x="341" y="1335" type="curve"/>
      <point x="343" y="1336" type="line"/>
      <point x="271" y="1284"/>
      <point x="225" y="1213"/>
      <point x="225" y="1121" type="curve" smooth="yes"/>
      <point x="225" y="1042"/>
      <point x="244" y="956"/>
      <point x="340" y="888" type="curve" smooth="yes"/>
      <point x="397" y="847"/>
      <point x="465" y="844"/>
      <point x="517" y="844" type="curve" smooth="yes"/>
      <point x="626" y="844"/>
      <point x="735" y="900"/>
      <point x="735" y="986" type="curve" smooth="yes"/>
      <point x="735" y="1046"/>
      <point x="665" y="1091"/>
      <point x="563" y="1091" type="curve" smooth="yes"/>
      <point x="541" y="1091"/>
      <point x="522" y="1087"/>
      <point x="511" y="1087" type="curve"/>
      <point x="507" y="1099"/>
      <point x="507" y="1114"/>
      <point x="507" y="1129" type="curve" smooth="yes"/>
      <point x="507" y="1222"/>
      <point x="604" y="1290"/>
      <point x="739" y="1290" type="curve" smooth="yes"/>
      <point x="885" y="1290"/>
      <point x="975" y="1226"/>
      <point x="975" y="1050" type="curve" smooth="yes"/>
      <point x="975" y="765"/>
      <point x="341" y="427"/>
      <point x="225" y="397" type="curve"/>
      <point x="225" y="157"/>
      <point x="461" y="0"/>
      <point x="716" y="0" type="curve" smooth="yes"/>
      <point x="821" y="0"/>
      <point x="904" y="7"/>
      <point x="975" y="22" type="curve"/>
      <point x="975" y="-113" type="line" smooth="yes"/>
      <point x="975" y="-169"/>
      <point x="1005" y="-188"/>
      <point x="1050" y="-188" type="curve" smooth="yes"/>
      <point x="1331" y="-188" type="line"/>
      <point x="1286" y="-176"/>
      <point x="1275" y="-150"/>
      <point x="1275" y="-113" type="curve" smooth="yes"/>
      <point x="1275" y="487" type="line"/>
    </contour>
  </outline>
</glyph>
<glyph name="uni17AD" format="2">
  <advance width="1500"/>
  <unicode hex="17AD"/>
  <anchor x="1312" y="-600" name="L"/>
  <anchor x="1312" y="1440" name="U"/>
  <anchor x="787" y="1440" name="um"/>
  <anchor x="787" y="-600" name="lm"/>
  <outline>
    <contour>
      <point x="262" y="1170" type="curve" smooth="yes"/>
      <point x="262" y="106" type="line"/>
      <point x="292" y="19"/>
      <point x="416" y="-3"/>
      <point x="502" y="-3" type="curve"/>
      <point x="701" y="34"/>
      <point x="787" y="199"/>
      <point x="787" y="289" type="curve" smooth="yes"/>
      <point x="787" y="399"/>
      <point x="671" y="452"/>
      <point x="562" y="467" type="curve"/>
      <point x="562" y="1125" type="line" smooth="yes"/>
      <point x="562" y="1159"/>
      <point x="570" y="1221"/>
      <point x="589" y="1221" type="curve" smooth="yes"/>
      <point x="622" y="1221"/>
      <point x="765" y="1092"/>
      <point x="787" y="1066" type="curve"/>
      <point x="809" y="1092"/>
      <point x="951" y="1221"/>
      <point x="985" y="1221" type="curve" smooth="yes"/>
      <point x="1004" y="1221"/>
      <point x="1012" y="1159"/>
      <point x="1012" y="1125" type="curve" smooth="yes"/>
      <point x="1012" y="0" type="line"/>
      <point x="1312" y="0" type="line"/>
      <point x="1312" y="1170" type="line" smooth="yes"/>
      <point x="1312" y="1290"/>
      <point x="1155" y="1440"/>
      <point x="1031" y="1440" type="curve" smooth="yes"/>
      <point x="954" y="1440"/>
      <point x="842" y="1341"/>
      <point x="787" y="1286" type="curve"/>
      <point x="735" y="1340"/>
      <point x="617" y="1440"/>
      <point x="544" y="1440" type="curve" smooth="yes"/>
      <point x="420" y="1440"/>
      <point x="262" y="1290"/>
    </contour>
    <contour>
      <point x="911" y="-248" type="curve" smooth="yes"/>
      <point x="911" y="-319"/>
      <point x="979" y="-364"/>
      <point x="1035" y="-371" type="curve"/>
      <point x="1035" y="-424"/>
      <point x="1012" y="-450"/>
      <point x="975" y="-450" type="curve" smooth="yes"/>
      <point x="922" y="-450"/>
      <point x="859" y="-386"/>
      <point x="795" y="-311" type="curve" smooth="yes"/>
      <point x="716" y="-218"/>
      <point x="619" y="-150"/>
      <point x="476" y="-150" type="curve" smooth="yes"/>
      <point x="289" y="-150"/>
      <point x="169" y="-304"/>
      <point x="157" y="-461" type="curve"/>
      <point x="247" y="-341"/>
      <point x="345" y="-300"/>
      <point x="435" y="-300" type="curve" smooth="yes"/>
      <point x="510" y="-300"/>
      <point x="600" y="-379"/>
      <point x="659" y="-451" type="curve" smooth="yes"/>
      <point x="746" y="-555"/>
      <point x="855" y="-600"/>
      <point x="979" y="-600" type="curve" smooth="yes"/>
      <point x="1140" y="-600"/>
      <point x="1226" y="-548"/>
      <point x="1285" y="-465" type="curve" smooth="yes"/>
      <point x="1320" y="-416"/>
      <point x="1339" y="-364"/>
      <point x="1339" y="-289" type="curve" smooth="yes"/>
      <point x="1339" y="-184"/>
      <point x="1245" y="-131"/>
      <point x="1117" y="-131" type="curve" smooth="yes"/>
      <point x="1009" y="-131"/>
      <point x="911" y="-169"/>
    </contour>
    <contour>
      <point x="682" y="289" type="curve" smooth="yes"/>
      <point x="682" y="238"/>
      <point x="615" y="162"/>
      <point x="562" y="147" type="curve"/>
      <point x="562" y="381" type="line"/>
      <point x="610" y="379"/>
      <point x="682" y="344"/>
    </contour>
  </outline>
</glyph>
<glyph name="uni17B0" format="2">
  <advance width="1500"/>
  <unicode hex="17B0"/>
  <anchor x="1312" y="1407" name="U"/>
  <anchor x="1312" y="-713" name="L"/>
  <anchor x="787" y="1440" name="um"/>
  <anchor x="787" y="-713" name="lm"/>
  <outline>
    <contour>
      <point x="262" y="1170" type="curve" smooth="yes"/>
      <point x="262" y="106" type="line"/>
      <point x="292" y="19"/>
      <point x="416" y="-3"/>
      <point x="502" y="-3" type="curve"/>
      <point x="701" y="34"/>
      <point x="787" y="199"/>
      <point x="787" y="289" type="curve" smooth="yes"/>
      <point x="787" y="399"/>
      <point x="671" y="452"/>
      <point x="562" y="467" type="curve"/>
      <point x="562" y="1125" type="line" smooth="yes"/>
      <point x="562" y="1159"/>
      <point x="570" y="1221"/>
      <point x="589" y="1221" type="curve" smooth="yes"/>
      <point x="622" y="1221"/>
      <point x="765" y="1092"/>
      <point x="787" y="1066" type="curve"/>
      <point x="809" y="1092"/>
      <point x="951" y="1221"/>
      <point x="985" y="1221" type="curve" smooth="yes"/>
      <point x="1004" y="1221"/>
      <point x="1012" y="1159"/>
      <point x="1012" y="1125" type="curve" smooth="yes"/>
      <point x="1012" y="0" type="line" smooth="yes"/>
      <point x="1012" y="-98"/>
      <point x="992" y="-118"/>
      <point x="934" y="-151" type="curve" smooth="yes"/>
      <point x="797" y="-229"/>
      <point x="670" y="-273"/>
      <point x="585" y="-282" type="curve" smooth="yes"/>
      <point x="454" y="-296"/>
      <point x="345" y="-379"/>
      <point x="345" y="-473" type="curve" smooth="yes"/>
      <point x="345" y="-578"/>
      <point x="412" y="-713"/>
      <point x="641" y="-713" type="curve" smooth="yes"/>
      <point x="742" y="-713"/>
      <point x="806" y="-638"/>
      <point x="836" y="-589" type="curve"/>
      <point x="877" y="-619"/>
      <point x="907" y="-641"/>
      <point x="994" y="-641" type="curve" smooth="yes"/>
      <point x="1192" y="-641"/>
      <point x="1234" y="-521"/>
      <point x="1237" y="-338" type="curve" smooth="yes"/>
      <point x="1237" y="-319"/>
      <point x="1207" y="-296"/>
      <point x="1147" y="-296" type="curve" smooth="yes"/>
      <point x="1114" y="-296"/>
      <point x="1005" y="-334"/>
      <point x="1005" y="-379" type="curve" smooth="yes"/>
      <point x="1005" y="-405"/>
      <point x="1001" y="-484"/>
      <point x="971" y="-484" type="curve" smooth="yes"/>
      <point x="956" y="-484"/>
      <point x="934" y="-476"/>
      <point x="904" y="-458" type="curve"/>
      <point x="877" y="-446"/>
      <point x="870" y="-435"/>
      <point x="829" y="-435" type="curve" smooth="yes"/>
      <point x="769" y="-435"/>
      <point x="731" y="-473"/>
      <point x="701" y="-503" type="curve"/>
      <point x="675" y="-533"/>
      <point x="656" y="-548"/>
      <point x="645" y="-548" type="curve" smooth="yes"/>
      <point x="604" y="-548"/>
      <point x="589" y="-518"/>
      <point x="589" y="-476" type="curve" smooth="yes"/>
      <point x="589" y="-450"/>
      <point x="611" y="-431"/>
      <point x="630" y="-428" type="curve" smooth="yes"/>
      <point x="769" y="-409"/>
      <point x="994" y="-313"/>
      <point x="1128" y="-237" type="curve" smooth="yes"/>
      <point x="1205" y="-194"/>
      <point x="1312" y="-137"/>
      <point x="1312" y="0" type="curve" smooth="yes"/>
      <point x="1312" y="1170" type="line" smooth="yes"/>
      <point x="1312" y="1290"/>
      <point x="1155" y="1440"/>
      <point x="1031" y="1440" type="curve" smooth="yes"/>
      <point x="954" y="1440"/>
      <point x="842" y="1341"/>
      <point x="787" y="1286" type="curve"/>
      <point x="735" y="1340"/>
      <point x="617" y="1440"/>
      <point x="544" y="1440" type="curve" smooth="yes"/>
      <point x="420" y="1440"/>
      <point x="262" y="1290"/>
    </contour>
    <contour>
      <point x="682" y="289" type="curve" smooth="yes"/>
      <point x="682" y="238"/>
      <point x="615" y="162"/>
      <point x="562" y="147" type="curve"/>
      <point x="562" y="381" type="line"/>
      <point x="610" y="379"/>
      <point x="682" y="344"/>
    </contour>
  </outline>
</glyph>
<glyph name="uni17C0" format="2">
  <advance width="2925"/>
  <unicode hex="17C0"/>
  <outline>
    <contour>
      <point x="1425" y="75" type="curve" smooth="yes"/>
      <point x="1425" y="11"/>
      <point x="1474" y="-38"/>
      <point x="1537" y="-38" type="curve" smooth="yes"/>
      <point x="1597" y="-38"/>
      <point x="1650" y="11"/>
      <point x="1650" y="75" type="curve" smooth="yes"/>
      <point x="1650" y="135"/>
      <point x="1597" y="187"/>
      <point x="1537" y="187" type="curve" smooth="yes"/>
      <point x="1474" y="187"/>
      <point x="1425" y="135"/>
    </contour>
    <contour>
      <point x="975" y="675" type="curve" smooth="yes"/>
      <point x="975" y="611"/>
      <point x="1024" y="562"/>
      <point x="1087" y="562" type="curve" smooth="yes"/>
      <point x="1147" y="562"/>
      <point x="1200" y="611"/>
      <point x="1200" y="675" type="curve" smooth="yes"/>
      <point x="1200" y="735"/>
      <point x="1147" y="787"/>
      <point x="1087" y="787" type="curve" smooth="yes"/>
      <point x="1024" y="787"/>
      <point x="975" y="735"/>
    </contour>
    <contour>
      <point x="1875" y="675" type="curve" smooth="yes"/>
      <point x="1875" y="611"/>
      <point x="1924" y="562"/>
      <point x="1987" y="562" type="curve" smooth="yes"/>
      <point x="2047" y="562"/>
      <point x="2100" y="611"/>
      <point x="2100" y="675" type="curve" smooth="yes"/>
      <point x="2100" y="735"/>
      <point x="2047" y="787"/>
      <point x="1987" y="787" type="curve" smooth="yes"/>
      <point x="1924" y="787"/>
      <point x="1875" y="735"/>
    </contour>
    <contour>
      <point x="1425" y="1275" type="curve" smooth="yes"/>
      <point x="1425" y="1211"/>
      <point x="1474" y="1162"/>
      <point x="1537" y="1162" type="curve" smooth="yes"/>
      <point x="1597" y="1162"/>
      <point x="1650" y="1211"/>
      <point x="1650" y="1275" type="curve" smooth="yes"/>
      <point x="1650" y="1335"/>
      <point x="1597" y="1387"/>
      <point x="1537" y="1387" type="curve" smooth="yes"/>
      <point x="1474" y="1387"/>
      <point x="1425" y="1335"/>
    </contour>
    <contour>
      <point x="1830" y="956" type="curve" smooth="yes"/>
      <point x="1830" y="892"/>
      <point x="1879" y="844"/>
      <point x="1942" y="844" type="curve" smooth="yes"/>
      <point x="2002" y="844"/>
      <point x="2055" y="892"/>
      <point x="2055" y="956" type="curve" smooth="yes"/>
      <point x="2055" y="1016"/>
      <point x="2002" y="1069"/>
      <point x="1942" y="1069" type="curve" smooth="yes"/>
      <point x="1879" y="1069"/>
      <point x="1830" y="1016"/>
    </contour>
    <contour>
      <point x="1691" y="1204" type="curve" smooth="yes"/>
      <point x="1691" y="1140"/>
      <point x="1744" y="1091"/>
      <point x="1804" y="1091" type="curve" smooth="yes"/>
      <point x="1867" y="1091"/>
      <point x="1916" y="1140"/>
      <point x="1916" y="1204" type="curve" smooth="yes"/>
      <point x="1916" y="1264"/>
      <point x="1867" y="1316"/>
      <point x="1804" y="1316" type="curve" smooth="yes"/>
      <point x="1744" y="1316"/>
      <point x="1691" y="1264"/>
    </contour>
    <contour>
      <point x="1699" y="146" type="curve" smooth="yes"/>
      <point x="1699" y="82"/>
      <point x="1747" y="34"/>
      <point x="1811" y="34" type="curve" smooth="yes"/>
      <point x="1871" y="34"/>
      <point x="1924" y="82"/>
      <point x="1924" y="146" type="curve" smooth="yes"/>
      <point x="1924" y="206"/>
      <point x="1871" y="259"/>
      <point x="1811" y="259" type="curve" smooth="yes"/>
      <point x="1747" y="259"/>
      <point x="1699" y="206"/>
    </contour>
    <contour>
      <point x="1830" y="394" type="curve" smooth="yes"/>
      <point x="1830" y="330"/>
      <point x="1882" y="281"/>
      <point x="1942" y="281" type="curve" smooth="yes"/>
      <point x="2006" y="281"/>
      <point x="2055" y="330"/>
      <point x="2055" y="394" type="curve" smooth="yes"/>
      <point x="2055" y="454"/>
      <point x="2006" y="506"/>
      <point x="1942" y="506" type="curve" smooth="yes"/>
      <point x="1882" y="506"/>
      <point x="1830" y="454"/>
    </contour>
    <contour>
      <point x="1252" y="394" type="curve" smooth="yes"/>
      <point x="1252" y="457"/>
      <point x="1204" y="506"/>
      <point x="1140" y="506" type="curve" smooth="yes"/>
      <point x="1080" y="506"/>
      <point x="1027" y="457"/>
      <point x="1027" y="394" type="curve" smooth="yes"/>
      <point x="1027" y="334"/>
      <point x="1080" y="281"/>
      <point x="1140" y="281" type="curve" smooth="yes"/>
      <point x="1204" y="281"/>
      <point x="1252" y="334"/>
    </contour>
    <contour>
      <point x="1384" y="146" type="curve" smooth="yes"/>
      <point x="1384" y="210"/>
      <point x="1331" y="259"/>
      <point x="1271" y="259" type="curve" smooth="yes"/>
      <point x="1207" y="259"/>
      <point x="1159" y="210"/>
      <point x="1159" y="146" type="curve" smooth="yes"/>
      <point x="1159" y="86"/>
      <point x="1207" y="34"/>
      <point x="1271" y="34" type="curve" smooth="yes"/>
      <point x="1331" y="34"/>
      <point x="1384" y="86"/>
    </contour>
    <contour>
      <point x="1384" y="1204" type="curve" smooth="yes"/>
      <point x="1384" y="1267"/>
      <point x="1335" y="1316"/>
      <point x="1271" y="1316" type="curve" smooth="yes"/>
      <point x="1211" y="1316"/>
      <point x="1159" y="1267"/>
      <point x="1159" y="1204" type="curve" smooth="yes"/>
      <point x="1159" y="1144"/>
      <point x="1211" y="1091"/>
      <point x="1271" y="1091" type="curve" smooth="yes"/>
      <point x="1335" y="1091"/>
      <point x="1384" y="1144"/>
    </contour>
    <contour>
      <point x="1252" y="956" type="curve" smooth="yes"/>
      <point x="1252" y="1020"/>
      <point x="1200" y="1069"/>
      <point x="1140" y="1069" type="curve" smooth="yes"/>
      <point x="1076" y="1069"/>
      <point x="1027" y="1020"/>
      <point x="1027" y="956" type="curve" smooth="yes"/>
      <point x="1027" y="896"/>
      <point x="1076" y="844"/>
      <point x="1140" y="844" type="curve" smooth="yes"/>
      <point x="1200" y="844"/>
      <point x="1252" y="896"/>
    </contour>
    <contour>
      <point x="562" y="499" type="line"/>
      <point x="562" y="870" type="line" smooth="yes"/>
      <point x="562" y="937"/>
      <point x="491" y="997"/>
      <point x="375" y="1057" type="curve" smooth="yes"/>
      <point x="322" y="1084"/>
      <point x="221" y="1144"/>
      <point x="221" y="1174" type="curve" smooth="yes"/>
      <point x="221" y="1207"/>
      <point x="244" y="1215"/>
      <point x="289" y="1215" type="curve" smooth="yes"/>
      <point x="379" y="1215"/>
      <point x="461" y="1125"/>
      <point x="540" y="1125" type="curve" smooth="yes"/>
      <point x="656" y="1125"/>
      <point x="720" y="1192"/>
      <point x="731" y="1399" type="curve"/>
      <point x="705" y="1365"/>
      <point x="634" y="1350"/>
      <point x="589" y="1350" type="curve" smooth="yes"/>
      <point x="502" y="1350"/>
      <point x="442" y="1440"/>
      <point x="311" y="1440" type="curve" smooth="yes"/>
      <point x="187" y="1440"/>
      <point x="94" y="1301"/>
      <point x="94" y="1181" type="curve" smooth="yes"/>
      <point x="94" y="1121"/>
      <point x="120" y="1072"/>
      <point x="214" y="1009" type="curve" smooth="yes"/>
      <point x="236" y="994"/>
      <point x="262" y="964"/>
      <point x="262" y="907" type="curve" smooth="yes"/>
      <point x="262" y="452" type="line"/>
    </contour>
    <contour>
      <point x="2437" y="-394" type="line" smooth="yes"/>
      <point x="2437" y="-439"/>
      <point x="2272" y="-469"/>
      <point x="2212" y="-469" type="curve" smooth="yes"/>
      <point x="2152" y="-469"/>
      <point x="1987" y="-439"/>
      <point x="1987" y="-394" type="curve" smooth="yes"/>
      <point x="1987" y="-150" type="line"/>
      <point x="1687" y="-150" type="line"/>
      <point x="1687" y="-413" type="line" smooth="yes"/>
      <point x="1687" y="-506"/>
      <point x="2006" y="-600"/>
      <point x="2212" y="-600" type="curve" smooth="yes"/>
      <point x="2419" y="-600"/>
      <point x="2737" y="-506"/>
      <point x="2737" y="-413" type="curve" smooth="yes"/>
      <point x="2737" y="870" type="line" smooth="yes"/>
      <point x="2737" y="937"/>
      <point x="2666" y="997"/>
      <point x="2550" y="1057" type="curve" smooth="yes"/>
      <point x="2497" y="1084"/>
      <point x="2396" y="1144"/>
      <point x="2396" y="1174" type="curve" smooth="yes"/>
      <point x="2396" y="1207"/>
      <point x="2419" y="1215"/>
      <point x="2464" y="1215" type="curve" smooth="yes"/>
      <point x="2554" y="1215"/>
      <point x="2636" y="1125"/>
      <point x="2715" y="1125" type="curve" smooth="yes"/>
      <point x="2831" y="1125"/>
      <point x="2906" y="1215"/>
      <point x="2906" y="1380" type="curve" smooth="yes"/>
      <point x="2906" y="1732"/>
      <point x="2614" y="1777"/>
      <point x="2516" y="1777" type="curve" smooth="yes"/>
      <point x="2441" y="1777"/>
      <point x="2370" y="1759"/>
      <point x="2370" y="1691" type="curve" smooth="yes"/>
      <point x="2370" y="1631"/>
      <point x="2422" y="1594"/>
      <point x="2512" y="1571" type="curve" smooth="yes"/>
      <point x="2640" y="1537"/>
      <point x="2764" y="1494"/>
      <point x="2764" y="1350" type="curve"/>
      <point x="2677" y="1350"/>
      <point x="2617" y="1440"/>
      <point x="2486" y="1440" type="curve" smooth="yes"/>
      <point x="2362" y="1440"/>
      <point x="2269" y="1301"/>
      <point x="2269" y="1181" type="curve" smooth="yes"/>
      <point x="2269" y="1121"/>
      <point x="2295" y="1072"/>
      <point x="2389" y="1009" type="curve" smooth="yes"/>
      <point x="2411" y="994"/>
      <point x="2437" y="964"/>
      <point x="2437" y="907" type="curve" smooth="yes"/>
    </contour>
    <contour>
      <point x="262" y="581" type="line"/>
      <point x="262" y="106" type="line"/>
      <point x="292" y="19"/>
      <point x="416" y="-3"/>
      <point x="502" y="-3" type="curve"/>
      <point x="701" y="34"/>
      <point x="787" y="199"/>
      <point x="787" y="289" type="curve" smooth="yes"/>
      <point x="787" y="399"/>
      <point x="671" y="452"/>
      <point x="562" y="467" type="curve"/>
      <point x="562" y="610" type="line"/>
    </contour>
    <contour>
      <point x="682" y="289" type="curve" smooth="yes"/>
      <point x="682" y="238"/>
      <point x="615" y="162"/>
      <point x="562" y="147" type="curve"/>
      <point x="562" y="381" type="line"/>
      <point x="610" y="379"/>
      <point x="682" y="344"/>
    </contour>
  </outline>
</glyph>
<glyph name="uni17C8" format="2">
  <advance width="870"/>
  <unicode hex="17C8"/>
  <outline>
    <contour>
      <point x="225" y="1050" type="curve" smooth="yes"/>
      <point x="225" y="960"/>
      <point x="319" y="889"/>
      <point x="435" y="889" type="curve" smooth="yes"/>
      <point x="551" y="889"/>
      <point x="645" y="960"/>
      <point x="645" y="1050" type="curve" smooth="yes"/>
      <point x="645" y="1140"/>
      <point x="551" y="1211"/>
      <point x="435" y="1211" type="curve" smooth="yes"/>
      <point x="319" y="1211"/>
      <point x="225" y="1140"/>
    </contour>
    <contour>
      <point x="225" y="315" type="curve" smooth="yes"/>
      <point x="225" y="225"/>
      <point x="319" y="154"/>
      <point x="435" y="154" type="curve" smooth="yes"/>
      <point x="551" y="154"/>
      <point x="645" y="225"/>
      <point x="645" y="315" type="curve" smooth="yes"/>
      <point x="645" y="405"/>
      <point x="551" y="476"/>
      <point x="435" y="476" type="curve" smooth="yes"/>
      <point x="319" y="476"/>
      <point x="225" y="405"/>
    </contour>
  </outline>
</glyph>
<glyph name="uni17CE" format="2">
  <unicode hex="17CE"/>
  <anchor x="-713" y="1440" name="_um"/>
  <anchor x="-713" y="2076" name="um"/>
  <anchor x="-188" y="2076" name="U"/>
  <outline>
    <contour>
      <point x="-582" y="1590" type="line"/>
      <point x="-582" y="1740" type="line"/>
      <point x="-432" y="1740" type="line"/>
      <point x="-432" y="1946" type="line"/>
      <point x="-582" y="1946" type="line"/>
      <point x="-582" y="2096" type="line"/>
      <point x="-844" y="2096" type="line"/>
      <point x="-844" y="1946" type="line"/>
      <point x="-994" y="1946" type="line"/>
      <point x="-994" y="1740" type="line"/>
      <point x="-844" y="1740" type="line"/>
      <point x="-844" y="1590" type="line"/>
    </contour>
  </outline>
</glyph>
<glyph name="uni17D0" format="2">
  <unicode hex="17D0"/>
  <anchor x="-188" y="1440" name="_U"/>
  <anchor x="-188" y="2264" name="U"/>
  <anchor x="-713" y="2264" name="um"/>
  <outline>
    <contour>
      <point x="-225" y="1954" type="curve" smooth="yes"/>
      <point x="-225" y="2032"/>
      <point x="-323" y="2059"/>
      <point x="-413" y="2059" type="curve" smooth="yes"/>
      <point x="-566" y="2059"/>
      <point x="-638" y="1987"/>
      <point x="-638" y="1901" type="curve" smooth="yes"/>
      <point x="-638" y="1762"/>
      <point x="-510" y="1590"/>
      <point x="-263" y="1590" type="curve" smooth="yes"/>
      <point x="-4" y="1590"/>
      <point x="225" y="1732"/>
      <point x="225" y="2014" type="curve" smooth="yes"/>
      <point x="225" y="2066"/>
      <point x="210" y="2141"/>
      <point x="157" y="2201" type="curve" smooth="yes"/>
      <point x="109" y="2257"/>
      <point x="34" y="2284"/>
      <point x="-68" y="2284" type="curve" smooth="yes"/>
      <point x="-143" y="2284"/>
      <point x="-191" y="2261"/>
      <point x="-191" y="2205" type="curve" smooth="yes"/>
      <point x="-191" y="2152"/>
      <point x="-161" y="2134"/>
      <point x="-90" y="2088" type="curve" smooth="yes"/>
      <point x="-56" y="2066"/>
      <point x="-37" y="2029"/>
      <point x="-37" y="1980" type="curve" smooth="yes"/>
      <point x="-37" y="1912"/>
      <point x="-56" y="1856"/>
      <point x="-94" y="1819" type="curve"/>
      <point x="-146" y="1762"/>
      <point x="-199" y="1740"/>
      <point x="-255" y="1740" type="curve" smooth="yes"/>
      <point x="-308" y="1740"/>
      <point x="-341" y="1785"/>
      <point x="-341" y="1834" type="curve"/>
      <point x="-293" y="1849"/>
      <point x="-225" y="1897"/>
    </contour>
  </outline>
</glyph>
<glyph name="uni17D7" format="2">
  <advance width="1500"/>
  <unicode hex="17D7"/>
  <outline>
    <contour>
      <point x="224" y="1117" type="curve" smooth="yes"/>
      <point x="224" y="932"/>
      <point x="347" y="840"/>
      <point x="521" y="840" type="curve" smooth="yes"/>
      <point x="630" y="840"/>
      <point x="742" y="896"/>
      <point x="742" y="982" type="curve" smooth="yes"/>
      <point x="742" y="1042"/>
      <point x="667" y="1087"/>
      <point x="566" y="1087" type="curve" smooth="yes"/>
      <point x="544" y="1087"/>
      <point x="525" y="1087"/>
      <point x="510" y="1084" type="curve"/>
      <point x="499" y="1099"/>
      <point x="494" y="1144"/>
      <point x="494" y="1166" type="curve" smooth="yes"/>
      <point x="494" y="1204"/>
      <point x="499" y="1242"/>
      <point x="510" y="1260" type="curve"/>
      <point x="578" y="1200"/>
      <point x="693" y="1107"/>
      <point x="753" y="1107" type="curve" smooth="yes"/>
      <point x="813" y="1107"/>
      <point x="928" y="1200"/>
      <point x="996" y="1260" type="curve"/>
      <point x="1000" y="1241"/>
      <point x="1012" y="1169"/>
      <point x="1012" y="1135" type="curve" smooth="yes"/>
      <point x="1012" y="146" type="line" smooth="yes"/>
      <point x="1012" y="-75"/>
      <point x="952" y="-128"/>
      <point x="844" y="-128" type="curve" smooth="yes"/>
      <point x="784" y="-128"/>
      <point x="735" y="-94"/>
      <point x="697" y="-26" type="curve" smooth="yes"/>
      <point x="679" y="7"/>
      <point x="604" y="22"/>
      <point x="551" y="22" type="curve" smooth="yes"/>
      <point x="469" y="22"/>
      <point x="412" y="-19"/>
      <point x="412" y="-53" type="curve" smooth="yes"/>
      <point x="412" y="-64"/>
      <point x="412" y="-75"/>
      <point x="423" y="-94" type="curve" smooth="yes"/>
      <point x="499" y="-225"/>
      <point x="641" y="-278"/>
      <point x="844" y="-278" type="curve" smooth="yes"/>
      <point x="1121" y="-278"/>
      <point x="1312" y="-188"/>
      <point x="1312" y="131" type="curve" smooth="yes"/>
      <point x="1312" y="1125" type="line" smooth="yes"/>
      <point x="1312" y="1286"/>
      <point x="1170" y="1440"/>
      <point x="1024" y="1440" type="curve" smooth="yes"/>
      <point x="942" y="1440"/>
      <point x="845" y="1365"/>
      <point x="762" y="1294" type="curve"/>
      <point x="679" y="1365"/>
      <point x="582" y="1440"/>
      <point x="500" y="1440" type="curve" smooth="yes"/>
      <point x="342" y="1440"/>
      <point x="224" y="1279"/>
    </contour>
  </outline>
</glyph>
<glyph name="uni17DA" format="2">
  <advance width="4350"/>
  <unicode hex="17DA"/>
  <outline>
    <contour>
      <point x="1650" y="877" type="curve" smooth="yes"/>
      <point x="1650" y="1267"/>
      <point x="1294" y="1440"/>
      <point x="994" y="1440" type="curve" smooth="yes"/>
      <point x="574" y="1440"/>
      <point x="262" y="1184"/>
      <point x="262" y="724" type="curve" smooth="yes"/>
      <point x="262" y="264"/>
      <point x="690" y="0"/>
      <point x="1121" y="0" type="curve" smooth="yes"/>
      <point x="1630" y="0"/>
      <point x="1836" y="214"/>
      <point x="1950" y="375" type="curve"/>
      <point x="2018" y="290"/>
      <point x="2094" y="200"/>
      <point x="2210" y="200" type="curve" smooth="yes"/>
      <point x="2319" y="200"/>
      <point x="2401" y="277"/>
      <point x="2450" y="350" type="curve"/>
      <point x="2495" y="292"/>
      <point x="2586" y="225"/>
      <point x="2680" y="225" type="curve" smooth="yes"/>
      <point x="2785" y="225"/>
      <point x="2846" y="294"/>
      <point x="2910" y="370" type="curve"/>
      <point x="2966" y="302"/>
      <point x="3059" y="255"/>
      <point x="3130" y="255" type="curve" smooth="yes"/>
      <point x="3276" y="255"/>
      <point x="3409" y="364"/>
      <point x="3450" y="450" type="curve"/>
      <point x="3712" y="450"/>
      <point x="4091" y="555"/>
      <point x="4162" y="746" type="curve"/>
      <point x="3900" y="655"/>
      <point x="3686" y="649"/>
      <point x="3592" y="649" type="curve" smooth="yes"/>
      <point x="3577" y="649"/>
      <point x="3547" y="656"/>
      <point x="3532" y="671" type="curve" smooth="yes"/>
      <point x="3525" y="679"/>
      <point x="3500" y="709"/>
      <point x="3500" y="776" type="curve" smooth="yes"/>
      <point x="3500" y="859"/>
      <point x="3447" y="934"/>
      <point x="3350" y="934" type="curve" smooth="yes"/>
      <point x="3267" y="934"/>
      <point x="3200" y="885"/>
      <point x="3200" y="821" type="curve" smooth="yes"/>
      <point x="3200" y="757"/>
      <point x="3180" y="517"/>
      <point x="3130" y="517" type="curve" smooth="yes"/>
      <point x="3080" y="517"/>
      <point x="3060" y="750"/>
      <point x="3060" y="874" type="curve" smooth="yes"/>
      <point x="3060" y="956"/>
      <point x="3012" y="1027"/>
      <point x="2910" y="1027" type="curve" smooth="yes"/>
      <point x="2828" y="1027"/>
      <point x="2760" y="967"/>
      <point x="2760" y="904" type="curve" smooth="yes"/>
      <point x="2760" y="746"/>
      <point x="2740" y="487"/>
      <point x="2680" y="487" type="curve" smooth="yes"/>
      <point x="2620" y="487"/>
      <point x="2600" y="776"/>
      <point x="2600" y="967" type="curve" smooth="yes"/>
      <point x="2600" y="1050"/>
      <point x="2551" y="1121"/>
      <point x="2450" y="1121" type="curve" smooth="yes"/>
      <point x="2367" y="1121"/>
      <point x="2300" y="1054"/>
      <point x="2300" y="990" type="curve" smooth="yes"/>
      <point x="2300" y="772"/>
      <point x="2280" y="462"/>
      <point x="2210" y="462" type="curve" smooth="yes"/>
      <point x="2140" y="462"/>
      <point x="2120" y="675"/>
      <point x="2120" y="1046" type="curve" smooth="yes"/>
      <point x="2120" y="1129"/>
      <point x="2071" y="1196"/>
      <point x="1970" y="1196" type="curve" smooth="yes"/>
      <point x="1887" y="1196"/>
      <point x="1827" y="1151"/>
      <point x="1820" y="1087" type="curve"/>
      <point x="1820" y="385"/>
      <point x="1531" y="225"/>
      <point x="1121" y="225" type="curve" smooth="yes"/>
      <point x="877" y="225"/>
      <point x="562" y="344"/>
      <point x="562" y="724" type="curve" smooth="yes"/>
      <point x="562" y="1104"/>
      <point x="820" y="1215"/>
      <point x="994" y="1215" type="curve" smooth="yes"/>
      <point x="1152" y="1215"/>
      <point x="1350" y="1134"/>
      <point x="1350" y="877" type="curve" smooth="yes"/>
      <point x="1350" y="679"/>
      <point x="1237" y="577"/>
      <point x="1114" y="577" type="curve" smooth="yes"/>
      <point x="1032" y="577"/>
      <point x="975" y="634"/>
      <point x="975" y="682" type="curve"/>
      <point x="1115" y="682"/>
      <point x="1249" y="767"/>
      <point x="1249" y="877" type="curve" smooth="yes"/>
      <point x="1249" y="1012"/>
      <point x="1144" y="1106"/>
      <point x="994" y="1106" type="curve" smooth="yes"/>
      <point x="814" y="1106"/>
      <point x="675" y="967"/>
      <point x="675" y="731" type="curve" smooth="yes"/>
      <point x="675" y="472"/>
      <point x="907" y="337"/>
      <point x="1121" y="337" type="curve" smooth="yes"/>
      <point x="1402" y="337"/>
      <point x="1650" y="555"/>
    </contour>
  </outline>
</glyph>
<glyph name="uni17E4" format="2">
  <advance width="1312"/>
  <unicode hex="17E4"/>
  <outline>
    <contour>
      <point x="1005" y="371" type="curve" smooth="yes"/>
      <point x="1102" y="371"/>
      <point x="1181" y="412"/>
      <point x="1181" y="521" type="curve" smooth="yes"/>
      <point x="1181" y="626"/>
      <point x="1080" y="727"/>
      <point x="926" y="727" type="curve" smooth="yes"/>
      <point x="716" y="727"/>
      <point x="600" y="600"/>
      <point x="600" y="442" type="curve" smooth="yes"/>
      <point x="600" y="356"/>
      <point x="660" y="266"/>
      <point x="754" y="176" type="curve"/>
      <point x="724" y="176"/>
      <point x="675" y="180"/>
      <point x="656" y="180" type="curve" smooth="yes"/>
      <point x="615" y="180"/>
      <point x="552" y="161"/>
      <point x="510" y="161" type="curve" smooth="yes"/>
      <point x="442" y="161"/>
      <point x="412" y="296"/>
      <point x="412" y="420" type="curve" smooth="yes"/>
      <point x="412" y="634"/>
      <point x="656" y="892"/>
      <point x="796" y="1011" type="curve" smooth="yes"/>
      <point x="919" y="1117"/>
      <point x="1080" y="1282"/>
      <point x="1080" y="1451" type="curve" smooth="yes"/>
      <point x="1080" y="1631"/>
      <point x="926" y="1759"/>
      <point x="754" y="1759" type="curve" smooth="yes"/>
      <point x="720" y="1759"/>
      <point x="697" y="1755"/>
      <point x="675" y="1747" type="curve"/>
      <point x="757" y="1710"/>
      <point x="784" y="1586"/>
      <point x="784" y="1511" type="curve" smooth="yes"/>
      <point x="784" y="1379"/>
      <point x="600" y="1219"/>
      <point x="479" y="1111" type="curve" smooth="yes"/>
      <point x="311" y="960"/>
      <point x="112" y="709"/>
      <point x="112" y="491" type="curve" smooth="yes"/>
      <point x="112" y="135"/>
      <point x="277" y="0"/>
      <point x="427" y="0" type="curve" smooth="yes"/>
      <point x="469" y="0"/>
      <point x="547" y="6"/>
      <point x="589" y="15" type="curve" smooth="yes"/>
      <point x="626" y="23"/>
      <point x="667" y="30"/>
      <point x="690" y="30" type="curve" smooth="yes"/>
      <point x="731" y="30"/>
      <point x="780" y="23"/>
      <point x="832" y="14" type="curve" smooth="yes"/>
      <point x="881" y="6"/>
      <point x="930" y="0"/>
      <point x="982" y="0" type="curve" smooth="yes"/>
      <point x="1087" y="0"/>
      <point x="1114" y="41"/>
      <point x="1114" y="60" type="curve" smooth="yes"/>
      <point x="1114" y="112"/>
      <point x="1054" y="176"/>
      <point x="981" y="243" type="curve" smooth="yes"/>
      <point x="934" y="285"/>
      <point x="885" y="330"/>
      <point x="874" y="401" type="curve"/>
      <point x="907" y="382"/>
      <point x="952" y="371"/>
    </contour>
  </outline>
</glyph>
<glyph name="uni17E5" format="2">
  <advance width="1275"/>
  <unicode hex="17E5"/>
  <outline>
    <contour>
      <point x="112" y="536" type="curve" smooth="yes"/>
      <point x="112" y="139"/>
      <point x="277" y="0"/>
      <point x="427" y="0" type="curve" smooth="yes"/>
      <point x="469" y="0"/>
      <point x="547" y="6"/>
      <point x="589" y="15" type="curve" smooth="yes"/>
      <point x="626" y="23"/>
      <point x="667" y="30"/>
      <point x="690" y="30" type="curve" smooth="yes"/>
      <point x="731" y="30"/>
      <point x="780" y="23"/>
      <point x="832" y="15" type="curve" smooth="yes"/>
      <point x="881" y="8"/>
      <point x="930" y="0"/>
      <point x="982" y="0" type="curve" smooth="yes"/>
      <point x="1087" y="0"/>
      <point x="1114" y="41"/>
      <point x="1114" y="60" type="curve" smooth="yes"/>
      <point x="1114" y="112"/>
      <point x="1054" y="176"/>
      <point x="981" y="243" type="curve" smooth="yes"/>
      <point x="934" y="285"/>
      <point x="885" y="330"/>
      <point x="874" y="401" type="curve"/>
      <point x="907" y="382"/>
      <point x="952" y="371"/>
      <point x="1005" y="371" type="curve" smooth="yes"/>
      <point x="1102" y="371"/>
      <point x="1181" y="412"/>
      <point x="1181" y="521" type="curve" smooth="yes"/>
      <point x="1181" y="626"/>
      <point x="1080" y="727"/>
      <point x="926" y="727" type="curve" smooth="yes"/>
      <point x="716" y="727"/>
      <point x="600" y="600"/>
      <point x="600" y="442" type="curve" smooth="yes"/>
      <point x="600" y="356"/>
      <point x="660" y="266"/>
      <point x="754" y="176" type="curve"/>
      <point x="724" y="176"/>
      <point x="694" y="180"/>
      <point x="675" y="180" type="curve" smooth="yes"/>
      <point x="626" y="180"/>
      <point x="544" y="161"/>
      <point x="510" y="161" type="curve" smooth="yes"/>
      <point x="442" y="161"/>
      <point x="412" y="337"/>
      <point x="412" y="499" type="curve" smooth="yes"/>
      <point x="412" y="746"/>
      <point x="544" y="911"/>
      <point x="622" y="1001" type="curve"/>
      <point x="964" y="1001"/>
      <point x="1132" y="1035"/>
      <point x="1132" y="1241" type="curve" smooth="yes"/>
      <point x="1132" y="1271"/>
      <point x="1117" y="1327"/>
      <point x="1102" y="1380" type="curve" smooth="yes"/>
      <point x="1087" y="1432"/>
      <point x="1072" y="1485"/>
      <point x="1072" y="1511" type="curve" smooth="yes"/>
      <point x="1072" y="1594"/>
      <point x="1110" y="1676"/>
      <point x="1189" y="1676" type="curve"/>
      <point x="1140" y="1732"/>
      <point x="1106" y="1770"/>
      <point x="990" y="1770" type="curve" smooth="yes"/>
      <point x="862" y="1770"/>
      <point x="787" y="1594"/>
      <point x="787" y="1492" type="curve" smooth="yes"/>
      <point x="787" y="1455"/>
      <point x="797" y="1410"/>
      <point x="810" y="1365" type="curve" smooth="yes"/>
      <point x="823" y="1320"/>
      <point x="832" y="1279"/>
      <point x="832" y="1245" type="curve" smooth="yes"/>
      <point x="832" y="1189"/>
      <point x="776" y="1166"/>
      <point x="712" y="1159" type="curve"/>
      <point x="727" y="1185"/>
      <point x="731" y="1207"/>
      <point x="731" y="1234" type="curve" smooth="yes"/>
      <point x="731" y="1395"/>
      <point x="592" y="1477"/>
      <point x="450" y="1477" type="curve" smooth="yes"/>
      <point x="307" y="1477"/>
      <point x="168" y="1395"/>
      <point x="168" y="1234" type="curve" smooth="yes"/>
      <point x="168" y="1129"/>
      <point x="225" y="1072"/>
      <point x="319" y="1020" type="curve"/>
      <point x="277" y="971"/>
      <point x="112" y="750"/>
    </contour>
    <contour>
      <point x="392" y="1238" type="curve" smooth="yes"/>
      <point x="392" y="1278"/>
      <point x="415" y="1308"/>
      <point x="450" y="1308" type="curve" smooth="yes"/>
      <point x="485" y="1308"/>
      <point x="508" y="1278"/>
      <point x="508" y="1238" type="curve" smooth="yes"/>
      <point x="508" y="1203"/>
      <point x="477" y="1169"/>
      <point x="450" y="1162" type="curve"/>
      <point x="424" y="1169"/>
      <point x="392" y="1203"/>
    </contour>
  </outline>
</glyph>
<glyph name="uni17E8" format="2">
  <advance width="1312"/>
  <unicode hex="17E8"/>
  <outline>
    <contour>
      <point x="112" y="532" type="curve" smooth="yes"/>
      <point x="112" y="135"/>
      <point x="281" y="0"/>
      <point x="431" y="0" type="curve" smooth="yes"/>
      <point x="536" y="0"/>
      <point x="637" y="45"/>
      <point x="675" y="82" type="curve"/>
      <point x="712" y="45"/>
      <point x="814" y="0"/>
      <point x="919" y="0" type="curve" smooth="yes"/>
      <point x="1099" y="0"/>
      <point x="1200" y="206"/>
      <point x="1200" y="405" type="curve" smooth="yes"/>
      <point x="1200" y="581"/>
      <point x="1091" y="735"/>
      <point x="877" y="735" type="curve" smooth="yes"/>
      <point x="724" y="735"/>
      <point x="611" y="641"/>
      <point x="611" y="536" type="curve" smooth="yes"/>
      <point x="611" y="476"/>
      <point x="649" y="371"/>
      <point x="799" y="371" type="curve" smooth="yes"/>
      <point x="847" y="371"/>
      <point x="885" y="379"/>
      <point x="919" y="397" type="curve"/>
      <point x="919" y="322"/>
      <point x="889" y="176"/>
      <point x="825" y="176" type="curve" smooth="yes"/>
      <point x="772" y="176"/>
      <point x="731" y="195"/>
      <point x="675" y="262" type="curve"/>
      <point x="619" y="195"/>
      <point x="577" y="172"/>
      <point x="525" y="172" type="curve" smooth="yes"/>
      <point x="446" y="172"/>
      <point x="412" y="356"/>
      <point x="412" y="514" type="curve" smooth="yes"/>
      <point x="412" y="877"/>
      <point x="491" y="971"/>
      <point x="547" y="971" type="curve" smooth="yes"/>
      <point x="686" y="971"/>
      <point x="739" y="904"/>
      <point x="870" y="904" type="curve" smooth="yes"/>
      <point x="1054" y="904"/>
      <point x="1170" y="1054"/>
      <point x="1170" y="1237" type="curve" smooth="yes"/>
      <point x="1170" y="1324"/>
      <point x="1110" y="1410"/>
      <point x="1110" y="1507" type="curve" smooth="yes"/>
      <point x="1110" y="1590"/>
      <point x="1147" y="1672"/>
      <point x="1226" y="1672" type="curve"/>
      <point x="1181" y="1729"/>
      <point x="1140" y="1766"/>
      <point x="1027" y="1766" type="curve" smooth="yes"/>
      <point x="900" y="1766"/>
      <point x="817" y="1624"/>
      <point x="817" y="1489" type="curve" smooth="yes"/>
      <point x="817" y="1425"/>
      <point x="870" y="1346"/>
      <point x="870" y="1264" type="curve" smooth="yes"/>
      <point x="870" y="1185"/>
      <point x="862" y="1121"/>
      <point x="802" y="1121" type="curve" smooth="yes"/>
      <point x="690" y="1121"/>
      <point x="656" y="1177"/>
      <point x="502" y="1177" type="curve" smooth="yes"/>
      <point x="371" y="1177"/>
      <point x="112" y="1035"/>
    </contour>
  </outline>
</glyph>
<glyph name="uni1EA5" format="2">
  <advance width="1028"/>
  <unicode hex="1EA5"/>
  <outline>
    <contour>
      <point x="358" y="1470" type="line"/>
      <point x="130" y="1089" type="line"/>
      <point x="234" y="1089" type="line"/>
      <point x="484" y="1290" type="line"/>
      <point x="734" y="1089" type="line"/>
      <point x="842" y="1089" type="line"/>
      <point x="610" y="1470" type="line"/>
    </contour>
    <contour>
      <point x="835" y="734" type="line"/>
      <point x="835" y="897"/>
      <point x="743" y="1004"/>
      <point x="492" y="1004" type="curve"/>
      <point x="282" y="1004"/>
      <point x="103" y="900"/>
      <point x="103" y="762" type="curve"/>
      <point x="103" y="690"/>
      <point x="157" y="633"/>
      <point x="235" y="633" type="curve"/>
      <point x="337" y="633"/>
      <point x="358" y="700"/>
      <point x="358" y="776" type="curve"/>
      <point x="358" y="840"/>
      <point x="377" y="903"/>
      <point x="459" y="903" type="curve"/>
      <point x="537" y="903"/>
      <point x="584" y="850"/>
      <point x="584" y="689" type="curve"/>
      <point x="584" y="640" type="line"/>
      <point x="335" y="557"/>
      <point x="70" y="470"/>
      <point x="70" y="234" type="curve"/>
      <point x="70" y="92"/>
      <point x="170" y="-22"/>
      <point x="329" y="-22" type="curve"/>
      <point x="462" y="-22"/>
      <point x="531" y="28"/>
      <point x="595" y="85" type="curve"/>
      <point x="613" y="28"/>
      <point x="656" y="-22"/>
      <point x="726" y="-22" type="curve"/>
      <point x="853" y="-22"/>
      <point x="939" y="53"/>
      <point x="988" y="138" type="curve"/>
      <point x="988" y="329" type="line"/>
      <point x="924" y="233"/>
      <point x="864" y="144"/>
      <point x="842" y="144" type="curve"/>
      <point x="837" y="144"/>
      <point x="835" y="168"/>
      <point x="835" y="197" type="curve"/>
    </contour>
    <contour>
      <point x="419" y="134" type="curve" smooth="yes"/>
      <point x="370" y="134"/>
      <point x="321" y="201"/>
      <point x="321" y="285" type="curve"/>
      <point x="321" y="397"/>
      <point x="459" y="481"/>
      <point x="584" y="531" type="curve"/>
      <point x="584" y="218" type="line"/>
      <point x="526" y="172"/>
      <point x="474" y="134"/>
    </contour>
    <contour>
      <point x="1021" y="1930" type="line"/>
      <point x="671" y="1930" type="line"/>
      <point x="550" y="1586" type="line"/>
      <point x="675" y="1586" type="line"/>
    </contour>
  </outline>
</glyph>
<glyph name="uni1EC2" format="2">
  <advance width="1404"/>
  <unicode hex="1EC2"/>
  <outline>
    <contour>
      <point x="40" y="1437" type="line"/>
      <point x="40" y="1362" type="line"/>
      <point x="186" y="1362"/>
      <point x="240" y="1329"/>
      <point x="240" y="1196" type="curve"/>
      <point x="240" y="242" type="line"/>
      <point x="240" y="108"/>
      <point x="186" y="75"/>
      <point x="40" y="75" type="curve"/>
      <point x="40" y="0" type="line"/>
      <point x="1194" y="0" type="line"/>
      <point x="1334" y="432" type="line"/>
      <point x="1203" y="432" type="line"/>
      <point x="1149" y="254"/>
      <point x="1039" y="108"/>
      <point x="867" y="108" type="curve"/>
      <point x="576" y="108" type="line"/>
      <point x="552" y="108"/>
      <point x="534" y="140"/>
      <point x="531" y="178" type="curve"/>
      <point x="531" y="729" type="line"/>
      <point x="767" y="729" type="line"/>
      <point x="858" y="729"/>
      <point x="935" y="673"/>
      <point x="935" y="506" type="curve"/>
      <point x="1051" y="506" type="line"/>
      <point x="1051" y="1019" type="line"/>
      <point x="935" y="1019" type="line"/>
      <point x="935" y="884"/>
      <point x="858" y="836"/>
      <point x="764" y="836" type="curve"/>
      <point x="531" y="836" type="line"/>
      <point x="531" y="1329" type="line"/>
      <point x="844" y="1329" type="line"/>
      <point x="1002" y="1329"/>
      <point x="1063" y="1235"/>
      <point x="1096" y="1066" type="curve"/>
      <point x="1213" y="1066" type="line"/>
      <point x="1193" y="1437" type="line"/>
    </contour>
    <contour>
      <point x="567" y="1769" type="line"/>
      <point x="335" y="1480" type="line"/>
      <point x="438" y="1480" type="line"/>
      <point x="692" y="1597" type="line"/>
      <point x="946" y="1480" type="line"/>
      <point x="1054" y="1480" type="line"/>
      <point x="816" y="1769" type="line"/>
    </contour>
    <contour>
      <point x="754" y="1830" type="line"/>
      <point x="754" y="1945"/>
      <point x="887" y="1959"/>
      <point x="887" y="2094" type="curve"/>
      <point x="887" y="2180"/>
      <point x="813" y="2230"/>
      <point x="710" y="2230" type="curve"/>
      <point x="633" y="2230"/>
      <point x="520" y="2191"/>
      <point x="520" y="2100" type="curve"/>
      <point x="520" y="2058"/>
      <point x="543" y="2021"/>
      <point x="605" y="2021" type="curve"/>
      <point x="654" y="2021"/>
      <point x="686" y="2051"/>
      <point x="686" y="2080" type="curve"/>
      <point x="686" y="2094"/>
      <point x="676" y="2109"/>
      <point x="660" y="2125" type="curve" smooth="yes"/>
      <point x="656" y="2129"/>
      <point x="653" y="2133"/>
      <point x="653" y="2142" type="curve"/>
      <point x="653" y="2152"/>
      <point x="667" y="2161"/>
      <point x="692" y="2161" type="curve"/>
      <point x="718" y="2161"/>
      <point x="735" y="2139"/>
      <point x="735" y="2089" type="curve"/>
      <point x="735" y="1969"/>
      <point x="639" y="1927"/>
      <point x="639" y="1830" type="curve"/>
    </contour>
  </outline>
</glyph>
<glyph name="uni1EF8" format="2">
  <advance width="1560"/>
  <unicode hex="1EF8"/>
  <outline>
    <contour>
      <point x="10" y="1437" type="line"/>
      <point x="10" y="1362" type="line"/>
      <point x="126" y="1362"/>
      <point x="164" y="1305"/>
      <point x="217" y="1225" type="curve"/>
      <point x="633" y="601" type="line"/>
      <point x="633" y="242" type="line"/>
      <point x="633" y="108"/>
      <point x="578" y="75"/>
      <point x="435" y="75" type="curve"/>
      <point x="435" y="0" type="line"/>
      <point x="1123" y="0" type="line"/>
      <point x="1123" y="75" type="line"/>
      <point x="978" y="75"/>
      <point x="926" y="108"/>
      <point x="926" y="242" type="curve"/>
      <point x="926" y="623" type="line"/>
      <point x="1285" y="1196" type="line" smooth="yes"/>
      <point x="1359" y="1314"/>
      <point x="1419" y="1362"/>
      <point x="1550" y="1362" type="curve"/>
      <point x="1550" y="1437" type="line"/>
      <point x="981" y="1437" type="line"/>
      <point x="981" y="1362" type="line"/>
      <point x="1080" y="1362"/>
      <point x="1127" y="1332"/>
      <point x="1127" y="1279" type="curve"/>
      <point x="1127" y="1262"/>
      <point x="1121" y="1239"/>
      <point x="1109" y="1215" type="curve"/>
      <point x="832" y="766" type="line"/>
      <point x="562" y="1200" type="line"/>
      <point x="538" y="1233"/>
      <point x="530" y="1259"/>
      <point x="530" y="1283" type="curve"/>
      <point x="530" y="1333"/>
      <point x="581" y="1362"/>
      <point x="697" y="1362" type="curve"/>
      <point x="697" y="1437" type="line"/>
    </contour>
    <contour>
      <point x="536" y="1550" type="line"/>
      <point x="547" y="1608"/>
      <point x="591" y="1655"/>
      <point x="633" y="1655" type="curve"/>
      <point x="666" y="1655"/>
      <point x="693" y="1641"/>
      <point x="748" y="1607" type="curve" smooth="yes"/>
      <point x="810" y="1568"/>
      <point x="859" y="1550"/>
      <point x="939" y="1550" type="curve"/>
      <point x="1121" y="1550"/>
      <point x="1196" y="1677"/>
      <point x="1196" y="1825" type="curve"/>
      <point x="1091" y="1825" type="line"/>
      <point x="1080" y="1768"/>
      <point x="1033" y="1720"/>
      <point x="991" y="1720" type="curve"/>
      <point x="958" y="1720"/>
      <point x="931" y="1734"/>
      <point x="876" y="1768" type="curve" smooth="yes"/>
      <point x="814" y="1807"/>
      <point x="765" y="1825"/>
      <point x="685" y="1825" type="curve"/>
      <point x="503" y="1825"/>
      <point x="428" y="1703"/>
      <point x="428" y="1550" type="curve"/>
    </contour>
  </outline>
</glyph>
<glyph name="quotesinglbase" format="2">
  <advance width="618"/>
  <unicode hex="201A"/>
  <outline>
    <contour>
      <point x="140" y="-349" type="line"/>
      <point x="357" y="-331"/>
      <point x="548" y="-182"/>
      <point x="548" y="17" type="curve"/>
      <point x="548" y="148"/>
      <point x="445" y="255"/>
      <point x="322" y="255" type="curve"/>
      <point x="219" y="255"/>
      <point x="140" y="191"/>
      <point x="140" y="108" type="curve"/>
      <point x="140" y="28"/>
      <point x="205" y="-32"/>
      <point x="281" y="-32" type="curve"/>
      <point x="331" y="-32"/>
      <point x="349" y="-20"/>
      <point x="369" y="-6" type="curve"/>
      <point x="369" y="-133"/>
      <point x="268" y="-228"/>
      <point x="140" y="-264" type="curve"/>
    </contour>
  </outline>
</glyph>
<glyph name="uni207F" format="2">
  <advance width="714"/>
  <unicode hex="207F"/>
  <outline>
    <contour>
      <point x="124" y="936" type="line"/>
      <point x="124" y="863"/>
      <point x="107" y="835"/>
      <point x="26" y="835" type="curve"/>
      <point x="26" y="772" type="line"/>
      <point x="775" y="772" type="line"/>
      <point x="775" y="835" type="line"/>
      <point x="693" y="835"/>
      <point x="677" y="863"/>
      <point x="677" y="936" type="curve"/>
      <point x="677" y="1239" type="line"/>
      <point x="677" y="1355"/>
      <point x="598" y="1449"/>
      <point x="495" y="1449" type="curve"/>
      <point x="431" y="1449"/>
      <point x="371" y="1427"/>
      <point x="316" y="1384" type="curve"/>
      <point x="316" y="1449" type="line"/>
      <point x="232" y="1449" type="line"/>
      <point x="17" y="1350" type="line"/>
      <point x="40" y="1292" type="line"/>
      <point x="90" y="1305" type="line"/>
      <point x="105" y="1308"/>
      <point x="118" y="1312"/>
      <point x="124" y="1312" type="curve"/>
    </contour>
    <contour>
      <point x="316" y="936" type="curve"/>
      <point x="316" y="1255" type="line"/>
      <point x="357" y="1297"/>
      <point x="405" y="1325"/>
      <point x="435" y="1325" type="curve"/>
      <point x="464" y="1325"/>
      <point x="484" y="1289"/>
      <point x="484" y="1219" type="curve"/>
      <point x="484" y="936" type="line"/>
      <point x="484" y="867"/>
      <point x="471" y="838"/>
      <point x="401" y="835" type="curve"/>
      <point x="329" y="838"/>
      <point x="316" y="867"/>
    </contour>
  </outline>
</glyph>
<glyph name="uni22C4" format="2">
  <unicode hex="22C4"/>
  <outline>
    <contour>
      <point x="108" y="720" type="line"/>
      <point x="14" y="900" type="line"/>
      <point x="-14" y="900" type="line"/>
      <point x="-108" y="720" type="line"/>
      <point x="-14" y="540" type="line"/>
      <point x="14" y="540" type="line"/>
    </contour>
    <contour>
      <point x="73" y="720" type="line"/>
      <point x="0" y="580" type="line"/>
      <point x="-72" y="720" type="line"/>
      <point x="0" y="859" type="line"/>
    </contour>
  </outline>
</glyph>
<glyph name="uni22C5" format="2">
  <unicode hex="22C5"/>
  <outline>
    <contour>
      <point x="120" y="720" type="curve" smooth="yes"/>
      <point x="120" y="786"/>
      <point x="66" y="840"/>
      <point x="0" y="840" type="curve" smooth="yes"/>
      <point x="-66" y="840"/>
      <point x="-120" y="786"/>
      <point x="-120" y="720" type="curve" smooth="yes"/>
      <point x="-120" y="654"/>
      <point x="-66" y="600"/>
      <point x="0" y="600" type="curve" smooth="yes"/>
      <point x="66" y="600"/>
      <point x="120" y="654"/>
    </contour>
  </outline>
</glyph>
<glyph name="uniEF09" format="2">
  <advance width="2640"/>
  <unicode hex="EF09"/>
  <anchor x="1172" y="1407" name="U"/>
  <anchor x="1172" y="0" name="L"/>
  <outline>
    <contour>
      <point x="1320" y="-24" type="curve"/>
      <point x="1342" y="13"/>
      <point x="1403" y="32"/>
      <point x="1480" y="32" type="curve" smooth="yes"/>
      <point x="1522" y="32"/>
      <point x="1598" y="19"/>
      <point x="1608" y="8" type="curve"/>
      <point x="1621" y="24"/>
      <point x="1696" y="43"/>
      <point x="1760" y="43" type="curve" smooth="yes"/>
      <point x="1818" y="43"/>
      <point x="1862" y="38"/>
      <point x="1880" y="27" type="curve"/>
      <point x="1899" y="46"/>
      <point x="1966" y="58"/>
      <point x="2048" y="58" type="curve" smooth="yes"/>
      <point x="2101" y="58"/>
      <point x="2192" y="54"/>
      <point x="2200" y="46" type="curve"/>
      <point x="2211" y="59"/>
      <point x="2469" y="69"/>
      <point x="2600" y="72" type="curve"/>
      <point x="2469" y="74"/>
      <point x="2211" y="83"/>
      <point x="2200" y="98" type="curve"/>
      <point x="2192" y="90"/>
      <point x="2101" y="86"/>
      <point x="2048" y="86" type="curve" smooth="yes"/>
      <point x="1966" y="86"/>
      <point x="1901" y="98"/>
      <point x="1882" y="117" type="curve"/>
      <point x="1864" y="106"/>
      <point x="1818" y="101"/>
      <point x="1760" y="101" type="curve" smooth="yes"/>
      <point x="1696" y="101"/>
      <point x="1621" y="120"/>
      <point x="1608" y="136" type="curve"/>
      <point x="1598" y="125"/>
      <point x="1522" y="112"/>
      <point x="1480" y="112" type="curve" smooth="yes"/>
      <point x="1403" y="112"/>
      <point x="1342" y="131"/>
      <point x="1320" y="168" type="curve"/>
      <point x="1298" y="131"/>
      <point x="1237" y="112"/>
      <point x="1160" y="112" type="curve" smooth="yes"/>
      <point x="1118" y="112"/>
      <point x="1042" y="125"/>
      <point x="1032" y="136" type="curve"/>
      <point x="1019" y="120"/>
      <point x="944" y="101"/>
      <point x="880" y="101" type="curve" smooth="yes"/>
      <point x="822" y="101"/>
      <point x="778" y="106"/>
      <point x="760" y="117" type="curve"/>
      <point x="741" y="98"/>
      <point x="674" y="86"/>
      <point x="592" y="86" type="curve" smooth="yes"/>
      <point x="539" y="86"/>
      <point x="448" y="90"/>
      <point x="440" y="98" type="curve"/>
      <point x="427" y="83"/>
      <point x="173" y="74"/>
      <point x="40" y="72" type="curve"/>
      <point x="173" y="69"/>
      <point x="427" y="59"/>
      <point x="440" y="46" type="curve"/>
      <point x="448" y="54"/>
      <point x="539" y="58"/>
      <point x="592" y="58" type="curve" smooth="yes"/>
      <point x="674" y="58"/>
      <point x="739" y="46"/>
      <point x="758" y="27" type="curve"/>
      <point x="776" y="38"/>
      <point x="822" y="43"/>
      <point x="880" y="43" type="curve" smooth="yes"/>
      <point x="944" y="43"/>
      <point x="1019" y="24"/>
      <point x="1032" y="8" type="curve"/>
      <point x="1042" y="19"/>
      <point x="1118" y="32"/>
      <point x="1160" y="32" type="curve" smooth="yes"/>
      <point x="1237" y="32"/>
      <point x="1298" y="13"/>
    </contour>
  </outline>
</glyph>
<glyph name="i.dotless" format="2">
  <advance width="597"/>
  <outline>
    <contour>
      <point x="220" y="228" type="line"/>
      <point x="220" y="91"/>
      <point x="198" y="38"/>
      <point x="68" y="38" type="curve"/>
      <point x="68" y="0" type="line"/>
      <point x="555" y="0" type="line"/>
      <point x="555" y="38" type="line"/>
      <point x="426" y="38"/>
      <point x="399" y="91"/>
      <point x="399" y="228" type="curve" smooth="yes"/>
      <point x="399" y="1007" type="line"/>
      <point x="346" y="1007" type="line"/>
      <point x="53" y="874" type="line"/>
      <point x="68" y="836" type="line"/>
      <point x="106" y="847"/>
      <point x="137" y="855"/>
      <point x="156" y="855" type="curve" smooth="yes"/>
      <point x="220" y="855"/>
      <point x="220" y="806"/>
      <point x="220" y="692" type="curve" smooth="yes"/>
    </contour>
  </outline>
</glyph>
<glyph name="uni178017B6.dotted" format="2">
  <advance width="2250"/>
  <anchor x="1312" y="1440" name="U"/>
  <anchor x="1312" y="0" name="L"/>
  <anchor x="2062" y="1440" name="U2"/>
  <anchor x="2062" y="0" name="L2"/>
  <anchor x="787" y="1440" name="um"/>
  <anchor x="1555" y="1440" name="um2"/>
  <anchor x="787" y="0" name="lm"/>
  <outline>
    <contour>
      <point x="899" y="115" type="curve" smooth="yes"/>
      <point x="899" y="175"/>
      <point x="846" y="227"/>
      <point x="786" y="227" type="curve" smooth="yes"/>
      <point x="722" y="227"/>
      <point x="674" y="175"/>
      <point x="674" y="115" type="curve" smooth="yes"/>
      <point x="674" y="51"/>
      <point x="722" y="2"/>
      <point x="786" y="2" type="curve" smooth="yes"/>
      <point x="846" y="2"/>
      <point x="899" y="51"/>
    </contour>
    <contour>
      <point x="224" y="715" type="curve" smooth="yes"/>
      <point x="224" y="651"/>
      <point x="272" y="602"/>
      <point x="336" y="602" type="curve" smooth="yes"/>
      <point x="396" y="602"/>
      <point x="449" y="651"/>
      <point x="449" y="715" type="curve" smooth="yes"/>
      <point x="449" y="775"/>
      <point x="396" y="827"/>
      <point x="336" y="827" type="curve" smooth="yes"/>
      <point x="272" y="827"/>
      <point x="224" y="775"/>
    </contour>
    <contour>
      <point x="1124" y="715" type="curve" smooth="yes"/>
      <point x="1124" y="651"/>
      <point x="1172" y="602"/>
      <point x="1236" y="602" type="curve" smooth="yes"/>
      <point x="1296" y="602"/>
      <point x="1349" y="651"/>
      <point x="1349" y="715" type="curve" smooth="yes"/>
      <point x="1349" y="775"/>
      <point x="1296" y="827"/>
      <point x="1236" y="827" type="curve" smooth="yes"/>
      <point x="1172" y="827"/>
      <point x="1124" y="775"/>
    </contour>
    <contour>
      <point x="674" y="1315" type="curve" smooth="yes"/>
      <point x="674" y="1251"/>
      <point x="722" y="1202"/>
      <point x="786" y="1202" type="curve" smooth="yes"/>
      <point x="846" y="1202"/>
      <point x="899" y="1251"/>
      <point x="899" y="1315" type="curve" smooth="yes"/>
      <point x="899" y="1375"/>
      <point x="846" y="1427"/>
      <point x="786" y="1427" type="curve" smooth="yes"/>
      <point x="722" y="1427"/>
      <point x="674" y="1375"/>
    </contour>
    <contour>
      <point x="1079" y="996" type="curve" smooth="yes"/>
      <point x="1079" y="932"/>
      <point x="1127" y="884"/>
      <point x="1191" y="884" type="curve" smooth="yes"/>
      <point x="1251" y="884"/>
      <point x="1304" y="932"/>
      <point x="1304" y="996" type="curve" smooth="yes"/>
      <point x="1304" y="1056"/>
      <point x="1251" y="1109"/>
      <point x="1191" y="1109" type="curve" smooth="yes"/>
      <point x="1127" y="1109"/>
      <point x="1079" y="1056"/>
    </contour>
    <contour>
      <point x="940" y="1244" type="curve" smooth="yes"/>
      <point x="940" y="1180"/>
      <point x="992" y="1131"/>
      <point x="1052" y="1131" type="curve" smooth="yes"/>
      <point x="1116" y="1131"/>
      <point x="1165" y="1180"/>
      <point x="1165" y="1244" type="curve" smooth="yes"/>
      <point x="1165" y="1304"/>
      <point x="1116" y="1356"/>
      <point x="1052" y="1356" type="curve" smooth="yes"/>
      <point x="992" y="1356"/>
      <point x="940" y="1304"/>
    </contour>
    <contour>
      <point x="947" y="186" type="curve" smooth="yes"/>
      <point x="947" y="122"/>
      <point x="996" y="74"/>
      <point x="1060" y="74" type="curve" smooth="yes"/>
      <point x="1120" y="74"/>
      <point x="1172" y="122"/>
      <point x="1172" y="186" type="curve" smooth="yes"/>
      <point x="1172" y="246"/>
      <point x="1120" y="299"/>
      <point x="1060" y="299" type="curve" smooth="yes"/>
      <point x="996" y="299"/>
      <point x="947" y="246"/>
    </contour>
    <contour>
      <point x="1079" y="434" type="curve" smooth="yes"/>
      <point x="1079" y="370"/>
      <point x="1131" y="321"/>
      <point x="1191" y="321" type="curve" smooth="yes"/>
      <point x="1255" y="321"/>
      <point x="1304" y="370"/>
      <point x="1304" y="434" type="curve" smooth="yes"/>
      <point x="1304" y="494"/>
      <point x="1255" y="546"/>
      <point x="1191" y="546" type="curve" smooth="yes"/>
      <point x="1131" y="546"/>
      <point x="1079" y="494"/>
    </contour>
    <contour>
      <point x="501" y="434" type="curve" smooth="yes"/>
      <point x="501" y="497"/>
      <point x="452" y="546"/>
      <point x="389" y="546" type="curve" smooth="yes"/>
      <point x="329" y="546"/>
      <point x="276" y="497"/>
      <point x="276" y="434" type="curve" smooth="yes"/>
      <point x="276" y="374"/>
      <point x="329" y="321"/>
      <point x="389" y="321" type="curve" smooth="yes"/>
      <point x="452" y="321"/>
      <point x="501" y="374"/>
    </contour>
    <contour>
      <point x="632" y="186" type="curve" smooth="yes"/>
      <point x="632" y="250"/>
      <point x="580" y="299"/>
      <point x="520" y="299" type="curve" smooth="yes"/>
      <point x="456" y="299"/>
      <point x="407" y="250"/>
      <point x="407" y="186" type="curve" smooth="yes"/>
      <point x="407" y="126"/>
      <point x="456" y="74"/>
      <point x="520" y="74" type="curve" smooth="yes"/>
      <point x="580" y="74"/>
      <point x="632" y="126"/>
    </contour>
    <contour>
      <point x="632" y="1244" type="curve" smooth="yes"/>
      <point x="632" y="1307"/>
      <point x="584" y="1356"/>
      <point x="520" y="1356" type="curve" smooth="yes"/>
      <point x="460" y="1356"/>
      <point x="407" y="1307"/>
      <point x="407" y="1244" type="curve" smooth="yes"/>
      <point x="407" y="1184"/>
      <point x="460" y="1131"/>
      <point x="520" y="1131" type="curve" smooth="yes"/>
      <point x="584" y="1131"/>
      <point x="632" y="1184"/>
    </contour>
    <contour>
      <point x="501" y="996" type="curve" smooth="yes"/>
      <point x="501" y="1060"/>
      <point x="449" y="1109"/>
      <point x="389" y="1109" type="curve" smooth="yes"/>
      <point x="325" y="1109"/>
      <point x="276" y="1060"/>
      <point x="276" y="996" type="curve" smooth="yes"/>
      <point x="276" y="936"/>
      <point x="325" y="884"/>
      <point x="389" y="884" type="curve" smooth="yes"/>
      <point x="449" y="884"/>
      <point x="501" y="936"/>
    </contour>
    <contour>
      <point x="1252" y="1178" type="line"/>
      <point x="1324" y="1247"/>
      <point x="1410" y="1290"/>
      <point x="1545" y="1290" type="curve" smooth="yes"/>
      <point x="1664" y="1290"/>
      <point x="1762" y="1197"/>
      <point x="1762" y="1128" type="curve" smooth="yes"/>
      <point x="1762" y="0" type="line"/>
      <point x="2062" y="0" type="line"/>
      <point x="2062" y="1166" type="line" smooth="yes"/>
      <point x="2062" y="1264"/>
      <point x="1817" y="1440"/>
      <point x="1555" y="1440" type="curve" smooth="yes"/>
      <point x="1375" y="1440"/>
      <point x="1237" y="1328"/>
      <point x="1174" y="1260" type="curve"/>
    </contour>
  </outline>
</glyph>
<glyph name="uni178617B6" format="2">
  <advance width="2288"/>
  <anchor x="1350" y="1440" name="U"/>
  <anchor x="1350" y="0" name="L"/>
  <anchor x="825" y="1440" name="um"/>
  <anchor x="2100" y="1440" name="U2"/>
  <anchor x="2100" y="0" name="L2"/>
  <anchor x="825" y="0" name="lm"/>
  <anchor x="1575" y="1440" name="um2"/>
  <outline>
    <contour>
      <point x="1350" y="217" type="curve" smooth="yes"/>
      <point x="1350" y="866" type="line"/>
      <point x="1320" y="953"/>
      <point x="1196" y="975"/>
      <point x="1110" y="975" type="curve"/>
      <point x="911" y="938"/>
      <point x="825" y="773"/>
      <point x="825" y="683" type="curve" smooth="yes"/>
      <point x="825" y="573"/>
      <point x="941" y="520"/>
      <point x="1050" y="505" type="curve"/>
      <point x="1050" y="251" type="line" smooth="yes"/>
      <point x="1050" y="202"/>
      <point x="1042" y="169"/>
      <point x="1016" y="169" type="curve" smooth="yes"/>
      <point x="911" y="169"/>
      <point x="769" y="446"/>
      <point x="600" y="469" type="curve"/>
      <point x="600" y="975" type="line"/>
      <point x="352" y="986"/>
      <point x="300" y="1054"/>
      <point x="300" y="1099" type="curve" smooth="yes"/>
      <point x="300" y="1222"/>
      <point x="521" y="1234"/>
      <point x="566" y="1234" type="curve" smooth="yes"/>
      <point x="750" y="1234"/>
      <point x="941" y="1189"/>
      <point x="1050" y="1144" type="curve"/>
      <point x="1166" y="1215"/>
      <point x="1256" y="1252"/>
      <point x="1410" y="1252" type="curve" smooth="yes"/>
      <point x="1594" y="1252"/>
      <point x="1800" y="1140"/>
      <point x="1800" y="1091" type="curve" smooth="yes"/>
      <point x="1800" y="0" type="line"/>
      <point x="2100" y="0" type="line"/>
      <point x="2100" y="1166" type="line" smooth="yes"/>
      <point x="2100" y="1264"/>
      <point x="1747" y="1440"/>
      <point x="1410" y="1440" type="curve" smooth="yes"/>
      <point x="1237" y="1440"/>
      <point x="1147" y="1406"/>
      <point x="1050" y="1350" type="curve"/>
      <point x="922" y="1406"/>
      <point x="746" y="1440"/>
      <point x="525" y="1440" type="curve" smooth="yes"/>
      <point x="330" y="1440"/>
      <point x="150" y="1324"/>
      <point x="150" y="1144" type="curve" smooth="yes"/>
      <point x="150" y="1041"/>
      <point x="220" y="984"/>
      <point x="300" y="955" type="curve"/>
      <point x="300" y="469" type="line"/>
      <point x="191" y="454"/>
      <point x="75" y="356"/>
      <point x="75" y="236" type="curve" smooth="yes"/>
      <point x="75" y="146"/>
      <point x="176" y="37"/>
      <point x="360" y="0" type="curve"/>
      <point x="446" y="0"/>
      <point x="570" y="22"/>
      <point x="600" y="109" type="curve"/>
      <point x="600" y="300" type="line"/>
      <point x="716" y="281"/>
      <point x="829" y="0"/>
      <point x="1042" y="0" type="curve" smooth="yes"/>
      <point x="1256" y="0"/>
      <point x="1350" y="116"/>
    </contour>
    <contour>
      <point x="930" y="683" type="curve" smooth="yes"/>
      <point x="930" y="734"/>
      <point x="997" y="810"/>
      <point x="1050" y="825" type="curve"/>
      <point x="1050" y="591" type="line"/>
      <point x="1002" y="593"/>
      <point x="930" y="628"/>
    </contour>
    <contour>
      <point x="214" y="244" type="curve" smooth="yes"/>
      <point x="214" y="289"/>
      <point x="255" y="325"/>
      <point x="300" y="330" type="curve"/>
      <point x="300" y="149" type="line"/>
      <point x="259" y="160"/>
      <point x="214" y="199"/>
    </contour>
  </outline>
</glyph>
<glyph name="uni178917B6.alt" format="2">
  <advance width="2888"/>
  <anchor x="1950" y="1440" name="U"/>
  <anchor x="1950" y="0" name="L"/>
  <anchor x="1481" y="1440" name="um"/>
  <anchor x="2700" y="1440" name="U2"/>
  <anchor x="2700" y="0" name="L2"/>
  <anchor x="1083" y="0" name="lm"/>
  <anchor x="2175" y="1440" name="um2"/>
  <outline>
    <contour>
      <point x="262" y="1170" type="curve" smooth="yes"/>
      <point x="262" y="106" type="line"/>
      <point x="292" y="19"/>
      <point x="416" y="-3"/>
      <point x="502" y="-3" type="curve"/>
      <point x="701" y="34"/>
      <point x="787" y="199"/>
      <point x="787" y="289" type="curve" smooth="yes"/>
      <point x="787" y="399"/>
      <point x="671" y="452"/>
      <point x="562" y="467" type="curve"/>
      <point x="562" y="1125" type="line" smooth="yes"/>
      <point x="562" y="1159"/>
      <point x="570" y="1230"/>
      <point x="589" y="1230" type="curve" smooth="yes"/>
      <point x="622" y="1230"/>
      <point x="776" y="1072"/>
      <point x="787" y="1072" type="curve" smooth="yes"/>
      <point x="799" y="1072"/>
      <point x="952" y="1234"/>
      <point x="986" y="1234" type="curve" smooth="yes"/>
      <point x="1005" y="1234"/>
      <point x="1012" y="1159"/>
      <point x="1012" y="1125" type="curve" smooth="yes"/>
      <point x="1012" y="0" type="line"/>
      <point x="1312" y="0" type="line"/>
      <point x="1312" y="1215" type="line"/>
      <point x="1339" y="1264"/>
      <point x="1395" y="1305"/>
      <point x="1481" y="1305" type="curve" smooth="yes"/>
      <point x="1567" y="1305"/>
      <point x="1650" y="1241"/>
      <point x="1650" y="1159" type="curve" smooth="yes"/>
      <point x="1650" y="0" type="line"/>
      <point x="1950" y="0" type="line"/>
      <point x="1950" y="1185" type="line"/>
      <point x="1984" y="1237"/>
      <point x="2062" y="1309"/>
      <point x="2212" y="1309" type="curve" smooth="yes"/>
      <point x="2321" y="1309"/>
      <point x="2400" y="1196"/>
      <point x="2400" y="1147" type="curve" smooth="yes"/>
      <point x="2400" y="0" type="line"/>
      <point x="2700" y="0" type="line"/>
      <point x="2700" y="1166" type="line" smooth="yes"/>
      <point x="2700" y="1264"/>
      <point x="2475" y="1440"/>
      <point x="2212" y="1440" type="curve" smooth="yes"/>
      <point x="2073" y="1440"/>
      <point x="1953" y="1366"/>
      <point x="1889" y="1303" type="curve"/>
      <point x="1802" y="1385"/>
      <point x="1635" y="1440"/>
      <point x="1481" y="1440" type="curve" smooth="yes"/>
      <point x="1365" y="1440"/>
      <point x="1264" y="1387"/>
      <point x="1192" y="1331" type="curve"/>
      <point x="1147" y="1372"/>
      <point x="1087" y="1440"/>
      <point x="1031" y="1440" type="curve" smooth="yes"/>
      <point x="954" y="1440"/>
      <point x="842" y="1341"/>
      <point x="787" y="1286" type="curve"/>
      <point x="735" y="1340"/>
      <point x="617" y="1440"/>
      <point x="544" y="1440" type="curve" smooth="yes"/>
      <point x="420" y="1440"/>
      <point x="262" y="1267"/>
    </contour>
    <contour>
      <point x="682" y="289" type="curve" smooth="yes"/>
      <point x="682" y="238"/>
      <point x="615" y="162"/>
      <point x="562" y="147" type="curve"/>
      <point x="562" y="381" type="line"/>
      <point x="610" y="379"/>
      <point x="682" y="344"/>
    </contour>
  </outline>
</glyph>
<glyph name="uni179217B6" format="2">
  <advance width="2250"/>
  <anchor x="1312" y="1440" name="U"/>
  <anchor x="1312" y="0" name="L"/>
  <anchor x="787" y="1440" name="um"/>
  <anchor x="787" y="0" name="lm"/>
  <anchor x="2062" y="0" name="L2"/>
  <anchor x="2062" y="1440" name="U2"/>
  <anchor x="1537" y="1440" name="um2"/>
  <outline>
    <contour>
      <point x="1012" y="489" type="line"/>
      <point x="1012" y="270" type="line" smooth="yes"/>
      <point x="1012" y="225"/>
      <point x="1012" y="199"/>
      <point x="997" y="199" type="curve" smooth="yes"/>
      <point x="960" y="199"/>
      <point x="802" y="326"/>
      <point x="784" y="326" type="curve" smooth="yes"/>
      <point x="765" y="326"/>
      <point x="615" y="199"/>
      <point x="577" y="199" type="curve" smooth="yes"/>
      <point x="562" y="199"/>
      <point x="562" y="229"/>
      <point x="562" y="270" type="curve" smooth="yes"/>
      <point x="562" y="975" type="line"/>
      <point x="315" y="986"/>
      <point x="262" y="1054"/>
      <point x="262" y="1099" type="curve" smooth="yes"/>
      <point x="262" y="1222"/>
      <point x="484" y="1234"/>
      <point x="529" y="1234" type="curve" smooth="yes"/>
      <point x="712" y="1234"/>
      <point x="904" y="1189"/>
      <point x="1012" y="1144" type="curve"/>
      <point x="1129" y="1215"/>
      <point x="1219" y="1252"/>
      <point x="1372" y="1252" type="curve" smooth="yes"/>
      <point x="1556" y="1252"/>
      <point x="1762" y="1140"/>
      <point x="1762" y="1091" type="curve" smooth="yes"/>
      <point x="1762" y="0" type="line"/>
      <point x="2062" y="0" type="line"/>
      <point x="2062" y="1166" type="line" smooth="yes"/>
      <point x="2062" y="1264"/>
      <point x="1710" y="1440"/>
      <point x="1372" y="1440" type="curve" smooth="yes"/>
      <point x="1200" y="1440"/>
      <point x="1110" y="1406"/>
      <point x="1012" y="1350" type="curve"/>
      <point x="885" y="1406"/>
      <point x="709" y="1440"/>
      <point x="487" y="1440" type="curve" smooth="yes"/>
      <point x="292" y="1440"/>
      <point x="112" y="1324"/>
      <point x="112" y="1144" type="curve" smooth="yes"/>
      <point x="112" y="1041"/>
      <point x="182" y="984"/>
      <point x="262" y="955" type="curve"/>
      <point x="262" y="82" type="line" smooth="yes"/>
      <point x="262" y="41"/>
      <point x="322" y="0"/>
      <point x="382" y="0" type="curve" smooth="yes"/>
      <point x="506" y="0" type="line" smooth="yes"/>
      <point x="555" y="0"/>
      <point x="626" y="37"/>
      <point x="671" y="71" type="curve" smooth="yes"/>
      <point x="716" y="105"/>
      <point x="780" y="150"/>
      <point x="787" y="150" type="curve" smooth="yes"/>
      <point x="795" y="150"/>
      <point x="859" y="105"/>
      <point x="904" y="71" type="curve" smooth="yes"/>
      <point x="949" y="37"/>
      <point x="1020" y="0"/>
      <point x="1069" y="0" type="curve" smooth="yes"/>
      <point x="1192" y="0" type="line" smooth="yes"/>
      <point x="1252" y="0"/>
      <point x="1312" y="41"/>
      <point x="1312" y="82" type="curve" smooth="yes"/>
      <point x="1312" y="538" type="line"/>
    </contour>
    <contour>
      <point x="1312" y="391" type="line"/>
      <point x="1312" y="866" type="line"/>
      <point x="1282" y="953"/>
      <point x="1158" y="975"/>
      <point x="1072" y="975" type="curve"/>
      <point x="873" y="938"/>
      <point x="787" y="773"/>
      <point x="787" y="683" type="curve" smooth="yes"/>
      <point x="787" y="573"/>
      <point x="903" y="520"/>
      <point x="1012" y="505" type="curve"/>
      <point x="1012" y="362" type="line"/>
    </contour>
    <contour>
      <point x="892" y="683" type="curve" smooth="yes"/>
      <point x="892" y="734"/>
      <point x="959" y="810"/>
      <point x="1012" y="825" type="curve"/>
      <point x="1012" y="591" type="line"/>
      <point x="964" y="593"/>
      <point x="892" y="628"/>
    </contour>
  </outline>
</glyph>
<glyph name="uni179717B6" format="2">
  <advance width="2288"/>
  <anchor x="1350" y="1440" name="U"/>
  <anchor x="1350" y="0" name="L"/>
  <anchor x="825" y="1440" name="um"/>
  <anchor x="825" y="0" name="lm"/>
  <anchor x="1575" y="1440" name="um2"/>
  <anchor x="2100" y="1440" name="U2"/>
  <anchor x="2100" y="0" name="L2"/>
  <outline>
    <contour>
      <point x="2100" y="0" type="line"/>
      <point x="2100" y="1166" type="line" smooth="yes"/>
      <point x="2100" y="1264"/>
      <point x="1748" y="1440"/>
      <point x="1410" y="1440" type="curve" smooth="yes"/>
      <point x="1238" y="1440"/>
      <point x="1148" y="1406"/>
      <point x="1050" y="1350" type="curve"/>
      <point x="923" y="1406"/>
      <point x="747" y="1440"/>
      <point x="525" y="1440" type="curve" smooth="yes"/>
      <point x="330" y="1440"/>
      <point x="150" y="1324"/>
      <point x="150" y="1144" type="curve" smooth="yes"/>
      <point x="150" y="1046"/>
      <point x="218" y="961"/>
      <point x="300" y="916" type="curve"/>
      <point x="300" y="187" type="line" smooth="yes"/>
      <point x="300" y="181"/>
      <point x="298" y="179"/>
      <point x="294" y="179" type="curve" smooth="yes"/>
      <point x="273" y="179"/>
      <point x="206" y="254"/>
      <point x="206" y="289" type="curve" smooth="yes"/>
      <point x="206" y="326"/>
      <point x="244" y="337"/>
      <point x="244" y="382" type="curve" smooth="yes"/>
      <point x="244" y="401"/>
      <point x="221" y="427"/>
      <point x="187" y="427" type="curve" smooth="yes"/>
      <point x="150" y="427"/>
      <point x="75" y="379"/>
      <point x="75" y="262" type="curve" smooth="yes"/>
      <point x="75" y="180"/>
      <point x="154" y="45"/>
      <point x="360" y="0" type="curve"/>
      <point x="446" y="0"/>
      <point x="570" y="22"/>
      <point x="600" y="109" type="curve"/>
      <point x="600" y="900" type="line" smooth="yes"/>
      <point x="600" y="956"/>
      <point x="731" y="994"/>
      <point x="825" y="994" type="curve" smooth="yes"/>
      <point x="919" y="994"/>
      <point x="1050" y="956"/>
      <point x="1050" y="900" type="curve" smooth="yes"/>
      <point x="1050" y="0" type="line"/>
      <point x="1350" y="0" type="line"/>
      <point x="1350" y="919" type="line" smooth="yes"/>
      <point x="1350" y="1031"/>
      <point x="1050" y="1125"/>
      <point x="825" y="1125" type="curve" smooth="yes"/>
      <point x="661" y="1125"/>
      <point x="459" y="1075"/>
      <point x="360" y="1005" type="curve"/>
      <point x="333" y="1025"/>
      <point x="300" y="1064"/>
      <point x="300" y="1099" type="curve" smooth="yes"/>
      <point x="300" y="1222"/>
      <point x="522" y="1234"/>
      <point x="567" y="1234" type="curve" smooth="yes"/>
      <point x="750" y="1234"/>
      <point x="942" y="1189"/>
      <point x="1050" y="1144" type="curve"/>
      <point x="1167" y="1215"/>
      <point x="1257" y="1252"/>
      <point x="1410" y="1252" type="curve" smooth="yes"/>
      <point x="1594" y="1252"/>
      <point x="1800" y="1140"/>
      <point x="1800" y="1091" type="curve" smooth="yes"/>
      <point x="1800" y="0" type="line"/>
    </contour>
  </outline>
</glyph>
<glyph name="uni179A.spc" format="2">
  <advance width="988"/>
  <anchor x="650" y="1440" name="um"/>
  <anchor x="550" y="0" name="lm"/>
  <anchor x="800" y="1440" name="U2"/>
  <outline>
    <contour>
      <point x="500" y="907" type="curve" smooth="yes"/>
      <point x="500" y="470" type="line"/>
      <point x="391" y="455"/>
      <point x="275" y="402"/>
      <point x="275" y="292" type="curve" smooth="yes"/>
      <point x="275" y="202"/>
      <point x="361" y="37"/>
      <point x="560" y="0" type="curve"/>
      <point x="646" y="0"/>
      <point x="770" y="22"/>
      <point x="800" y="109" type="curve"/>
      <point x="800" y="870" type="line" smooth="yes"/>
      <point x="800" y="937"/>
      <point x="729" y="997"/>
      <point x="612" y="1057" type="curve" smooth="yes"/>
      <point x="560" y="1084"/>
      <point x="459" y="1144"/>
      <point x="459" y="1174" type="curve" smooth="yes"/>
      <point x="459" y="1207"/>
      <point x="481" y="1215"/>
      <point x="526" y="1215" type="curve" smooth="yes"/>
      <point x="616" y="1215"/>
      <point x="699" y="1125"/>
      <point x="777" y="1125" type="curve" smooth="yes"/>
      <point x="894" y="1125"/>
      <point x="957" y="1192"/>
      <point x="969" y="1399" type="curve"/>
      <point x="942" y="1365"/>
      <point x="871" y="1350"/>
      <point x="826" y="1350" type="curve" smooth="yes"/>
      <point x="740" y="1350"/>
      <point x="680" y="1440"/>
      <point x="549" y="1440" type="curve" smooth="yes"/>
      <point x="425" y="1440"/>
      <point x="331" y="1301"/>
      <point x="331" y="1181" type="curve" smooth="yes"/>
      <point x="331" y="1121"/>
      <point x="357" y="1072"/>
      <point x="451" y="1009" type="curve" smooth="yes"/>
      <point x="474" y="994"/>
      <point x="500" y="964"/>
    </contour>
    <contour>
      <point x="380" y="292" type="curve" smooth="yes"/>
      <point x="380" y="347"/>
      <point x="452" y="382"/>
      <point x="500" y="384" type="curve"/>
      <point x="500" y="150" type="line"/>
      <point x="447" y="165"/>
      <point x="380" y="241"/>
    </contour>
  </outline>
</glyph>
<glyph name="uni179A17B6" format="2">
  <advance width="1538"/>
  <anchor x="600" y="1440" name="U"/>
  <anchor x="350" y="0" name="lm"/>
  <anchor x="450" y="1440" name="um"/>
  <anchor x="825" y="1440" name="um2"/>
  <anchor x="1350" y="1440" name="U2"/>
  <anchor x="1350" y="0" name="L2"/>
  <outline>
    <contour>
      <point x="600" y="109" type="curve"/>
      <point x="600" y="870" type="line" smooth="yes"/>
      <point x="600" y="937"/>
      <point x="529" y="997"/>
      <point x="412" y="1057" type="curve" smooth="yes"/>
      <point x="360" y="1084"/>
      <point x="259" y="1144"/>
      <point x="259" y="1174" type="curve" smooth="yes"/>
      <point x="259" y="1226"/>
      <point x="390" y="1309"/>
      <point x="649" y="1309" type="curve" smooth="yes"/>
      <point x="870" y="1309"/>
      <point x="1050" y="1196"/>
      <point x="1050" y="1147" type="curve" smooth="yes"/>
      <point x="1050" y="0" type="line"/>
      <point x="1350" y="0" type="line"/>
      <point x="1350" y="1166" type="line" smooth="yes"/>
      <point x="1350" y="1264"/>
      <point x="949" y="1440"/>
      <point x="649" y="1440" type="curve" smooth="yes"/>
      <point x="330" y="1440"/>
      <point x="131" y="1320"/>
      <point x="131" y="1181" type="curve" smooth="yes"/>
      <point x="131" y="1121"/>
      <point x="157" y="1072"/>
      <point x="251" y="1009" type="curve" smooth="yes"/>
      <point x="274" y="994"/>
      <point x="300" y="964"/>
      <point x="300" y="907" type="curve" smooth="yes"/>
      <point x="300" y="470" type="line"/>
      <point x="191" y="455"/>
      <point x="75" y="402"/>
      <point x="75" y="292" type="curve" smooth="yes"/>
      <point x="75" y="202"/>
      <point x="161" y="37"/>
      <point x="360" y="0" type="curve"/>
      <point x="446" y="0"/>
      <point x="570" y="22"/>
    </contour>
    <contour>
      <point x="180" y="292" type="curve" smooth="yes"/>
      <point x="180" y="347"/>
      <point x="252" y="382"/>
      <point x="300" y="384" type="curve"/>
      <point x="300" y="150" type="line"/>
      <point x="247" y="165"/>
      <point x="180" y="241"/>
    </contour>
  </outline>
</glyph>
<glyph name="uni179B17B6" format="2">
  <advance width="2700"/>
  <anchor x="1762" y="0" name="L"/>
  <anchor x="1762" y="1440" name="U"/>
  <anchor x="1312" y="1440" name="um"/>
  <anchor x="1021" y="0" name="lm"/>
  <anchor x="1987" y="1440" name="um2"/>
  <anchor x="2512" y="1440" name="U2"/>
  <anchor x="2512" y="0" name="L2"/>
  <outline>
    <contour>
      <point x="562" y="491" type="line"/>
      <point x="562" y="1234" type="line" smooth="yes"/>
      <point x="562" y="1279"/>
      <point x="652" y="1309"/>
      <point x="712" y="1309" type="curve" smooth="yes"/>
      <point x="772" y="1309"/>
      <point x="862" y="1279"/>
      <point x="862" y="1234" type="curve" smooth="yes"/>
      <point x="862" y="187" type="line" smooth="yes"/>
      <point x="862" y="94"/>
      <point x="1106" y="0"/>
      <point x="1312" y="0" type="curve" smooth="yes"/>
      <point x="1519" y="0"/>
      <point x="1762" y="94"/>
      <point x="1762" y="187" type="curve" smooth="yes"/>
      <point x="1762" y="870" type="line" smooth="yes"/>
      <point x="1762" y="937"/>
      <point x="1691" y="997"/>
      <point x="1575" y="1057" type="curve" smooth="yes"/>
      <point x="1522" y="1084"/>
      <point x="1421" y="1144"/>
      <point x="1421" y="1174" type="curve" smooth="yes"/>
      <point x="1421" y="1226"/>
      <point x="1552" y="1309"/>
      <point x="1811" y="1309" type="curve" smooth="yes"/>
      <point x="2032" y="1309"/>
      <point x="2212" y="1196"/>
      <point x="2212" y="1147" type="curve" smooth="yes"/>
      <point x="2212" y="0" type="line"/>
      <point x="2512" y="0" type="line"/>
      <point x="2512" y="1166" type="line" smooth="yes"/>
      <point x="2512" y="1264"/>
      <point x="2111" y="1440"/>
      <point x="1811" y="1440" type="curve" smooth="yes"/>
      <point x="1492" y="1440"/>
      <point x="1294" y="1320"/>
      <point x="1294" y="1181" type="curve" smooth="yes"/>
      <point x="1294" y="1121"/>
      <point x="1320" y="1072"/>
      <point x="1414" y="1009" type="curve" smooth="yes"/>
      <point x="1436" y="994"/>
      <point x="1462" y="964"/>
      <point x="1462" y="907" type="curve" smooth="yes"/>
      <point x="1462" y="206" type="line" smooth="yes"/>
      <point x="1462" y="161"/>
      <point x="1372" y="131"/>
      <point x="1312" y="131" type="curve" smooth="yes"/>
      <point x="1252" y="131"/>
      <point x="1162" y="161"/>
      <point x="1162" y="206" type="curve" smooth="yes"/>
      <point x="1162" y="1252" type="line" smooth="yes"/>
      <point x="1162" y="1346"/>
      <point x="919" y="1440"/>
      <point x="712" y="1440" type="curve" smooth="yes"/>
      <point x="506" y="1440"/>
      <point x="262" y="1346"/>
      <point x="262" y="1252" type="curve" smooth="yes"/>
      <point x="262" y="374" type="line"/>
    </contour>
    <contour>
      <point x="262" y="581" type="line"/>
      <point x="262" y="106" type="line"/>
      <point x="292" y="19"/>
      <point x="416" y="-3"/>
      <point x="502" y="-3" type="curve"/>
      <point x="701" y="34"/>
      <point x="787" y="199"/>
      <point x="787" y="289" type="curve" smooth="yes"/>
      <point x="787" y="399"/>
      <point x="671" y="452"/>
      <point x="562" y="467" type="curve"/>
      <point x="562" y="610" type="line"/>
    </contour>
    <contour>
      <point x="682" y="289" type="curve" smooth="yes"/>
      <point x="682" y="238"/>
      <point x="615" y="162"/>
      <point x="562" y="147" type="curve"/>
      <point x="562" y="381" type="line"/>
      <point x="610" y="379"/>
      <point x="682" y="344"/>
    </contour>
  </outline>
</glyph>
<glyph name="uni179D17B6" format="2">
  <advance width="2250"/>
  <anchor x="1312" y="0" name="L"/>
  <anchor x="1312" y="1440" name="U"/>
  <anchor x="787" y="1440" name="um"/>
  <anchor x="787" y="0" name="lm"/>
  <anchor x="2062" y="0" name="L2"/>
  <anchor x="2062" y="1440" name="U2"/>
  <anchor x="1537" y="1440" name="um2"/>
  <outline>
    <contour>
      <point x="562" y="382" type="curve"/>
      <point x="562" y="900" type="line" smooth="yes"/>
      <point x="562" y="956"/>
      <point x="694" y="994"/>
      <point x="787" y="994" type="curve" smooth="yes"/>
      <point x="881" y="994"/>
      <point x="1012" y="956"/>
      <point x="1012" y="900" type="curve" smooth="yes"/>
      <point x="1012" y="586" type="line"/>
      <point x="983" y="590"/>
      <point x="967" y="604"/>
      <point x="967" y="626" type="curve" smooth="yes"/>
      <point x="967" y="645"/>
      <point x="993" y="671"/>
      <point x="1011" y="682" type="curve"/>
      <point x="993" y="694"/>
      <point x="964" y="701"/>
      <point x="926" y="701" type="curve" smooth="yes"/>
      <point x="851" y="701"/>
      <point x="776" y="649"/>
      <point x="776" y="577" type="curve" smooth="yes"/>
      <point x="776" y="472"/>
      <point x="859" y="401"/>
      <point x="1012" y="401" type="curve"/>
      <point x="1012" y="0" type="line"/>
      <point x="1312" y="0" type="line"/>
      <point x="1312" y="475" type="line"/>
      <point x="1429" y="544"/>
      <point x="1500" y="679"/>
      <point x="1500" y="709" type="curve" smooth="yes"/>
      <point x="1500" y="712"/>
      <point x="1496" y="716"/>
      <point x="1492" y="716" type="curve" smooth="yes"/>
      <point x="1476" y="716"/>
      <point x="1373" y="667"/>
      <point x="1312" y="638" type="curve"/>
      <point x="1312" y="919" type="line" smooth="yes"/>
      <point x="1312" y="1031"/>
      <point x="1012" y="1125"/>
      <point x="787" y="1125" type="curve" smooth="yes"/>
      <point x="623" y="1125"/>
      <point x="421" y="1075"/>
      <point x="322" y="1005" type="curve"/>
      <point x="295" y="1025"/>
      <point x="262" y="1064"/>
      <point x="262" y="1099" type="curve" smooth="yes"/>
      <point x="262" y="1222"/>
      <point x="484" y="1234"/>
      <point x="529" y="1234" type="curve" smooth="yes"/>
      <point x="712" y="1234"/>
      <point x="904" y="1189"/>
      <point x="1012" y="1144" type="curve"/>
      <point x="1129" y="1215"/>
      <point x="1219" y="1252"/>
      <point x="1372" y="1252" type="curve" smooth="yes"/>
      <point x="1556" y="1252"/>
      <point x="1762" y="1140"/>
      <point x="1762" y="1091" type="curve" smooth="yes"/>
      <point x="1762" y="0" type="line"/>
      <point x="2062" y="0" type="line"/>
      <point x="2062" y="1166" type="line" smooth="yes"/>
      <point x="2062" y="1264"/>
      <point x="1710" y="1440"/>
      <point x="1372" y="1440" type="curve" smooth="yes"/>
      <point x="1200" y="1440"/>
      <point x="1110" y="1406"/>
      <point x="1012" y="1350" type="curve"/>
      <point x="885" y="1406"/>
      <point x="709" y="1440"/>
      <point x="487" y="1440" type="curve" smooth="yes"/>
      <point x="292" y="1440"/>
      <point x="112" y="1324"/>
      <point x="112" y="1144" type="curve" smooth="yes"/>
      <point x="112" y="1046"/>
      <point x="180" y="961"/>
      <point x="262" y="916" type="curve"/>
      <point x="262" y="0" type="line"/>
      <point x="562" y="0" type="line"/>
      <point x="619" y="169"/>
      <point x="656" y="232"/>
      <point x="716" y="235" type="curve" smooth="yes"/>
      <point x="806" y="240"/>
      <point x="866" y="292"/>
      <point x="866" y="337" type="curve" smooth="yes"/>
      <point x="866" y="379"/>
      <point x="836" y="435"/>
      <point x="716" y="435" type="curve" smooth="yes"/>
      <point x="660" y="435"/>
      <point x="604" y="412"/>
    </contour>
  </outline>
</glyph>
<glyph name="uni179E17C5.right" format="2">
  <advance width="2250"/>
  <anchor x="1312" y="0" name="L"/>
  <anchor x="1312" y="1440" name="U"/>
  <anchor x="787" y="1440" name="um"/>
  <anchor x="787" y="0" name="lm"/>
  <anchor x="2062" y="0" name="L2"/>
  <anchor x="2062" y="1922" name="U2"/>
  <anchor x="1537" y="1922" name="um2"/>
  <outline>
    <contour>
      <point x="2062" y="1166" type="line" smooth="yes"/>
      <point x="2062" y="1189"/>
      <point x="2039" y="1217"/>
      <point x="2000" y="1246" type="curve"/>
      <point x="2066" y="1355"/>
      <point x="2100" y="1496"/>
      <point x="2100" y="1609" type="curve" smooth="yes"/>
      <point x="2100" y="1695"/>
      <point x="2077" y="1800"/>
      <point x="1939" y="1897" type="curve"/>
      <point x="1894" y="1924"/>
      <point x="1845" y="1935"/>
      <point x="1804" y="1935" type="curve" smooth="yes"/>
      <point x="1702" y="1935"/>
      <point x="1657" y="1909"/>
      <point x="1657" y="1841" type="curve" smooth="yes"/>
      <point x="1657" y="1815"/>
      <point x="1672" y="1770"/>
      <point x="1722" y="1730" type="curve" smooth="yes"/>
      <point x="1774" y="1687"/>
      <point x="1800" y="1635"/>
      <point x="1800" y="1556" type="curve" smooth="yes"/>
      <point x="1800" y="1501"/>
      <point x="1778" y="1403"/>
      <point x="1760" y="1363" type="curve"/>
      <point x="1635" y="1408"/>
      <point x="1489" y="1440"/>
      <point x="1361" y="1440" type="curve" smooth="yes"/>
      <point x="1042" y="1440"/>
      <point x="844" y="1320"/>
      <point x="844" y="1181" type="curve" smooth="yes"/>
      <point x="844" y="1121"/>
      <point x="870" y="1072"/>
      <point x="964" y="1009" type="curve" smooth="yes"/>
      <point x="986" y="994"/>
      <point x="1012" y="964"/>
      <point x="1012" y="907" type="curve" smooth="yes"/>
      <point x="1012" y="586" type="line"/>
      <point x="983" y="590"/>
      <point x="967" y="604"/>
      <point x="967" y="626" type="curve" smooth="yes"/>
      <point x="967" y="645"/>
      <point x="993" y="671"/>
      <point x="1011" y="682" type="curve"/>
      <point x="993" y="694"/>
      <point x="964" y="701"/>
      <point x="926" y="701" type="curve" smooth="yes"/>
      <point x="851" y="701"/>
      <point x="776" y="649"/>
      <point x="776" y="577" type="curve" smooth="yes"/>
      <point x="776" y="472"/>
      <point x="859" y="401"/>
      <point x="1012" y="401" type="curve"/>
      <point x="1012" y="225" type="line" smooth="yes"/>
      <point x="1012" y="169"/>
      <point x="881" y="131"/>
      <point x="787" y="131" type="curve" smooth="yes"/>
      <point x="694" y="131"/>
      <point x="562" y="169"/>
      <point x="562" y="225" type="curve" smooth="yes"/>
      <point x="562" y="870" type="line" smooth="yes"/>
      <point x="562" y="937"/>
      <point x="491" y="997"/>
      <point x="375" y="1057" type="curve" smooth="yes"/>
      <point x="322" y="1084"/>
      <point x="221" y="1144"/>
      <point x="221" y="1174" type="curve" smooth="yes"/>
      <point x="221" y="1207"/>
      <point x="244" y="1215"/>
      <point x="289" y="1215" type="curve" smooth="yes"/>
      <point x="379" y="1215"/>
      <point x="461" y="1125"/>
      <point x="540" y="1125" type="curve" smooth="yes"/>
      <point x="656" y="1125"/>
      <point x="720" y="1192"/>
      <point x="731" y="1399" type="curve"/>
      <point x="705" y="1365"/>
      <point x="634" y="1350"/>
      <point x="589" y="1350" type="curve" smooth="yes"/>
      <point x="502" y="1350"/>
      <point x="442" y="1440"/>
      <point x="311" y="1440" type="curve" smooth="yes"/>
      <point x="187" y="1440"/>
      <point x="94" y="1301"/>
      <point x="94" y="1181" type="curve" smooth="yes"/>
      <point x="94" y="1121"/>
      <point x="120" y="1072"/>
      <point x="214" y="1009" type="curve" smooth="yes"/>
      <point x="236" y="994"/>
      <point x="262" y="964"/>
      <point x="262" y="907" type="curve" smooth="yes"/>
      <point x="262" y="206" type="line" smooth="yes"/>
      <point x="262" y="94"/>
      <point x="562" y="0"/>
      <point x="787" y="0" type="curve" smooth="yes"/>
      <point x="1012" y="0"/>
      <point x="1312" y="94"/>
      <point x="1312" y="206" type="curve" smooth="yes"/>
      <point x="1312" y="475" type="line"/>
      <point x="1429" y="544"/>
      <point x="1500" y="679"/>
      <point x="1500" y="709" type="curve" smooth="yes"/>
      <point x="1500" y="712"/>
      <point x="1496" y="716"/>
      <point x="1492" y="716" type="curve" smooth="yes"/>
      <point x="1476" y="716"/>
      <point x="1373" y="667"/>
      <point x="1312" y="638" type="curve"/>
      <point x="1312" y="870" type="line" smooth="yes"/>
      <point x="1312" y="937"/>
      <point x="1241" y="997"/>
      <point x="1125" y="1057" type="curve" smooth="yes"/>
      <point x="1072" y="1084"/>
      <point x="971" y="1144"/>
      <point x="971" y="1174" type="curve" smooth="yes"/>
      <point x="971" y="1226"/>
      <point x="1102" y="1309"/>
      <point x="1361" y="1309" type="curve" smooth="yes"/>
      <point x="1582" y="1309"/>
      <point x="1762" y="1196"/>
      <point x="1762" y="1147" type="curve" smooth="yes"/>
      <point x="1762" y="0" type="line"/>
      <point x="2062" y="0" type="line"/>
    </contour>
  </outline>
</glyph>
<glyph name="uni179F17C5.right" format="2">
  <advance width="2700"/>
  <anchor x="1762" y="0" name="L"/>
  <anchor x="1762" y="1440" name="U"/>
  <anchor x="1312" y="1440" name="um"/>
  <anchor x="2512" y="0" name="L2"/>
  <anchor x="1021" y="0" name="lm"/>
  <anchor x="1987" y="1922" name="um2"/>
  <anchor x="2512" y="1922" name="U2"/>
  <outline>
    <contour>
      <point x="562" y="488" type="line"/>
      <point x="562" y="712" type="line" smooth="yes"/>
      <point x="562" y="757"/>
      <point x="652" y="787"/>
      <point x="712" y="787" type="curve" smooth="yes"/>
      <point x="772" y="787"/>
      <point x="862" y="757"/>
      <point x="862" y="712" type="curve" smooth="yes"/>
      <point x="862" y="187" type="line" smooth="yes"/>
      <point x="862" y="94"/>
      <point x="1106" y="0"/>
      <point x="1312" y="0" type="curve" smooth="yes"/>
      <point x="1519" y="0"/>
      <point x="1762" y="94"/>
      <point x="1762" y="187" type="curve" smooth="yes"/>
      <point x="1762" y="870" type="line" smooth="yes"/>
      <point x="1762" y="937"/>
      <point x="1691" y="997"/>
      <point x="1575" y="1057" type="curve" smooth="yes"/>
      <point x="1522" y="1084"/>
      <point x="1421" y="1144"/>
      <point x="1421" y="1174" type="curve" smooth="yes"/>
      <point x="1421" y="1226"/>
      <point x="1552" y="1309"/>
      <point x="1811" y="1309" type="curve" smooth="yes"/>
      <point x="2032" y="1309"/>
      <point x="2212" y="1196"/>
      <point x="2212" y="1147" type="curve" smooth="yes"/>
      <point x="2212" y="0" type="line"/>
      <point x="2512" y="0" type="line"/>
      <point x="2512" y="1166" type="line" smooth="yes"/>
      <point x="2512" y="1189"/>
      <point x="2489" y="1217"/>
      <point x="2450" y="1246" type="curve"/>
      <point x="2516" y="1355"/>
      <point x="2550" y="1496"/>
      <point x="2550" y="1609" type="curve" smooth="yes"/>
      <point x="2550" y="1695"/>
      <point x="2527" y="1800"/>
      <point x="2389" y="1897" type="curve"/>
      <point x="2344" y="1924"/>
      <point x="2295" y="1935"/>
      <point x="2254" y="1935" type="curve" smooth="yes"/>
      <point x="2152" y="1935"/>
      <point x="2107" y="1909"/>
      <point x="2107" y="1841" type="curve" smooth="yes"/>
      <point x="2107" y="1815"/>
      <point x="2122" y="1770"/>
      <point x="2172" y="1730" type="curve" smooth="yes"/>
      <point x="2224" y="1687"/>
      <point x="2250" y="1635"/>
      <point x="2250" y="1556" type="curve" smooth="yes"/>
      <point x="2250" y="1501"/>
      <point x="2228" y="1403"/>
      <point x="2210" y="1363" type="curve"/>
      <point x="2085" y="1408"/>
      <point x="1939" y="1440"/>
      <point x="1811" y="1440" type="curve" smooth="yes"/>
      <point x="1492" y="1440"/>
      <point x="1294" y="1320"/>
      <point x="1294" y="1181" type="curve" smooth="yes"/>
      <point x="1294" y="1121"/>
      <point x="1320" y="1072"/>
      <point x="1414" y="1009" type="curve" smooth="yes"/>
      <point x="1436" y="994"/>
      <point x="1462" y="964"/>
      <point x="1462" y="907" type="curve" smooth="yes"/>
      <point x="1462" y="206" type="line" smooth="yes"/>
      <point x="1462" y="161"/>
      <point x="1372" y="131"/>
      <point x="1312" y="131" type="curve" smooth="yes"/>
      <point x="1252" y="131"/>
      <point x="1162" y="161"/>
      <point x="1162" y="206" type="curve" smooth="yes"/>
      <point x="1162" y="731" type="line" smooth="yes"/>
      <point x="1162" y="803"/>
      <point x="1016" y="877"/>
      <point x="855" y="906" type="curve"/>
      <point x="834" y="959"/>
      <point x="770" y="1008"/>
      <point x="675" y="1057" type="curve" smooth="yes"/>
      <point x="622" y="1084"/>
      <point x="521" y="1144"/>
      <point x="521" y="1174" type="curve" smooth="yes"/>
      <point x="521" y="1207"/>
      <point x="544" y="1215"/>
      <point x="589" y="1215" type="curve" smooth="yes"/>
      <point x="679" y="1215"/>
      <point x="761" y="1125"/>
      <point x="840" y="1125" type="curve" smooth="yes"/>
      <point x="956" y="1125"/>
      <point x="1020" y="1192"/>
      <point x="1031" y="1399" type="curve"/>
      <point x="1005" y="1365"/>
      <point x="934" y="1350"/>
      <point x="889" y="1350" type="curve" smooth="yes"/>
      <point x="802" y="1350"/>
      <point x="742" y="1440"/>
      <point x="611" y="1440" type="curve" smooth="yes"/>
      <point x="487" y="1440"/>
      <point x="394" y="1301"/>
      <point x="394" y="1181" type="curve" smooth="yes"/>
      <point x="394" y="1121"/>
      <point x="420" y="1072"/>
      <point x="514" y="1009" type="curve" smooth="yes"/>
      <point x="536" y="994"/>
      <point x="562" y="964"/>
      <point x="562" y="907" type="curve"/>
      <point x="570" y="906" type="line"/>
      <point x="408" y="877"/>
      <point x="262" y="804"/>
      <point x="262" y="731" type="curve" smooth="yes"/>
      <point x="262" y="389" type="line"/>
    </contour>
    <contour>
      <point x="262" y="581" type="line"/>
      <point x="262" y="106" type="line"/>
      <point x="292" y="19"/>
      <point x="416" y="-3"/>
      <point x="502" y="-3" type="curve"/>
      <point x="701" y="34"/>
      <point x="787" y="199"/>
      <point x="787" y="289" type="curve" smooth="yes"/>
      <point x="787" y="399"/>
      <point x="671" y="452"/>
      <point x="562" y="467" type="curve"/>
      <point x="562" y="610" type="line"/>
    </contour>
    <contour>
      <point x="682" y="289" type="curve" smooth="yes"/>
      <point x="682" y="238"/>
      <point x="615" y="162"/>
      <point x="562" y="147" type="curve"/>
      <point x="562" y="381" type="line"/>
      <point x="610" y="379"/>
      <point x="682" y="344"/>
    </contour>
  </outline>
</glyph>
<glyph name="uni17BB.low.narrow" format="2">
  <anchor x="-188" y="-713" name="_L"/>
  <outline>
    <contour>
      <point x="-488" y="-1144" type="line" smooth="yes"/>
      <point x="-488" y="-1178"/>
      <point x="-491" y="-1223"/>
      <point x="-525" y="-1238" type="curve"/>
      <point x="-289" y="-1238"/>
      <point x="-188" y="-1226"/>
      <point x="-188" y="-1136" type="curve" smooth="yes"/>
      <point x="-188" y="-893" type="line"/>
      <point x="-199" y="-825"/>
      <point x="-330" y="-806"/>
      <point x="-428" y="-806" type="curve"/>
      <point x="-525" y="-818"/>
      <point x="-578" y="-844"/>
      <point x="-578" y="-915" type="curve" smooth="yes"/>
      <point x="-578" y="-956"/>
      <point x="-536" y="-990"/>
      <point x="-488" y="-1009" type="curve"/>
    </contour>
  </outline>
  <guideline angle="0" x="0" y="-713"/>
</glyph>
<glyph name="uni17C0.rightpart2" format="2">
  <advance width="750"/>
  <anchor x="562" y="1777" name="U"/>
  <anchor x="562" y="-1125" name="L"/>
  <outline>
    <contour>
      <point x="262" y="-919" type="line" smooth="yes"/>
      <point x="262" y="-964"/>
      <point x="97" y="-994"/>
      <point x="37" y="-994" type="curve" smooth="yes"/>
      <point x="-23" y="-994"/>
      <point x="-188" y="-964"/>
      <point x="-188" y="-919" type="curve" smooth="yes"/>
      <point x="-188" y="-848" type="line"/>
      <point x="-488" y="-848" type="line"/>
      <point x="-488" y="-938" type="line" smooth="yes"/>
      <point x="-488" y="-1031"/>
      <point x="-169" y="-1125"/>
      <point x="37" y="-1125" type="curve" smooth="yes"/>
      <point x="244" y="-1125"/>
      <point x="562" y="-1031"/>
      <point x="562" y="-938" type="curve" smooth="yes"/>
      <point x="562" y="870" type="line" smooth="yes"/>
      <point x="562" y="937"/>
      <point x="491" y="997"/>
      <point x="375" y="1057" type="curve" smooth="yes"/>
      <point x="322" y="1084"/>
      <point x="221" y="1144"/>
      <point x="221" y="1174" type="curve" smooth="yes"/>
      <point x="221" y="1207"/>
      <point x="244" y="1215"/>
      <point x="289" y="1215" type="curve" smooth="yes"/>
      <point x="379" y="1215"/>
      <point x="461" y="1125"/>
      <point x="540" y="1125" type="curve" smooth="yes"/>
      <point x="656" y="1125"/>
      <point x="731" y="1215"/>
      <point x="731" y="1380" type="curve" smooth="yes"/>
      <point x="731" y="1732"/>
      <point x="439" y="1777"/>
      <point x="341" y="1777" type="curve" smooth="yes"/>
      <point x="266" y="1777"/>
      <point x="195" y="1759"/>
      <point x="195" y="1691" type="curve" smooth="yes"/>
      <point x="195" y="1631"/>
      <point x="247" y="1594"/>
      <point x="337" y="1571" type="curve" smooth="yes"/>
      <point x="465" y="1537"/>
      <point x="589" y="1494"/>
      <point x="589" y="1350" type="curve"/>
      <point x="502" y="1350"/>
      <point x="442" y="1440"/>
      <point x="311" y="1440" type="curve" smooth="yes"/>
      <point x="187" y="1440"/>
      <point x="94" y="1301"/>
      <point x="94" y="1181" type="curve" smooth="yes"/>
      <point x="94" y="1121"/>
      <point x="120" y="1072"/>
      <point x="214" y="1009" type="curve" smooth="yes"/>
      <point x="236" y="994"/>
      <point x="262" y="964"/>
      <point x="262" y="907" type="curve" smooth="yes"/>
    </contour>
  </outline>
</glyph>
<glyph name="uni17C5.rightpart" format="2">
  <advance width="750"/>
  <anchor x="562" y="1922" name="U"/>
  <anchor x="562" y="0" name="L"/>
  <anchor x="37" y="1922" name="um"/>
  <outline>
    <contour>
      <point x="-248" y="1178" type="line"/>
      <point x="-176" y="1247"/>
      <point x="-90" y="1290"/>
      <point x="45" y="1290" type="curve" smooth="yes"/>
      <point x="164" y="1290"/>
      <point x="262" y="1197"/>
      <point x="262" y="1128" type="curve" smooth="yes"/>
      <point x="262" y="0" type="line"/>
      <point x="562" y="0" type="line"/>
      <point x="562" y="1166" type="line" smooth="yes"/>
      <point x="562" y="1193"/>
      <point x="542" y="1227"/>
      <point x="509" y="1261" type="curve"/>
      <point x="569" y="1368"/>
      <point x="600" y="1501"/>
      <point x="600" y="1609" type="curve" smooth="yes"/>
      <point x="600" y="1695"/>
      <point x="577" y="1800"/>
      <point x="439" y="1897" type="curve"/>
      <point x="394" y="1924"/>
      <point x="345" y="1935"/>
      <point x="304" y="1935" type="curve" smooth="yes"/>
      <point x="202" y="1935"/>
      <point x="157" y="1909"/>
      <point x="157" y="1841" type="curve" smooth="yes"/>
      <point x="157" y="1815"/>
      <point x="172" y="1770"/>
      <point x="222" y="1730" type="curve" smooth="yes"/>
      <point x="274" y="1687"/>
      <point x="300" y="1635"/>
      <point x="300" y="1556" type="curve" smooth="yes"/>
      <point x="300" y="1514"/>
      <point x="287" y="1448"/>
      <point x="273" y="1402" type="curve"/>
      <point x="206" y="1425"/>
      <point x="131" y="1440"/>
      <point x="55" y="1440" type="curve" smooth="yes"/>
      <point x="-125" y="1440"/>
      <point x="-263" y="1328"/>
      <point x="-326" y="1260" type="curve"/>
    </contour>
  </outline>
</glyph>
<glyph name="uni17CA.lower" format="2">
  <anchor x="-188" y="1440" name="_U"/>
  <anchor x="-188" y="1722" name="U"/>
  <anchor x="-713" y="1722" name="um"/>
  <outline>
    <contour>
      <point x="-713" y="1700" type="curve"/>
      <point x="-773" y="1760"/>
      <point x="-863" y="1790"/>
      <point x="-960" y="1790" type="curve" smooth="yes"/>
      <point x="-1095" y="1790"/>
      <point x="-1185" y="1693"/>
      <point x="-1290" y="1693" type="curve" smooth="yes"/>
      <point x="-1328" y="1693"/>
      <point x="-1380" y="1697"/>
      <point x="-1425" y="1749" type="curve"/>
      <point x="-1418" y="1550"/>
      <point x="-1346" y="1528"/>
      <point x="-1226" y="1528" type="curve" smooth="yes"/>
      <point x="-1151" y="1528"/>
      <point x="-1043" y="1610"/>
      <point x="-964" y="1610" type="curve" smooth="yes"/>
      <point x="-885" y="1610"/>
      <point x="-791" y="1592"/>
      <point x="-713" y="1520" type="curve"/>
      <point x="-634" y="1592"/>
      <point x="-578" y="1610"/>
      <point x="-499" y="1610" type="curve" smooth="yes"/>
      <point x="-420" y="1610"/>
      <point x="-311" y="1528"/>
      <point x="-236" y="1528" type="curve" smooth="yes"/>
      <point x="-116" y="1528"/>
      <point x="-45" y="1550"/>
      <point x="-38" y="1749" type="curve"/>
      <point x="-83" y="1697"/>
      <point x="-135" y="1693"/>
      <point x="-173" y="1693" type="curve" smooth="yes"/>
      <point x="-278" y="1693"/>
      <point x="-368" y="1790"/>
      <point x="-503" y="1790" type="curve" smooth="yes"/>
      <point x="-600" y="1790"/>
      <point x="-653" y="1757"/>
    </contour>
  </outline>
</glyph>
<glyph name="uni17CB.narrow" format="2">
  <anchor x="-360" y="1440" name="_um"/>
  <anchor x="-360" y="1917" name="um"/>
  <anchor x="-188" y="1967" name="U"/>
  <outline>
    <contour>
      <point x="-525" y="1850" type="curve" smooth="yes"/>
      <point x="-525" y="1778"/>
      <point x="-439" y="1745"/>
      <point x="-409" y="1741" type="curve"/>
      <point x="-390" y="1741"/>
      <point x="-390" y="1722"/>
      <point x="-390" y="1707" type="curve" smooth="yes"/>
      <point x="-390" y="1636"/>
      <point x="-443" y="1610"/>
      <point x="-443" y="1591" type="curve" smooth="yes"/>
      <point x="-443" y="1583"/>
      <point x="-431" y="1580"/>
      <point x="-413" y="1580" type="curve" smooth="yes"/>
      <point x="-311" y="1580"/>
      <point x="-188" y="1685"/>
      <point x="-188" y="1846" type="curve" smooth="yes"/>
      <point x="-188" y="1917"/>
      <point x="-240" y="1973"/>
      <point x="-360" y="1973" type="curve" smooth="yes"/>
      <point x="-480" y="1973"/>
      <point x="-525" y="1921"/>
    </contour>
  </outline>
</glyph>
